<?xml version="1.0" encoding="utf-8" standalone="no"?>
<!DOCTYPE svg PUBLIC "-//W3C//DTD SVG 1.1//EN"
  "http://www.w3.org/Graphics/SVG/1.1/DTD/svg11.dtd">
<svg xmlns:xlink="http://www.w3.org/1999/xlink" width="352.067187pt" height="309.6325pt" viewBox="0 0 352.067187 309.6325" xmlns="http://www.w3.org/2000/svg" version="1.1">
 <metadata>
  <rdf:RDF xmlns:dc="http://purl.org/dc/elements/1.1/" xmlns:cc="http://creativecommons.org/ns#" xmlns:rdf="http://www.w3.org/1999/02/22-rdf-syntax-ns#">
   <cc:Work>
    <dc:type rdf:resource="http://purl.org/dc/dcmitype/StillImage"/>
    <dc:date>2024-08-29T12:41:03.821981</dc:date>
    <dc:format>image/svg+xml</dc:format>
    <dc:creator>
     <cc:Agent>
      <dc:title>Matplotlib v3.9.1, https://matplotlib.org/</dc:title>
     </cc:Agent>
    </dc:creator>
   </cc:Work>
  </rdf:RDF>
 </metadata>
 <defs>
  <style type="text/css">*{stroke-linejoin: round; stroke-linecap: butt}</style>
 </defs>
 <g id="figure_1">
  <g id="patch_1">
   <path d="M 0 309.6325 
L 352.067187 309.6325 
L 352.067187 0 
L 0 0 
L 0 309.6325 
z
" style="fill: none"/>
  </g>
  <g id="axes_1">
   <g id="patch_2">
    <path d="M 149.567187 193.835625 
L 344.867188 193.835625 
L 344.867188 22.318125 
L 149.567187 22.318125 
L 149.567187 193.835625 
z
" style="fill: none"/>
   </g>
   <g id="patch_3">
    <path d="M 214.667187 26.21625 
L 250.297734 26.21625 
L 250.297734 34.0125 
L 214.667187 34.0125 
z
" clip-path="url(#p106ea0bcd5)" style="fill: #7f7f7f"/>
   </g>
   <g id="patch_4">
    <path d="M 214.667187 57.40125 
L 243.365616 57.40125 
L 243.365616 65.1975 
L 214.667187 65.1975 
z
" clip-path="url(#p106ea0bcd5)" style="fill: #7f7f7f"/>
   </g>
   <g id="patch_5">
    <path d="M 214.667187 72.99375 
L 228.217445 72.99375 
L 228.217445 80.79 
L 214.667187 80.79 
z
" clip-path="url(#p106ea0bcd5)" style="fill: #7f7f7f"/>
   </g>
   <g id="patch_6">
    <path d="M 214.667187 104.17875 
L 218.494649 104.17875 
L 218.494649 111.975 
L 214.667187 111.975 
z
" clip-path="url(#p106ea0bcd5)" style="fill: #7f7f7f"/>
   </g>
   <g id="patch_7">
    <path d="M 214.667187 119.77125 
L 218.193912 119.77125 
L 218.193912 127.5675 
L 214.667187 127.5675 
z
" clip-path="url(#p106ea0bcd5)" style="fill: #7f7f7f"/>
   </g>
   <g id="patch_8">
    <path d="M 214.667187 135.36375 
L 216.196148 135.36375 
L 216.196148 143.16 
L 214.667187 143.16 
z
" clip-path="url(#p106ea0bcd5)" style="fill: #7f7f7f"/>
   </g>
   <g id="patch_9">
    <path d="M 214.667187 166.54875 
L 202.020857 166.54875 
L 202.020857 174.345 
L 214.667187 174.345 
z
" clip-path="url(#p106ea0bcd5)" style="fill: #7f7f7f"/>
   </g>
   <g id="patch_10">
    <path d="M 214.667187 182.14125 
L 194.652455 182.14125 
L 194.652455 189.9375 
L 214.667187 189.9375 
z
" clip-path="url(#p106ea0bcd5)" style="fill: #7f7f7f"/>
   </g>
   <g id="patch_11">
    <path d="M 214.667187 41.80875 
L 245.996481 41.80875 
L 245.996481 49.605 
L 214.667187 49.605 
z
" clip-path="url(#p106ea0bcd5)" style="fill: #e1812c"/>
   </g>
   <g id="patch_12">
    <path d="M 214.667187 88.58625 
L 220.72766 88.58625 
L 220.72766 96.3825 
L 214.667187 96.3825 
z
" clip-path="url(#p106ea0bcd5)" style="fill: #e1812c"/>
   </g>
   <g id="patch_13">
    <path d="M 214.667187 150.95625 
L 211.436315 150.95625 
L 211.436315 158.7525 
L 214.667187 158.7525 
z
" clip-path="url(#p106ea0bcd5)" style="fill: #e1812c"/>
   </g>
   <g id="patch_14">
    <path d="M 214.667187 30.114375 
L 214.667187 30.114375 
L 214.667187 30.114375 
L 214.667187 30.114375 
z
" clip-path="url(#p106ea0bcd5)" style="fill: #7f7f7f"/>
   </g>
   <g id="patch_15">
    <path d="M 214.667187 30.114375 
L 214.667187 30.114375 
L 214.667187 30.114375 
L 214.667187 30.114375 
z
" clip-path="url(#p106ea0bcd5)" style="fill: #e1812c"/>
   </g>
   <g id="matplotlib.axis_1">
    <g id="xtick_1">
     <g id="line2d_1">
      <path d="M 162.587187 193.835625 
L 162.587187 22.318125 
" clip-path="url(#p106ea0bcd5)" style="fill: none; stroke: #b0b0b0; stroke-width: 0.8; stroke-linecap: square"/>
     </g>
     <g id="line2d_2">
      <defs>
       <path id="md88cec084f" d="M 0 0 
L 0 3.5 
" style="stroke: #000000; stroke-width: 0.8"/>
      </defs>
      <g>
       <use xlink:href="#md88cec084f" x="162.587187" y="193.835625" style="stroke: #000000; stroke-width: 0.8"/>
      </g>
     </g>
    </g>
    <g id="xtick_2">
     <g id="line2d_3">
      <path d="M 214.667187 193.835625 
L 214.667187 22.318125 
" clip-path="url(#p106ea0bcd5)" style="fill: none; stroke: #b0b0b0; stroke-width: 0.8; stroke-linecap: square"/>
     </g>
     <g id="line2d_4">
      <g>
       <use xlink:href="#md88cec084f" x="214.667187" y="193.835625" style="stroke: #000000; stroke-width: 0.8"/>
      </g>
     </g>
    </g>
    <g id="xtick_3">
     <g id="line2d_5">
      <path d="M 266.747187 193.835625 
L 266.747187 22.318125 
" clip-path="url(#p106ea0bcd5)" style="fill: none; stroke: #b0b0b0; stroke-width: 0.8; stroke-linecap: square"/>
     </g>
     <g id="line2d_6">
      <g>
       <use xlink:href="#md88cec084f" x="266.747187" y="193.835625" style="stroke: #000000; stroke-width: 0.8"/>
      </g>
     </g>
    </g>
    <g id="xtick_4">
     <g id="line2d_7">
      <path d="M 318.827187 193.835625 
L 318.827187 22.318125 
" clip-path="url(#p106ea0bcd5)" style="fill: none; stroke: #b0b0b0; stroke-width: 0.8; stroke-linecap: square"/>
     </g>
     <g id="line2d_8">
      <g>
       <use xlink:href="#md88cec084f" x="318.827187" y="193.835625" style="stroke: #000000; stroke-width: 0.8"/>
      </g>
     </g>
    </g>
   </g>
   <g id="matplotlib.axis_2">
    <g id="ytick_1">
     <g id="line2d_9">
      <defs>
       <path id="m924e735924" d="M 0 0 
L -3.5 0 
" style="stroke: #000000; stroke-width: 0.8"/>
      </defs>
      <g>
       <use xlink:href="#m924e735924" x="149.567187" y="30.114375" style="stroke: #000000; stroke-width: 0.8"/>
      </g>
     </g>
     <g id="text_1">
      <!-- flunarizine_dihydrochloride -->
      <g transform="translate(7.2 33.913594) scale(0.1 -0.1)">
       <defs>
        <path id="DejaVuSans-66" d="M 2375 4863 
L 2375 4384 
L 1825 4384 
Q 1516 4384 1395 4259 
Q 1275 4134 1275 3809 
L 1275 3500 
L 2222 3500 
L 2222 3053 
L 1275 3053 
L 1275 0 
L 697 0 
L 697 3053 
L 147 3053 
L 147 3500 
L 697 3500 
L 697 3744 
Q 697 4328 969 4595 
Q 1241 4863 1831 4863 
L 2375 4863 
z
" transform="scale(0.015625)"/>
        <path id="DejaVuSans-6c" d="M 603 4863 
L 1178 4863 
L 1178 0 
L 603 0 
L 603 4863 
z
" transform="scale(0.015625)"/>
        <path id="DejaVuSans-75" d="M 544 1381 
L 544 3500 
L 1119 3500 
L 1119 1403 
Q 1119 906 1312 657 
Q 1506 409 1894 409 
Q 2359 409 2629 706 
Q 2900 1003 2900 1516 
L 2900 3500 
L 3475 3500 
L 3475 0 
L 2900 0 
L 2900 538 
Q 2691 219 2414 64 
Q 2138 -91 1772 -91 
Q 1169 -91 856 284 
Q 544 659 544 1381 
z
M 1991 3584 
L 1991 3584 
z
" transform="scale(0.015625)"/>
        <path id="DejaVuSans-6e" d="M 3513 2113 
L 3513 0 
L 2938 0 
L 2938 2094 
Q 2938 2591 2744 2837 
Q 2550 3084 2163 3084 
Q 1697 3084 1428 2787 
Q 1159 2491 1159 1978 
L 1159 0 
L 581 0 
L 581 3500 
L 1159 3500 
L 1159 2956 
Q 1366 3272 1645 3428 
Q 1925 3584 2291 3584 
Q 2894 3584 3203 3211 
Q 3513 2838 3513 2113 
z
" transform="scale(0.015625)"/>
        <path id="DejaVuSans-61" d="M 2194 1759 
Q 1497 1759 1228 1600 
Q 959 1441 959 1056 
Q 959 750 1161 570 
Q 1363 391 1709 391 
Q 2188 391 2477 730 
Q 2766 1069 2766 1631 
L 2766 1759 
L 2194 1759 
z
M 3341 1997 
L 3341 0 
L 2766 0 
L 2766 531 
Q 2569 213 2275 61 
Q 1981 -91 1556 -91 
Q 1019 -91 701 211 
Q 384 513 384 1019 
Q 384 1609 779 1909 
Q 1175 2209 1959 2209 
L 2766 2209 
L 2766 2266 
Q 2766 2663 2505 2880 
Q 2244 3097 1772 3097 
Q 1472 3097 1187 3025 
Q 903 2953 641 2809 
L 641 3341 
Q 956 3463 1253 3523 
Q 1550 3584 1831 3584 
Q 2591 3584 2966 3190 
Q 3341 2797 3341 1997 
z
" transform="scale(0.015625)"/>
        <path id="DejaVuSans-72" d="M 2631 2963 
Q 2534 3019 2420 3045 
Q 2306 3072 2169 3072 
Q 1681 3072 1420 2755 
Q 1159 2438 1159 1844 
L 1159 0 
L 581 0 
L 581 3500 
L 1159 3500 
L 1159 2956 
Q 1341 3275 1631 3429 
Q 1922 3584 2338 3584 
Q 2397 3584 2469 3576 
Q 2541 3569 2628 3553 
L 2631 2963 
z
" transform="scale(0.015625)"/>
        <path id="DejaVuSans-69" d="M 603 3500 
L 1178 3500 
L 1178 0 
L 603 0 
L 603 3500 
z
M 603 4863 
L 1178 4863 
L 1178 4134 
L 603 4134 
L 603 4863 
z
" transform="scale(0.015625)"/>
        <path id="DejaVuSans-7a" d="M 353 3500 
L 3084 3500 
L 3084 2975 
L 922 459 
L 3084 459 
L 3084 0 
L 275 0 
L 275 525 
L 2438 3041 
L 353 3041 
L 353 3500 
z
" transform="scale(0.015625)"/>
        <path id="DejaVuSans-65" d="M 3597 1894 
L 3597 1613 
L 953 1613 
Q 991 1019 1311 708 
Q 1631 397 2203 397 
Q 2534 397 2845 478 
Q 3156 559 3463 722 
L 3463 178 
Q 3153 47 2828 -22 
Q 2503 -91 2169 -91 
Q 1331 -91 842 396 
Q 353 884 353 1716 
Q 353 2575 817 3079 
Q 1281 3584 2069 3584 
Q 2775 3584 3186 3129 
Q 3597 2675 3597 1894 
z
M 3022 2063 
Q 3016 2534 2758 2815 
Q 2500 3097 2075 3097 
Q 1594 3097 1305 2825 
Q 1016 2553 972 2059 
L 3022 2063 
z
" transform="scale(0.015625)"/>
        <path id="DejaVuSans-5f" d="M 3263 -1063 
L 3263 -1509 
L -63 -1509 
L -63 -1063 
L 3263 -1063 
z
" transform="scale(0.015625)"/>
        <path id="DejaVuSans-64" d="M 2906 2969 
L 2906 4863 
L 3481 4863 
L 3481 0 
L 2906 0 
L 2906 525 
Q 2725 213 2448 61 
Q 2172 -91 1784 -91 
Q 1150 -91 751 415 
Q 353 922 353 1747 
Q 353 2572 751 3078 
Q 1150 3584 1784 3584 
Q 2172 3584 2448 3432 
Q 2725 3281 2906 2969 
z
M 947 1747 
Q 947 1113 1208 752 
Q 1469 391 1925 391 
Q 2381 391 2643 752 
Q 2906 1113 2906 1747 
Q 2906 2381 2643 2742 
Q 2381 3103 1925 3103 
Q 1469 3103 1208 2742 
Q 947 2381 947 1747 
z
" transform="scale(0.015625)"/>
        <path id="DejaVuSans-68" d="M 3513 2113 
L 3513 0 
L 2938 0 
L 2938 2094 
Q 2938 2591 2744 2837 
Q 2550 3084 2163 3084 
Q 1697 3084 1428 2787 
Q 1159 2491 1159 1978 
L 1159 0 
L 581 0 
L 581 4863 
L 1159 4863 
L 1159 2956 
Q 1366 3272 1645 3428 
Q 1925 3584 2291 3584 
Q 2894 3584 3203 3211 
Q 3513 2838 3513 2113 
z
" transform="scale(0.015625)"/>
        <path id="DejaVuSans-79" d="M 2059 -325 
Q 1816 -950 1584 -1140 
Q 1353 -1331 966 -1331 
L 506 -1331 
L 506 -850 
L 844 -850 
Q 1081 -850 1212 -737 
Q 1344 -625 1503 -206 
L 1606 56 
L 191 3500 
L 800 3500 
L 1894 763 
L 2988 3500 
L 3597 3500 
L 2059 -325 
z
" transform="scale(0.015625)"/>
        <path id="DejaVuSans-6f" d="M 1959 3097 
Q 1497 3097 1228 2736 
Q 959 2375 959 1747 
Q 959 1119 1226 758 
Q 1494 397 1959 397 
Q 2419 397 2687 759 
Q 2956 1122 2956 1747 
Q 2956 2369 2687 2733 
Q 2419 3097 1959 3097 
z
M 1959 3584 
Q 2709 3584 3137 3096 
Q 3566 2609 3566 1747 
Q 3566 888 3137 398 
Q 2709 -91 1959 -91 
Q 1206 -91 779 398 
Q 353 888 353 1747 
Q 353 2609 779 3096 
Q 1206 3584 1959 3584 
z
" transform="scale(0.015625)"/>
        <path id="DejaVuSans-63" d="M 3122 3366 
L 3122 2828 
Q 2878 2963 2633 3030 
Q 2388 3097 2138 3097 
Q 1578 3097 1268 2742 
Q 959 2388 959 1747 
Q 959 1106 1268 751 
Q 1578 397 2138 397 
Q 2388 397 2633 464 
Q 2878 531 3122 666 
L 3122 134 
Q 2881 22 2623 -34 
Q 2366 -91 2075 -91 
Q 1284 -91 818 406 
Q 353 903 353 1747 
Q 353 2603 823 3093 
Q 1294 3584 2113 3584 
Q 2378 3584 2631 3529 
Q 2884 3475 3122 3366 
z
" transform="scale(0.015625)"/>
       </defs>
       <use xlink:href="#DejaVuSans-66"/>
       <use xlink:href="#DejaVuSans-6c" x="35.205078"/>
       <use xlink:href="#DejaVuSans-75" x="62.988281"/>
       <use xlink:href="#DejaVuSans-6e" x="126.367188"/>
       <use xlink:href="#DejaVuSans-61" x="189.746094"/>
       <use xlink:href="#DejaVuSans-72" x="251.025391"/>
       <use xlink:href="#DejaVuSans-69" x="292.138672"/>
       <use xlink:href="#DejaVuSans-7a" x="319.921875"/>
       <use xlink:href="#DejaVuSans-69" x="372.412109"/>
       <use xlink:href="#DejaVuSans-6e" x="400.195312"/>
       <use xlink:href="#DejaVuSans-65" x="463.574219"/>
       <use xlink:href="#DejaVuSans-5f" x="525.097656"/>
       <use xlink:href="#DejaVuSans-64" x="575.097656"/>
       <use xlink:href="#DejaVuSans-69" x="638.574219"/>
       <use xlink:href="#DejaVuSans-68" x="666.357422"/>
       <use xlink:href="#DejaVuSans-79" x="729.736328"/>
       <use xlink:href="#DejaVuSans-64" x="788.916016"/>
       <use xlink:href="#DejaVuSans-72" x="852.392578"/>
       <use xlink:href="#DejaVuSans-6f" x="891.255859"/>
       <use xlink:href="#DejaVuSans-63" x="952.4375"/>
       <use xlink:href="#DejaVuSans-68" x="1007.417969"/>
       <use xlink:href="#DejaVuSans-6c" x="1070.796875"/>
       <use xlink:href="#DejaVuSans-6f" x="1098.580078"/>
       <use xlink:href="#DejaVuSans-72" x="1159.761719"/>
       <use xlink:href="#DejaVuSans-69" x="1200.875"/>
       <use xlink:href="#DejaVuSans-64" x="1228.658203"/>
       <use xlink:href="#DejaVuSans-65" x="1292.134766"/>
      </g>
     </g>
    </g>
    <g id="ytick_2">
     <g id="line2d_10">
      <g>
       <use xlink:href="#m924e735924" x="149.567187" y="45.706875" style="stroke: #000000; stroke-width: 0.8"/>
      </g>
     </g>
     <g id="text_2">
      <!-- dicumarol -->
      <g transform="translate(92.953125 49.506094) scale(0.1 -0.1)">
       <defs>
        <path id="DejaVuSans-6d" d="M 3328 2828 
Q 3544 3216 3844 3400 
Q 4144 3584 4550 3584 
Q 5097 3584 5394 3201 
Q 5691 2819 5691 2113 
L 5691 0 
L 5113 0 
L 5113 2094 
Q 5113 2597 4934 2840 
Q 4756 3084 4391 3084 
Q 3944 3084 3684 2787 
Q 3425 2491 3425 1978 
L 3425 0 
L 2847 0 
L 2847 2094 
Q 2847 2600 2669 2842 
Q 2491 3084 2119 3084 
Q 1678 3084 1418 2786 
Q 1159 2488 1159 1978 
L 1159 0 
L 581 0 
L 581 3500 
L 1159 3500 
L 1159 2956 
Q 1356 3278 1631 3431 
Q 1906 3584 2284 3584 
Q 2666 3584 2933 3390 
Q 3200 3197 3328 2828 
z
" transform="scale(0.015625)"/>
       </defs>
       <use xlink:href="#DejaVuSans-64"/>
       <use xlink:href="#DejaVuSans-69" x="63.476562"/>
       <use xlink:href="#DejaVuSans-63" x="91.259766"/>
       <use xlink:href="#DejaVuSans-75" x="146.240234"/>
       <use xlink:href="#DejaVuSans-6d" x="209.619141"/>
       <use xlink:href="#DejaVuSans-61" x="307.03125"/>
       <use xlink:href="#DejaVuSans-72" x="368.310547"/>
       <use xlink:href="#DejaVuSans-6f" x="407.173828"/>
       <use xlink:href="#DejaVuSans-6c" x="468.355469"/>
      </g>
     </g>
    </g>
    <g id="ytick_3">
     <g id="line2d_11">
      <g>
       <use xlink:href="#m924e735924" x="149.567187" y="61.299375" style="stroke: #000000; stroke-width: 0.8"/>
      </g>
     </g>
     <g id="text_3">
      <!-- amethopterin -->
      <g transform="translate(74.520312 65.098594) scale(0.1 -0.1)">
       <defs>
        <path id="DejaVuSans-74" d="M 1172 4494 
L 1172 3500 
L 2356 3500 
L 2356 3053 
L 1172 3053 
L 1172 1153 
Q 1172 725 1289 603 
Q 1406 481 1766 481 
L 2356 481 
L 2356 0 
L 1766 0 
Q 1100 0 847 248 
Q 594 497 594 1153 
L 594 3053 
L 172 3053 
L 172 3500 
L 594 3500 
L 594 4494 
L 1172 4494 
z
" transform="scale(0.015625)"/>
        <path id="DejaVuSans-70" d="M 1159 525 
L 1159 -1331 
L 581 -1331 
L 581 3500 
L 1159 3500 
L 1159 2969 
Q 1341 3281 1617 3432 
Q 1894 3584 2278 3584 
Q 2916 3584 3314 3078 
Q 3713 2572 3713 1747 
Q 3713 922 3314 415 
Q 2916 -91 2278 -91 
Q 1894 -91 1617 61 
Q 1341 213 1159 525 
z
M 3116 1747 
Q 3116 2381 2855 2742 
Q 2594 3103 2138 3103 
Q 1681 3103 1420 2742 
Q 1159 2381 1159 1747 
Q 1159 1113 1420 752 
Q 1681 391 2138 391 
Q 2594 391 2855 752 
Q 3116 1113 3116 1747 
z
" transform="scale(0.015625)"/>
       </defs>
       <use xlink:href="#DejaVuSans-61"/>
       <use xlink:href="#DejaVuSans-6d" x="61.279297"/>
       <use xlink:href="#DejaVuSans-65" x="158.691406"/>
       <use xlink:href="#DejaVuSans-74" x="220.214844"/>
       <use xlink:href="#DejaVuSans-68" x="259.423828"/>
       <use xlink:href="#DejaVuSans-6f" x="322.802734"/>
       <use xlink:href="#DejaVuSans-70" x="383.984375"/>
       <use xlink:href="#DejaVuSans-74" x="447.460938"/>
       <use xlink:href="#DejaVuSans-65" x="486.669922"/>
       <use xlink:href="#DejaVuSans-72" x="548.193359"/>
       <use xlink:href="#DejaVuSans-69" x="589.306641"/>
       <use xlink:href="#DejaVuSans-6e" x="617.089844"/>
      </g>
     </g>
    </g>
    <g id="ytick_4">
     <g id="line2d_12">
      <g>
       <use xlink:href="#m924e735924" x="149.567187" y="76.891875" style="stroke: #000000; stroke-width: 0.8"/>
      </g>
     </g>
     <g id="text_4">
      <!-- leflunomide -->
      <g transform="translate(83.523437 80.691094) scale(0.1 -0.1)">
       <use xlink:href="#DejaVuSans-6c"/>
       <use xlink:href="#DejaVuSans-65" x="27.783203"/>
       <use xlink:href="#DejaVuSans-66" x="89.306641"/>
       <use xlink:href="#DejaVuSans-6c" x="124.511719"/>
       <use xlink:href="#DejaVuSans-75" x="152.294922"/>
       <use xlink:href="#DejaVuSans-6e" x="215.673828"/>
       <use xlink:href="#DejaVuSans-6f" x="279.052734"/>
       <use xlink:href="#DejaVuSans-6d" x="340.234375"/>
       <use xlink:href="#DejaVuSans-69" x="437.646484"/>
       <use xlink:href="#DejaVuSans-64" x="465.429688"/>
       <use xlink:href="#DejaVuSans-65" x="528.90625"/>
      </g>
     </g>
    </g>
    <g id="ytick_5">
     <g id="line2d_13">
      <g>
       <use xlink:href="#m924e735924" x="149.567187" y="92.484375" style="stroke: #000000; stroke-width: 0.8"/>
      </g>
     </g>
     <g id="text_5">
      <!-- teriflunomide -->
      <g transform="translate(75.492187 96.283594) scale(0.1 -0.1)">
       <use xlink:href="#DejaVuSans-74"/>
       <use xlink:href="#DejaVuSans-65" x="39.208984"/>
       <use xlink:href="#DejaVuSans-72" x="100.732422"/>
       <use xlink:href="#DejaVuSans-69" x="141.845703"/>
       <use xlink:href="#DejaVuSans-66" x="169.628906"/>
       <use xlink:href="#DejaVuSans-6c" x="204.833984"/>
       <use xlink:href="#DejaVuSans-75" x="232.617188"/>
       <use xlink:href="#DejaVuSans-6e" x="295.996094"/>
       <use xlink:href="#DejaVuSans-6f" x="359.375"/>
       <use xlink:href="#DejaVuSans-6d" x="420.556641"/>
       <use xlink:href="#DejaVuSans-69" x="517.96875"/>
       <use xlink:href="#DejaVuSans-64" x="545.751953"/>
       <use xlink:href="#DejaVuSans-65" x="609.228516"/>
      </g>
     </g>
    </g>
    <g id="ytick_6">
     <g id="line2d_14">
      <g>
       <use xlink:href="#m924e735924" x="149.567187" y="108.076875" style="stroke: #000000; stroke-width: 0.8"/>
      </g>
     </g>
     <g id="text_6">
      <!-- mesoridazine_besylate -->
      <g transform="translate(27.853125 111.876094) scale(0.1 -0.1)">
       <defs>
        <path id="DejaVuSans-73" d="M 2834 3397 
L 2834 2853 
Q 2591 2978 2328 3040 
Q 2066 3103 1784 3103 
Q 1356 3103 1142 2972 
Q 928 2841 928 2578 
Q 928 2378 1081 2264 
Q 1234 2150 1697 2047 
L 1894 2003 
Q 2506 1872 2764 1633 
Q 3022 1394 3022 966 
Q 3022 478 2636 193 
Q 2250 -91 1575 -91 
Q 1294 -91 989 -36 
Q 684 19 347 128 
L 347 722 
Q 666 556 975 473 
Q 1284 391 1588 391 
Q 1994 391 2212 530 
Q 2431 669 2431 922 
Q 2431 1156 2273 1281 
Q 2116 1406 1581 1522 
L 1381 1569 
Q 847 1681 609 1914 
Q 372 2147 372 2553 
Q 372 3047 722 3315 
Q 1072 3584 1716 3584 
Q 2034 3584 2315 3537 
Q 2597 3491 2834 3397 
z
" transform="scale(0.015625)"/>
        <path id="DejaVuSans-62" d="M 3116 1747 
Q 3116 2381 2855 2742 
Q 2594 3103 2138 3103 
Q 1681 3103 1420 2742 
Q 1159 2381 1159 1747 
Q 1159 1113 1420 752 
Q 1681 391 2138 391 
Q 2594 391 2855 752 
Q 3116 1113 3116 1747 
z
M 1159 2969 
Q 1341 3281 1617 3432 
Q 1894 3584 2278 3584 
Q 2916 3584 3314 3078 
Q 3713 2572 3713 1747 
Q 3713 922 3314 415 
Q 2916 -91 2278 -91 
Q 1894 -91 1617 61 
Q 1341 213 1159 525 
L 1159 0 
L 581 0 
L 581 4863 
L 1159 4863 
L 1159 2969 
z
" transform="scale(0.015625)"/>
       </defs>
       <use xlink:href="#DejaVuSans-6d"/>
       <use xlink:href="#DejaVuSans-65" x="97.412109"/>
       <use xlink:href="#DejaVuSans-73" x="158.935547"/>
       <use xlink:href="#DejaVuSans-6f" x="211.035156"/>
       <use xlink:href="#DejaVuSans-72" x="272.216797"/>
       <use xlink:href="#DejaVuSans-69" x="313.330078"/>
       <use xlink:href="#DejaVuSans-64" x="341.113281"/>
       <use xlink:href="#DejaVuSans-61" x="404.589844"/>
       <use xlink:href="#DejaVuSans-7a" x="465.869141"/>
       <use xlink:href="#DejaVuSans-69" x="518.359375"/>
       <use xlink:href="#DejaVuSans-6e" x="546.142578"/>
       <use xlink:href="#DejaVuSans-65" x="609.521484"/>
       <use xlink:href="#DejaVuSans-5f" x="671.044922"/>
       <use xlink:href="#DejaVuSans-62" x="721.044922"/>
       <use xlink:href="#DejaVuSans-65" x="784.521484"/>
       <use xlink:href="#DejaVuSans-73" x="846.044922"/>
       <use xlink:href="#DejaVuSans-79" x="898.144531"/>
       <use xlink:href="#DejaVuSans-6c" x="957.324219"/>
       <use xlink:href="#DejaVuSans-61" x="985.107422"/>
       <use xlink:href="#DejaVuSans-74" x="1046.386719"/>
       <use xlink:href="#DejaVuSans-65" x="1085.595703"/>
      </g>
     </g>
    </g>
    <g id="ytick_7">
     <g id="line2d_15">
      <g>
       <use xlink:href="#m924e735924" x="149.567187" y="123.669375" style="stroke: #000000; stroke-width: 0.8"/>
      </g>
     </g>
     <g id="text_7">
      <!-- tegaserod_maleate -->
      <g transform="translate(46.3 127.468594) scale(0.1 -0.1)">
       <defs>
        <path id="DejaVuSans-67" d="M 2906 1791 
Q 2906 2416 2648 2759 
Q 2391 3103 1925 3103 
Q 1463 3103 1205 2759 
Q 947 2416 947 1791 
Q 947 1169 1205 825 
Q 1463 481 1925 481 
Q 2391 481 2648 825 
Q 2906 1169 2906 1791 
z
M 3481 434 
Q 3481 -459 3084 -895 
Q 2688 -1331 1869 -1331 
Q 1566 -1331 1297 -1286 
Q 1028 -1241 775 -1147 
L 775 -588 
Q 1028 -725 1275 -790 
Q 1522 -856 1778 -856 
Q 2344 -856 2625 -561 
Q 2906 -266 2906 331 
L 2906 616 
Q 2728 306 2450 153 
Q 2172 0 1784 0 
Q 1141 0 747 490 
Q 353 981 353 1791 
Q 353 2603 747 3093 
Q 1141 3584 1784 3584 
Q 2172 3584 2450 3431 
Q 2728 3278 2906 2969 
L 2906 3500 
L 3481 3500 
L 3481 434 
z
" transform="scale(0.015625)"/>
       </defs>
       <use xlink:href="#DejaVuSans-74"/>
       <use xlink:href="#DejaVuSans-65" x="39.208984"/>
       <use xlink:href="#DejaVuSans-67" x="100.732422"/>
       <use xlink:href="#DejaVuSans-61" x="164.208984"/>
       <use xlink:href="#DejaVuSans-73" x="225.488281"/>
       <use xlink:href="#DejaVuSans-65" x="277.587891"/>
       <use xlink:href="#DejaVuSans-72" x="339.111328"/>
       <use xlink:href="#DejaVuSans-6f" x="377.974609"/>
       <use xlink:href="#DejaVuSans-64" x="439.15625"/>
       <use xlink:href="#DejaVuSans-5f" x="502.632812"/>
       <use xlink:href="#DejaVuSans-6d" x="552.632812"/>
       <use xlink:href="#DejaVuSans-61" x="650.044922"/>
       <use xlink:href="#DejaVuSans-6c" x="711.324219"/>
       <use xlink:href="#DejaVuSans-65" x="739.107422"/>
       <use xlink:href="#DejaVuSans-61" x="800.630859"/>
       <use xlink:href="#DejaVuSans-74" x="861.910156"/>
       <use xlink:href="#DejaVuSans-65" x="901.119141"/>
      </g>
     </g>
    </g>
    <g id="ytick_8">
     <g id="line2d_16">
      <g>
       <use xlink:href="#m924e735924" x="149.567187" y="139.261875" style="stroke: #000000; stroke-width: 0.8"/>
      </g>
     </g>
     <g id="text_8">
      <!-- azaribine -->
      <g transform="translate(96.55625 143.061094) scale(0.1 -0.1)">
       <use xlink:href="#DejaVuSans-61"/>
       <use xlink:href="#DejaVuSans-7a" x="61.279297"/>
       <use xlink:href="#DejaVuSans-61" x="113.769531"/>
       <use xlink:href="#DejaVuSans-72" x="175.048828"/>
       <use xlink:href="#DejaVuSans-69" x="216.162109"/>
       <use xlink:href="#DejaVuSans-62" x="243.945312"/>
       <use xlink:href="#DejaVuSans-69" x="307.421875"/>
       <use xlink:href="#DejaVuSans-6e" x="335.205078"/>
       <use xlink:href="#DejaVuSans-65" x="398.583984"/>
      </g>
     </g>
    </g>
    <g id="ytick_9">
     <g id="line2d_17">
      <g>
       <use xlink:href="#m924e735924" x="149.567187" y="154.854375" style="stroke: #000000; stroke-width: 0.8"/>
      </g>
     </g>
     <g id="text_9">
      <!-- tiratricol -->
      <g transform="translate(100.425 158.653594) scale(0.1 -0.1)">
       <use xlink:href="#DejaVuSans-74"/>
       <use xlink:href="#DejaVuSans-69" x="39.208984"/>
       <use xlink:href="#DejaVuSans-72" x="66.992188"/>
       <use xlink:href="#DejaVuSans-61" x="108.105469"/>
       <use xlink:href="#DejaVuSans-74" x="169.384766"/>
       <use xlink:href="#DejaVuSans-72" x="208.59375"/>
       <use xlink:href="#DejaVuSans-69" x="249.707031"/>
       <use xlink:href="#DejaVuSans-63" x="277.490234"/>
       <use xlink:href="#DejaVuSans-6f" x="332.470703"/>
       <use xlink:href="#DejaVuSans-6c" x="393.652344"/>
      </g>
     </g>
    </g>
    <g id="ytick_10">
     <g id="line2d_18">
      <g>
       <use xlink:href="#m924e735924" x="149.567187" y="170.446875" style="stroke: #000000; stroke-width: 0.8"/>
      </g>
     </g>
     <g id="text_10">
      <!-- cisatracurium_besylate -->
      <g transform="translate(26.38125 174.246094) scale(0.1 -0.1)">
       <use xlink:href="#DejaVuSans-63"/>
       <use xlink:href="#DejaVuSans-69" x="54.980469"/>
       <use xlink:href="#DejaVuSans-73" x="82.763672"/>
       <use xlink:href="#DejaVuSans-61" x="134.863281"/>
       <use xlink:href="#DejaVuSans-74" x="196.142578"/>
       <use xlink:href="#DejaVuSans-72" x="235.351562"/>
       <use xlink:href="#DejaVuSans-61" x="276.464844"/>
       <use xlink:href="#DejaVuSans-63" x="337.744141"/>
       <use xlink:href="#DejaVuSans-75" x="392.724609"/>
       <use xlink:href="#DejaVuSans-72" x="456.103516"/>
       <use xlink:href="#DejaVuSans-69" x="497.216797"/>
       <use xlink:href="#DejaVuSans-75" x="525"/>
       <use xlink:href="#DejaVuSans-6d" x="588.378906"/>
       <use xlink:href="#DejaVuSans-5f" x="685.791016"/>
       <use xlink:href="#DejaVuSans-62" x="735.791016"/>
       <use xlink:href="#DejaVuSans-65" x="799.267578"/>
       <use xlink:href="#DejaVuSans-73" x="860.791016"/>
       <use xlink:href="#DejaVuSans-79" x="912.890625"/>
       <use xlink:href="#DejaVuSans-6c" x="972.070312"/>
       <use xlink:href="#DejaVuSans-61" x="999.853516"/>
       <use xlink:href="#DejaVuSans-74" x="1061.132812"/>
       <use xlink:href="#DejaVuSans-65" x="1100.341797"/>
      </g>
     </g>
    </g>
    <g id="ytick_11">
     <g id="line2d_19">
      <g>
       <use xlink:href="#m924e735924" x="149.567187" y="186.039375" style="stroke: #000000; stroke-width: 0.8"/>
      </g>
     </g>
     <g id="text_11">
      <!-- felodipine -->
      <g transform="translate(93.253125 189.838594) scale(0.1 -0.1)">
       <use xlink:href="#DejaVuSans-66"/>
       <use xlink:href="#DejaVuSans-65" x="35.205078"/>
       <use xlink:href="#DejaVuSans-6c" x="96.728516"/>
       <use xlink:href="#DejaVuSans-6f" x="124.511719"/>
       <use xlink:href="#DejaVuSans-64" x="185.693359"/>
       <use xlink:href="#DejaVuSans-69" x="249.169922"/>
       <use xlink:href="#DejaVuSans-70" x="276.953125"/>
       <use xlink:href="#DejaVuSans-69" x="340.429688"/>
       <use xlink:href="#DejaVuSans-6e" x="368.212891"/>
       <use xlink:href="#DejaVuSans-65" x="431.591797"/>
      </g>
     </g>
    </g>
   </g>
   <g id="line2d_20">
    <path clip-path="url(#p106ea0bcd5)" style="fill: none; stroke: #424242; stroke-width: 2.25; stroke-linecap: square"/>
   </g>
   <g id="line2d_21">
    <path clip-path="url(#p106ea0bcd5)" style="fill: none; stroke: #424242; stroke-width: 2.25; stroke-linecap: square"/>
   </g>
   <g id="line2d_22">
    <path clip-path="url(#p106ea0bcd5)" style="fill: none; stroke: #424242; stroke-width: 2.25; stroke-linecap: square"/>
   </g>
   <g id="line2d_23">
    <path clip-path="url(#p106ea0bcd5)" style="fill: none; stroke: #424242; stroke-width: 2.25; stroke-linecap: square"/>
   </g>
   <g id="line2d_24">
    <path clip-path="url(#p106ea0bcd5)" style="fill: none; stroke: #424242; stroke-width: 2.25; stroke-linecap: square"/>
   </g>
   <g id="line2d_25">
    <path clip-path="url(#p106ea0bcd5)" style="fill: none; stroke: #424242; stroke-width: 2.25; stroke-linecap: square"/>
   </g>
   <g id="line2d_26">
    <path clip-path="url(#p106ea0bcd5)" style="fill: none; stroke: #424242; stroke-width: 2.25; stroke-linecap: square"/>
   </g>
   <g id="line2d_27">
    <path clip-path="url(#p106ea0bcd5)" style="fill: none; stroke: #424242; stroke-width: 2.25; stroke-linecap: square"/>
   </g>
   <g id="line2d_28">
    <path clip-path="url(#p106ea0bcd5)" style="fill: none; stroke: #424242; stroke-width: 2.25; stroke-linecap: square"/>
   </g>
   <g id="line2d_29">
    <path clip-path="url(#p106ea0bcd5)" style="fill: none; stroke: #424242; stroke-width: 2.25; stroke-linecap: square"/>
   </g>
   <g id="line2d_30">
    <path clip-path="url(#p106ea0bcd5)" style="fill: none; stroke: #424242; stroke-width: 2.25; stroke-linecap: square"/>
   </g>
   <g id="patch_16">
    <path d="M 149.567187 193.835625 
L 149.567187 22.318125 
" style="fill: none; stroke: #000000; stroke-width: 0.8; stroke-linejoin: miter; stroke-linecap: square"/>
   </g>
   <g id="patch_17">
    <path d="M 344.867188 193.835625 
L 344.867188 22.318125 
" style="fill: none; stroke: #000000; stroke-width: 0.8; stroke-linejoin: miter; stroke-linecap: square"/>
   </g>
   <g id="patch_18">
    <path d="M 149.567187 193.835625 
L 344.867188 193.835625 
" style="fill: none; stroke: #000000; stroke-width: 0.8; stroke-linejoin: miter; stroke-linecap: square"/>
   </g>
   <g id="patch_19">
    <path d="M 149.567187 22.318125 
L 344.867188 22.318125 
" style="fill: none; stroke: #000000; stroke-width: 0.8; stroke-linejoin: miter; stroke-linecap: square"/>
   </g>
   <g id="text_12">
    <!-- vina (DUDE AUC=84.6) -->
    <g transform="translate(177.529063 16.318125) scale(0.12 -0.12)">
     <defs>
      <path id="DejaVuSans-76" d="M 191 3500 
L 800 3500 
L 1894 563 
L 2988 3500 
L 3597 3500 
L 2284 0 
L 1503 0 
L 191 3500 
z
" transform="scale(0.015625)"/>
      <path id="DejaVuSans-20" transform="scale(0.015625)"/>
      <path id="DejaVuSans-28" d="M 1984 4856 
Q 1566 4138 1362 3434 
Q 1159 2731 1159 2009 
Q 1159 1288 1364 580 
Q 1569 -128 1984 -844 
L 1484 -844 
Q 1016 -109 783 600 
Q 550 1309 550 2009 
Q 550 2706 781 3412 
Q 1013 4119 1484 4856 
L 1984 4856 
z
" transform="scale(0.015625)"/>
      <path id="DejaVuSans-44" d="M 1259 4147 
L 1259 519 
L 2022 519 
Q 2988 519 3436 956 
Q 3884 1394 3884 2338 
Q 3884 3275 3436 3711 
Q 2988 4147 2022 4147 
L 1259 4147 
z
M 628 4666 
L 1925 4666 
Q 3281 4666 3915 4102 
Q 4550 3538 4550 2338 
Q 4550 1131 3912 565 
Q 3275 0 1925 0 
L 628 0 
L 628 4666 
z
" transform="scale(0.015625)"/>
      <path id="DejaVuSans-55" d="M 556 4666 
L 1191 4666 
L 1191 1831 
Q 1191 1081 1462 751 
Q 1734 422 2344 422 
Q 2950 422 3222 751 
Q 3494 1081 3494 1831 
L 3494 4666 
L 4128 4666 
L 4128 1753 
Q 4128 841 3676 375 
Q 3225 -91 2344 -91 
Q 1459 -91 1007 375 
Q 556 841 556 1753 
L 556 4666 
z
" transform="scale(0.015625)"/>
      <path id="DejaVuSans-45" d="M 628 4666 
L 3578 4666 
L 3578 4134 
L 1259 4134 
L 1259 2753 
L 3481 2753 
L 3481 2222 
L 1259 2222 
L 1259 531 
L 3634 531 
L 3634 0 
L 628 0 
L 628 4666 
z
" transform="scale(0.015625)"/>
      <path id="DejaVuSans-41" d="M 2188 4044 
L 1331 1722 
L 3047 1722 
L 2188 4044 
z
M 1831 4666 
L 2547 4666 
L 4325 0 
L 3669 0 
L 3244 1197 
L 1141 1197 
L 716 0 
L 50 0 
L 1831 4666 
z
" transform="scale(0.015625)"/>
      <path id="DejaVuSans-43" d="M 4122 4306 
L 4122 3641 
Q 3803 3938 3442 4084 
Q 3081 4231 2675 4231 
Q 1875 4231 1450 3742 
Q 1025 3253 1025 2328 
Q 1025 1406 1450 917 
Q 1875 428 2675 428 
Q 3081 428 3442 575 
Q 3803 722 4122 1019 
L 4122 359 
Q 3791 134 3420 21 
Q 3050 -91 2638 -91 
Q 1578 -91 968 557 
Q 359 1206 359 2328 
Q 359 3453 968 4101 
Q 1578 4750 2638 4750 
Q 3056 4750 3426 4639 
Q 3797 4528 4122 4306 
z
" transform="scale(0.015625)"/>
      <path id="DejaVuSans-3d" d="M 678 2906 
L 4684 2906 
L 4684 2381 
L 678 2381 
L 678 2906 
z
M 678 1631 
L 4684 1631 
L 4684 1100 
L 678 1100 
L 678 1631 
z
" transform="scale(0.015625)"/>
      <path id="DejaVuSans-38" d="M 2034 2216 
Q 1584 2216 1326 1975 
Q 1069 1734 1069 1313 
Q 1069 891 1326 650 
Q 1584 409 2034 409 
Q 2484 409 2743 651 
Q 3003 894 3003 1313 
Q 3003 1734 2745 1975 
Q 2488 2216 2034 2216 
z
M 1403 2484 
Q 997 2584 770 2862 
Q 544 3141 544 3541 
Q 544 4100 942 4425 
Q 1341 4750 2034 4750 
Q 2731 4750 3128 4425 
Q 3525 4100 3525 3541 
Q 3525 3141 3298 2862 
Q 3072 2584 2669 2484 
Q 3125 2378 3379 2068 
Q 3634 1759 3634 1313 
Q 3634 634 3220 271 
Q 2806 -91 2034 -91 
Q 1263 -91 848 271 
Q 434 634 434 1313 
Q 434 1759 690 2068 
Q 947 2378 1403 2484 
z
M 1172 3481 
Q 1172 3119 1398 2916 
Q 1625 2713 2034 2713 
Q 2441 2713 2670 2916 
Q 2900 3119 2900 3481 
Q 2900 3844 2670 4047 
Q 2441 4250 2034 4250 
Q 1625 4250 1398 4047 
Q 1172 3844 1172 3481 
z
" transform="scale(0.015625)"/>
      <path id="DejaVuSans-34" d="M 2419 4116 
L 825 1625 
L 2419 1625 
L 2419 4116 
z
M 2253 4666 
L 3047 4666 
L 3047 1625 
L 3713 1625 
L 3713 1100 
L 3047 1100 
L 3047 0 
L 2419 0 
L 2419 1100 
L 313 1100 
L 313 1709 
L 2253 4666 
z
" transform="scale(0.015625)"/>
      <path id="DejaVuSans-2e" d="M 684 794 
L 1344 794 
L 1344 0 
L 684 0 
L 684 794 
z
" transform="scale(0.015625)"/>
      <path id="DejaVuSans-36" d="M 2113 2584 
Q 1688 2584 1439 2293 
Q 1191 2003 1191 1497 
Q 1191 994 1439 701 
Q 1688 409 2113 409 
Q 2538 409 2786 701 
Q 3034 994 3034 1497 
Q 3034 2003 2786 2293 
Q 2538 2584 2113 2584 
z
M 3366 4563 
L 3366 3988 
Q 3128 4100 2886 4159 
Q 2644 4219 2406 4219 
Q 1781 4219 1451 3797 
Q 1122 3375 1075 2522 
Q 1259 2794 1537 2939 
Q 1816 3084 2150 3084 
Q 2853 3084 3261 2657 
Q 3669 2231 3669 1497 
Q 3669 778 3244 343 
Q 2819 -91 2113 -91 
Q 1303 -91 875 529 
Q 447 1150 447 2328 
Q 447 3434 972 4092 
Q 1497 4750 2381 4750 
Q 2619 4750 2861 4703 
Q 3103 4656 3366 4563 
z
" transform="scale(0.015625)"/>
      <path id="DejaVuSans-29" d="M 513 4856 
L 1013 4856 
Q 1481 4119 1714 3412 
Q 1947 2706 1947 2009 
Q 1947 1309 1714 600 
Q 1481 -109 1013 -844 
L 513 -844 
Q 928 -128 1133 580 
Q 1338 1288 1338 2009 
Q 1338 2731 1133 3434 
Q 928 4138 513 4856 
z
" transform="scale(0.015625)"/>
     </defs>
     <use xlink:href="#DejaVuSans-76"/>
     <use xlink:href="#DejaVuSans-69" x="59.179688"/>
     <use xlink:href="#DejaVuSans-6e" x="86.962891"/>
     <use xlink:href="#DejaVuSans-61" x="150.341797"/>
     <use xlink:href="#DejaVuSans-20" x="211.621094"/>
     <use xlink:href="#DejaVuSans-28" x="243.408203"/>
     <use xlink:href="#DejaVuSans-44" x="282.421875"/>
     <use xlink:href="#DejaVuSans-55" x="359.423828"/>
     <use xlink:href="#DejaVuSans-44" x="432.617188"/>
     <use xlink:href="#DejaVuSans-45" x="509.619141"/>
     <use xlink:href="#DejaVuSans-20" x="572.802734"/>
     <use xlink:href="#DejaVuSans-41" x="604.589844"/>
     <use xlink:href="#DejaVuSans-55" x="672.998047"/>
     <use xlink:href="#DejaVuSans-43" x="746.191406"/>
     <use xlink:href="#DejaVuSans-3d" x="816.015625"/>
     <use xlink:href="#DejaVuSans-38" x="899.804688"/>
     <use xlink:href="#DejaVuSans-34" x="963.427734"/>
     <use xlink:href="#DejaVuSans-2e" x="1027.050781"/>
     <use xlink:href="#DejaVuSans-36" x="1058.837891"/>
     <use xlink:href="#DejaVuSans-29" x="1122.460938"/>
    </g>
   </g>
   <g id="legend_1">
    <g id="patch_20">
     <path d="M 224.617188 188.835625 
L 337.867188 188.835625 
Q 339.867188 188.835625 339.867188 186.835625 
L 339.867188 157.923125 
Q 339.867188 155.923125 337.867188 155.923125 
L 224.617188 155.923125 
Q 222.617188 155.923125 222.617188 157.923125 
L 222.617188 186.835625 
Q 222.617188 188.835625 224.617188 188.835625 
z
" style="fill: #ffffff; opacity: 0.8; stroke: #cccccc; stroke-linejoin: miter"/>
    </g>
    <g id="patch_21">
     <path d="M 226.617188 167.521562 
L 246.617188 167.521562 
L 246.617188 160.521562 
L 226.617188 160.521562 
z
" style="fill: #7f7f7f"/>
    </g>
    <g id="text_13">
     <!-- in_vitro_inactive -->
     <g transform="translate(254.617188 167.521562) scale(0.1 -0.1)">
      <use xlink:href="#DejaVuSans-69"/>
      <use xlink:href="#DejaVuSans-6e" x="27.783203"/>
      <use xlink:href="#DejaVuSans-5f" x="91.162109"/>
      <use xlink:href="#DejaVuSans-76" x="141.162109"/>
      <use xlink:href="#DejaVuSans-69" x="200.341797"/>
      <use xlink:href="#DejaVuSans-74" x="228.125"/>
      <use xlink:href="#DejaVuSans-72" x="267.333984"/>
      <use xlink:href="#DejaVuSans-6f" x="306.197266"/>
      <use xlink:href="#DejaVuSans-5f" x="367.378906"/>
      <use xlink:href="#DejaVuSans-69" x="417.378906"/>
      <use xlink:href="#DejaVuSans-6e" x="445.162109"/>
      <use xlink:href="#DejaVuSans-61" x="508.541016"/>
      <use xlink:href="#DejaVuSans-63" x="569.820312"/>
      <use xlink:href="#DejaVuSans-74" x="624.800781"/>
      <use xlink:href="#DejaVuSans-69" x="664.009766"/>
      <use xlink:href="#DejaVuSans-76" x="691.792969"/>
      <use xlink:href="#DejaVuSans-65" x="750.972656"/>
     </g>
    </g>
    <g id="patch_22">
     <path d="M 226.617188 182.477812 
L 246.617188 182.477812 
L 246.617188 175.477812 
L 226.617188 175.477812 
z
" style="fill: #e1812c"/>
    </g>
    <g id="text_14">
     <!-- in_vitro_active -->
     <g transform="translate(254.617188 182.477812) scale(0.1 -0.1)">
      <use xlink:href="#DejaVuSans-69"/>
      <use xlink:href="#DejaVuSans-6e" x="27.783203"/>
      <use xlink:href="#DejaVuSans-5f" x="91.162109"/>
      <use xlink:href="#DejaVuSans-76" x="141.162109"/>
      <use xlink:href="#DejaVuSans-69" x="200.341797"/>
      <use xlink:href="#DejaVuSans-74" x="228.125"/>
      <use xlink:href="#DejaVuSans-72" x="267.333984"/>
      <use xlink:href="#DejaVuSans-6f" x="306.197266"/>
      <use xlink:href="#DejaVuSans-5f" x="367.378906"/>
      <use xlink:href="#DejaVuSans-61" x="417.378906"/>
      <use xlink:href="#DejaVuSans-63" x="478.658203"/>
      <use xlink:href="#DejaVuSans-74" x="533.638672"/>
      <use xlink:href="#DejaVuSans-69" x="572.847656"/>
      <use xlink:href="#DejaVuSans-76" x="600.630859"/>
      <use xlink:href="#DejaVuSans-65" x="659.810547"/>
     </g>
    </g>
   </g>
  </g>
  <g id="axes_2">
   <g id="patch_23">
    <path d="M 149.567187 271.798125 
L 344.867188 271.798125 
L 344.867188 193.835625 
L 149.567187 193.835625 
L 149.567187 271.798125 
z
" style="fill: none"/>
   </g>
   <g id="PolyCollection_1">
    <defs>
     <path id="me55abb4645" d="M 182.722188 -107.581717 
L 182.722188 -108.419533 
L 183.651364 -108.480153 
L 184.58054 -108.547403 
L 185.509716 -108.621655 
L 186.438892 -108.703249 
L 187.368068 -108.792481 
L 188.297244 -108.889593 
L 189.22642 -108.994763 
L 190.155595 -109.108095 
L 191.084771 -109.229612 
L 192.013947 -109.359241 
L 192.943123 -109.496809 
L 193.872299 -109.642037 
L 194.801475 -109.794531 
L 195.730651 -109.953781 
L 196.659827 -110.119159 
L 197.589003 -110.289919 
L 198.518179 -110.465202 
L 199.447355 -110.644038 
L 200.376531 -110.825359 
L 201.305707 -111.008008 
L 202.234883 -111.190751 
L 203.164059 -111.372296 
L 204.093235 -111.551308 
L 205.022411 -111.726434 
L 205.951587 -111.896316 
L 206.880763 -112.059624 
L 207.809939 -112.21507 
L 208.739115 -112.361435 
L 209.668291 -112.497592 
L 210.597467 -112.622523 
L 211.526643 -112.735343 
L 212.455819 -112.835316 
L 213.384995 -112.921867 
L 214.31417 -112.994592 
L 215.243346 -113.053272 
L 216.172522 -113.097869 
L 217.101698 -113.128527 
L 218.030874 -113.145571 
L 218.96005 -113.149493 
L 219.889226 -113.140944 
L 220.818402 -113.120711 
L 221.747578 -113.089706 
L 222.676754 -113.048935 
L 223.60593 -112.99948 
L 224.535106 -112.942468 
L 225.464282 -112.87905 
L 226.393458 -112.810369 
L 227.322634 -112.737535 
L 228.25181 -112.661605 
L 229.180986 -112.583554 
L 230.110162 -112.50426 
L 231.039338 -112.424486 
L 231.968514 -112.344869 
L 232.89769 -112.265907 
L 233.826866 -112.187961 
L 234.756042 -112.111248 
L 235.685218 -112.035851 
L 236.614394 -111.961721 
L 237.54357 -111.888695 
L 238.472746 -111.816503 
L 239.401921 -111.744792 
L 240.331097 -111.673141 
L 241.260273 -111.601083 
L 242.189449 -111.528125 
L 243.118625 -111.453772 
L 244.047801 -111.377542 
L 244.976977 -111.298992 
L 245.906153 -111.217728 
L 246.835329 -111.133427 
L 247.764505 -111.045843 
L 248.693681 -110.95482 
L 249.622857 -110.860296 
L 250.552033 -110.762307 
L 251.481209 -110.660986 
L 252.410385 -110.556562 
L 253.339561 -110.449348 
L 254.268737 -110.33974 
L 255.197913 -110.228201 
L 256.127089 -110.115251 
L 257.056265 -110.001456 
L 257.985441 -109.887409 
L 258.914617 -109.77372 
L 259.843793 -109.661002 
L 260.772969 -109.549855 
L 261.702145 -109.440859 
L 262.631321 -109.334555 
L 263.560496 -109.231446 
L 264.489672 -109.131978 
L 265.418848 -109.036544 
L 266.348024 -108.945473 
L 267.2772 -108.859032 
L 268.206376 -108.777419 
L 269.135552 -108.700773 
L 270.064728 -108.629168 
L 270.993904 -108.56262 
L 271.92308 -108.50109 
L 272.852256 -108.444492 
L 273.781432 -108.392694 
L 274.710608 -108.345529 
L 274.710608 -107.655721 
L 274.710608 -107.655721 
L 273.781432 -107.608556 
L 272.852256 -107.556758 
L 271.92308 -107.50016 
L 270.993904 -107.43863 
L 270.064728 -107.372082 
L 269.135552 -107.300477 
L 268.206376 -107.223831 
L 267.2772 -107.142218 
L 266.348024 -107.055777 
L 265.418848 -106.964706 
L 264.489672 -106.869272 
L 263.560496 -106.769804 
L 262.631321 -106.666695 
L 261.702145 -106.560391 
L 260.772969 -106.451395 
L 259.843793 -106.340248 
L 258.914617 -106.22753 
L 257.985441 -106.113841 
L 257.056265 -105.999794 
L 256.127089 -105.885999 
L 255.197913 -105.773049 
L 254.268737 -105.66151 
L 253.339561 -105.551902 
L 252.410385 -105.444688 
L 251.481209 -105.340264 
L 250.552033 -105.238943 
L 249.622857 -105.140954 
L 248.693681 -105.04643 
L 247.764505 -104.955407 
L 246.835329 -104.867823 
L 245.906153 -104.783522 
L 244.976977 -104.702258 
L 244.047801 -104.623708 
L 243.118625 -104.547478 
L 242.189449 -104.473125 
L 241.260273 -104.400167 
L 240.331097 -104.328109 
L 239.401921 -104.256458 
L 238.472746 -104.184747 
L 237.54357 -104.112555 
L 236.614394 -104.039529 
L 235.685218 -103.965399 
L 234.756042 -103.890002 
L 233.826866 -103.813289 
L 232.89769 -103.735343 
L 231.968514 -103.656381 
L 231.039338 -103.576764 
L 230.110162 -103.49699 
L 229.180986 -103.417696 
L 228.25181 -103.339645 
L 227.322634 -103.263715 
L 226.393458 -103.190881 
L 225.464282 -103.1222 
L 224.535106 -103.058782 
L 223.60593 -103.00177 
L 222.676754 -102.952315 
L 221.747578 -102.911544 
L 220.818402 -102.880539 
L 219.889226 -102.860306 
L 218.96005 -102.851757 
L 218.030874 -102.855679 
L 217.101698 -102.872723 
L 216.172522 -102.903381 
L 215.243346 -102.947978 
L 214.31417 -103.006658 
L 213.384995 -103.079383 
L 212.455819 -103.165934 
L 211.526643 -103.265907 
L 210.597467 -103.378727 
L 209.668291 -103.503658 
L 208.739115 -103.639815 
L 207.809939 -103.78618 
L 206.880763 -103.941626 
L 205.951587 -104.104934 
L 205.022411 -104.274816 
L 204.093235 -104.449942 
L 203.164059 -104.628954 
L 202.234883 -104.810499 
L 201.305707 -104.993242 
L 200.376531 -105.175891 
L 199.447355 -105.357212 
L 198.518179 -105.536048 
L 197.589003 -105.711331 
L 196.659827 -105.882091 
L 195.730651 -106.047469 
L 194.801475 -106.206719 
L 193.872299 -106.359213 
L 192.943123 -106.504441 
L 192.013947 -106.642009 
L 191.084771 -106.771638 
L 190.155595 -106.893155 
L 189.22642 -107.006487 
L 188.297244 -107.111657 
L 187.368068 -107.208769 
L 186.438892 -107.298001 
L 185.509716 -107.379595 
L 184.58054 -107.453847 
L 183.651364 -107.521097 
L 182.722188 -107.581717 
z
" style="stroke: #3f3f3f; stroke-width: 1.25"/>
    </defs>
    <g clip-path="url(#p298f2f933a)">
     <use xlink:href="#me55abb4645" x="0" y="309.6325" style="fill: #3274a1; stroke: #3f3f3f; stroke-width: 1.25"/>
    </g>
   </g>
   <g id="PolyCollection_2">
    <defs>
     <path id="md697ce64a8" d="M 169.712008 -92.219951 
L 169.712008 -92.596299 
L 170.777929 -92.633331 
L 171.84385 -92.675876 
L 172.909771 -92.724379 
L 173.975692 -92.779248 
L 175.041613 -92.840843 
L 176.107534 -92.909459 
L 177.173455 -92.985315 
L 178.239376 -93.068538 
L 179.305297 -93.159158 
L 180.371218 -93.257096 
L 181.437139 -93.362167 
L 182.50306 -93.474072 
L 183.56898 -93.592412 
L 184.634901 -93.71669 
L 185.700822 -93.846329 
L 186.766743 -93.980686 
L 187.832664 -94.119074 
L 188.898585 -94.260781 
L 189.964506 -94.405096 
L 191.030427 -94.551323 
L 192.096348 -94.698808 
L 193.162269 -94.846947 
L 194.22819 -94.995199 
L 195.294111 -95.14309 
L 196.360031 -95.29021 
L 197.425952 -95.436204 
L 198.491873 -95.580754 
L 199.557794 -95.723566 
L 200.623715 -95.864334 
L 201.689636 -96.002726 
L 202.755557 -96.138346 
L 203.821478 -96.270716 
L 204.887399 -96.399256 
L 205.95332 -96.523264 
L 207.019241 -96.641919 
L 208.085162 -96.754282 
L 209.151083 -96.859307 
L 210.217003 -96.955871 
L 211.282924 -97.042808 
L 212.348845 -97.118949 
L 213.414766 -97.183172 
L 214.480687 -97.234454 
L 215.546608 -97.271921 
L 216.612529 -97.294902 
L 217.67845 -97.302966 
L 218.744371 -97.295962 
L 219.810292 -97.274039 
L 220.876213 -97.237657 
L 221.942134 -97.187581 
L 223.008054 -97.124868 
L 224.073975 -97.050826 
L 225.139896 -96.966978 
L 226.205817 -96.875001 
L 227.271738 -96.776665 
L 228.337659 -96.673768 
L 229.40358 -96.568064 
L 230.469501 -96.461201 
L 231.535422 -96.354657 
L 232.601343 -96.249693 
L 233.667264 -96.14731 
L 234.733185 -96.04822 
L 235.799106 -95.952838 
L 236.865026 -95.861277 
L 237.930947 -95.773364 
L 238.996868 -95.688672 
L 240.062789 -95.606552 
L 241.12871 -95.526188 
L 242.194631 -95.446645 
L 243.260552 -95.366927 
L 244.326473 -95.286038 
L 245.392394 -95.203035 
L 246.458315 -95.117078 
L 247.524236 -95.027474 
L 248.590157 -94.933709 
L 249.656078 -94.835477 
L 250.721998 -94.732688 
L 251.787919 -94.625472 
L 252.85384 -94.514173 
L 253.919761 -94.399329 
L 254.985682 -94.281648 
L 256.051603 -94.161976 
L 257.117524 -94.041263 
L 258.183445 -93.92052 
L 259.249366 -93.800786 
L 260.315287 -93.683089 
L 261.381208 -93.568409 
L 262.447129 -93.45765 
L 263.513049 -93.351618 
L 264.57897 -93.250996 
L 265.644891 -93.156338 
L 266.710812 -93.068057 
L 267.776733 -92.986429 
L 268.842654 -92.911591 
L 269.908575 -92.843557 
L 270.974496 -92.782223 
L 272.040417 -92.727388 
L 273.106338 -92.678767 
L 274.172259 -92.636006 
L 275.23818 -92.598705 
L 275.23818 -92.217545 
L 275.23818 -92.217545 
L 274.172259 -92.180244 
L 273.106338 -92.137483 
L 272.040417 -92.088862 
L 270.974496 -92.034027 
L 269.908575 -91.972693 
L 268.842654 -91.904659 
L 267.776733 -91.829821 
L 266.710812 -91.748193 
L 265.644891 -91.659912 
L 264.57897 -91.565254 
L 263.513049 -91.464632 
L 262.447129 -91.3586 
L 261.381208 -91.247841 
L 260.315287 -91.133161 
L 259.249366 -91.015464 
L 258.183445 -90.89573 
L 257.117524 -90.774987 
L 256.051603 -90.654274 
L 254.985682 -90.534602 
L 253.919761 -90.416921 
L 252.85384 -90.302077 
L 251.787919 -90.190778 
L 250.721998 -90.083562 
L 249.656078 -89.980773 
L 248.590157 -89.882541 
L 247.524236 -89.788776 
L 246.458315 -89.699172 
L 245.392394 -89.613215 
L 244.326473 -89.530212 
L 243.260552 -89.449323 
L 242.194631 -89.369605 
L 241.12871 -89.290062 
L 240.062789 -89.209698 
L 238.996868 -89.127578 
L 237.930947 -89.042886 
L 236.865026 -88.954973 
L 235.799106 -88.863412 
L 234.733185 -88.76803 
L 233.667264 -88.66894 
L 232.601343 -88.566557 
L 231.535422 -88.461593 
L 230.469501 -88.355049 
L 229.40358 -88.248186 
L 228.337659 -88.142482 
L 227.271738 -88.039585 
L 226.205817 -87.941249 
L 225.139896 -87.849272 
L 224.073975 -87.765424 
L 223.008054 -87.691382 
L 221.942134 -87.628669 
L 220.876213 -87.578593 
L 219.810292 -87.542211 
L 218.744371 -87.520288 
L 217.67845 -87.513284 
L 216.612529 -87.521348 
L 215.546608 -87.544329 
L 214.480687 -87.581796 
L 213.414766 -87.633078 
L 212.348845 -87.697301 
L 211.282924 -87.773442 
L 210.217003 -87.860379 
L 209.151083 -87.956943 
L 208.085162 -88.061968 
L 207.019241 -88.174331 
L 205.95332 -88.292986 
L 204.887399 -88.416994 
L 203.821478 -88.545534 
L 202.755557 -88.677904 
L 201.689636 -88.813524 
L 200.623715 -88.951916 
L 199.557794 -89.092684 
L 198.491873 -89.235496 
L 197.425952 -89.380046 
L 196.360031 -89.52604 
L 195.294111 -89.67316 
L 194.22819 -89.821051 
L 193.162269 -89.969303 
L 192.096348 -90.117442 
L 191.030427 -90.264927 
L 189.964506 -90.411154 
L 188.898585 -90.555469 
L 187.832664 -90.697176 
L 186.766743 -90.835564 
L 185.700822 -90.969921 
L 184.634901 -91.09956 
L 183.56898 -91.223838 
L 182.50306 -91.342178 
L 181.437139 -91.454083 
L 180.371218 -91.559154 
L 179.305297 -91.657092 
L 178.239376 -91.747712 
L 177.173455 -91.830935 
L 176.107534 -91.906791 
L 175.041613 -91.975407 
L 173.975692 -92.037002 
L 172.909771 -92.091871 
L 171.84385 -92.140374 
L 170.777929 -92.182919 
L 169.712008 -92.219951 
z
" style="stroke: #3f3f3f; stroke-width: 1.25"/>
    </defs>
    <g clip-path="url(#p298f2f933a)">
     <use xlink:href="#md697ce64a8" x="0" y="309.6325" style="fill: #3274a1; stroke: #3f3f3f; stroke-width: 1.25"/>
    </g>
   </g>
   <g id="PolyCollection_3">
    <path d="M -1549.729622 232.817383 
L -1549.729622 232.816367 
L -1530.91461 232.814694 
L -1512.099599 232.813137 
L -1493.284587 232.814319 
L -1474.469576 232.816177 
L -1455.654564 232.816799 
L -1436.839552 232.816872 
L -1418.024541 232.816875 
L -1399.209529 232.816875 
L -1380.394518 232.816875 
L -1361.579506 232.816875 
L -1342.764495 232.816875 
L -1323.949483 232.816875 
L -1305.134472 232.816875 
L -1286.31946 232.816875 
L -1267.504448 232.816875 
L -1248.689437 232.816875 
L -1229.874425 232.816875 
L -1211.059414 232.816875 
L -1192.244402 232.816873 
L -1173.429391 232.816819 
L -1154.614379 232.816303 
L -1135.799368 232.814557 
L -1116.984356 232.813125 
L -1098.169344 232.814455 
L -1079.354333 232.816251 
L -1060.539321 232.816788 
L -1041.72431 232.816565 
L -1022.909298 232.815219 
L -1004.094287 232.813312 
L -985.279275 232.813816 
L -966.464263 232.815827 
L -947.649252 232.816732 
L -928.83424 232.816867 
L -910.019229 232.816875 
L -891.204217 232.816875 
L -872.389206 232.816875 
L -853.574194 232.816875 
L -834.759183 232.816873 
L -815.944171 232.816829 
L -797.129159 232.816374 
L -778.314148 232.81471 
L -759.499136 232.813139 
L -740.684125 232.814304 
L -721.869113 232.816169 
L -703.054102 232.816798 
L -684.23909 232.816872 
L -665.424079 232.816875 
L -646.609067 232.816865 
L -627.794055 232.8167 
L -608.979044 232.8156 
L -590.164032 232.8128 
L -571.349021 232.81054 
L -552.534009 232.811698 
L -533.718998 232.814738 
L -514.903986 232.81644 
L -496.088975 232.816433 
L -477.273963 232.814926 
L -458.458951 232.813189 
L -439.64394 232.814092 
L -420.828928 232.816036 
L -402.013917 232.816767 
L -383.198905 232.816728 
L -364.383894 232.81567 
L -345.568882 232.812491 
L -326.75387 232.809848 
L -307.938859 232.811846 
L -289.123847 232.815283 
L -270.308836 232.816658 
L -251.493824 232.816863 
L -232.678813 232.816875 
L -213.863801 232.816875 
L -195.04879 232.81686 
L -176.233778 232.816641 
L -157.418766 232.815462 
L -138.603755 232.813449 
L -119.788743 232.813317 
L -100.973732 232.814044 
L -82.15872 232.813166 
L -63.343709 232.813715 
L -44.528697 232.815476 
L -25.713686 232.81402 
L -6.898674 232.805028 
L 11.916338 232.790878 
L 30.731349 232.785114 
L 49.546361 232.791868 
L 68.361372 232.79786 
L 87.176384 232.790745 
L 105.991395 232.775772 
L 124.806407 232.757591 
L 143.621418 232.646449 
L 162.43643 232.191408 
L 181.251442 231.067382 
L 200.066453 229.500538 
L 218.881465 228.887938 
L 237.696476 230.025574 
L 256.511488 231.613519 
L 275.326499 232.489855 
L 294.141511 232.760435 
L 312.956523 232.81108 
L 312.956523 232.82267 
L 312.956523 232.82267 
L 294.141511 232.873315 
L 275.326499 233.143895 
L 256.511488 234.020231 
L 237.696476 235.608176 
L 218.881465 236.745812 
L 200.066453 236.133212 
L 181.251442 234.566368 
L 162.43643 233.442342 
L 143.621418 232.987301 
L 124.806407 232.876159 
L 105.991395 232.857978 
L 87.176384 232.843005 
L 68.361372 232.83589 
L 49.546361 232.841882 
L 30.731349 232.848636 
L 11.916338 232.842872 
L -6.898674 232.828722 
L -25.713686 232.81973 
L -44.528697 232.818274 
L -63.343709 232.820035 
L -82.15872 232.820584 
L -100.973732 232.819706 
L -119.788743 232.820433 
L -138.603755 232.820301 
L -157.418766 232.818288 
L -176.233778 232.817109 
L -195.04879 232.81689 
L -213.863801 232.816875 
L -232.678813 232.816875 
L -251.493824 232.816887 
L -270.308836 232.817092 
L -289.123847 232.818467 
L -307.938859 232.821904 
L -326.75387 232.823902 
L -345.568882 232.821259 
L -364.383894 232.81808 
L -383.198905 232.817022 
L -402.013917 232.816983 
L -420.828928 232.817714 
L -439.64394 232.819658 
L -458.458951 232.820561 
L -477.273963 232.818824 
L -496.088975 232.817317 
L -514.903986 232.81731 
L -533.718998 232.819012 
L -552.534009 232.822052 
L -571.349021 232.82321 
L -590.164032 232.82095 
L -608.979044 232.81815 
L -627.794055 232.81705 
L -646.609067 232.816885 
L -665.424079 232.816875 
L -684.23909 232.816878 
L -703.054102 232.816952 
L -721.869113 232.817581 
L -740.684125 232.819446 
L -759.499136 232.820611 
L -778.314148 232.81904 
L -797.129159 232.817376 
L -815.944171 232.816921 
L -834.759183 232.816877 
L -853.574194 232.816875 
L -872.389206 232.816875 
L -891.204217 232.816875 
L -910.019229 232.816875 
L -928.83424 232.816883 
L -947.649252 232.817018 
L -966.464263 232.817923 
L -985.279275 232.819934 
L -1004.094287 232.820438 
L -1022.909298 232.818531 
L -1041.72431 232.817185 
L -1060.539321 232.816962 
L -1079.354333 232.817499 
L -1098.169344 232.819295 
L -1116.984356 232.820625 
L -1135.799368 232.819193 
L -1154.614379 232.817447 
L -1173.429391 232.816931 
L -1192.244402 232.816877 
L -1211.059414 232.816875 
L -1229.874425 232.816875 
L -1248.689437 232.816875 
L -1267.504448 232.816875 
L -1286.31946 232.816875 
L -1305.134472 232.816875 
L -1323.949483 232.816875 
L -1342.764495 232.816875 
L -1361.579506 232.816875 
L -1380.394518 232.816875 
L -1399.209529 232.816875 
L -1418.024541 232.816875 
L -1436.839552 232.816878 
L -1455.654564 232.816951 
L -1474.469576 232.817573 
L -1493.284587 232.819431 
L -1512.099599 232.820613 
L -1530.91461 232.819056 
L -1549.729622 232.817383 
z
" clip-path="url(#p298f2f933a)" style="fill: #3274a1; stroke: #3f3f3f; stroke-width: 1.25"/>
   </g>
   <g id="PolyCollection_4">
    <defs>
     <path id="m19ca83d36e" d="M 202.014145 -61.175946 
L 202.014145 -61.270304 
L 202.94304 -61.287487 
L 203.871935 -61.309369 
L 204.80083 -61.336687 
L 205.729725 -61.370144 
L 206.65862 -61.410364 
L 207.587515 -61.457869 
L 208.51641 -61.513052 
L 209.445305 -61.576174 
L 210.3742 -61.647373 
L 211.303095 -61.726684 
L 212.23199 -61.81407 
L 213.160885 -61.909449 
L 214.08978 -62.012713 
L 215.018675 -62.123728 
L 215.94757 -62.242306 
L 216.876465 -62.36816 
L 217.80536 -62.500842 
L 218.734255 -62.639674 
L 219.66315 -62.783696 
L 220.592045 -62.931644 
L 221.52094 -63.081975 
L 222.449835 -63.232933 
L 223.37873 -63.382677 
L 224.307626 -63.529434 
L 225.236521 -63.671661 
L 226.165416 -63.808207 
L 227.094311 -63.938413 
L 228.023206 -64.06216 
L 228.952101 -64.179829 
L 229.880996 -64.292186 
L 230.809891 -64.400203 
L 231.738786 -64.504842 
L 232.667681 -64.606842 
L 233.596576 -64.706546 
L 234.525471 -64.8038 
L 235.454366 -64.897952 
L 236.383261 -64.987946 
L 237.312156 -65.072509 
L 238.241051 -65.150394 
L 239.169946 -65.220638 
L 240.098841 -65.282801 
L 241.027736 -65.33712 
L 241.956631 -65.384589 
L 242.885526 -65.426922 
L 243.814421 -65.466419 
L 244.743316 -65.505766 
L 245.672211 -65.547793 
L 246.601106 -65.595236 
L 247.530001 -65.650519 
L 248.458896 -65.715602 
L 249.387791 -65.791877 
L 250.316686 -65.880122 
L 251.245581 -65.980499 
L 252.174476 -66.092571 
L 253.103371 -66.215321 
L 254.032266 -66.347168 
L 254.961161 -66.485967 
L 255.890057 -66.628998 
L 256.818952 -66.772962 
L 257.747847 -66.913993 
L 258.676742 -67.047698 
L 259.605637 -67.169255 
L 260.534532 -67.273559 
L 261.463427 -67.355434 
L 262.392322 -67.409888 
L 263.321217 -67.432401 
L 264.250112 -67.419222 
L 265.179007 -67.367641 
L 266.107902 -67.276198 
L 267.036797 -67.144819 
L 267.965692 -66.974842 
L 268.894587 -66.768941 
L 269.823482 -66.530941 
L 270.752377 -66.26557 
L 271.681272 -65.978146 
L 272.610167 -65.674261 
L 273.539062 -65.359485 
L 274.467957 -65.039121 
L 275.396852 -64.718022 
L 276.325747 -64.400484 
L 277.254642 -64.090204 
L 278.183537 -63.790294 
L 279.112432 -63.503326 
L 280.041327 -63.231393 
L 280.970222 -62.976172 
L 281.899117 -62.738968 
L 282.828012 -62.520742 
L 283.756907 -62.322128 
L 284.685802 -62.143428 
L 285.614697 -61.984604 
L 286.543593 -61.845281 
L 287.472488 -61.72475 
L 288.401383 -61.621997 
L 289.330278 -61.535739 
L 290.259173 -61.464486 
L 291.188068 -61.406603 
L 292.116963 -61.360388 
L 293.045858 -61.32414 
L 293.974753 -61.296222 
L 293.974753 -61.150028 
L 293.974753 -61.150028 
L 293.045858 -61.12211 
L 292.116963 -61.085862 
L 291.188068 -61.039647 
L 290.259173 -60.981764 
L 289.330278 -60.910511 
L 288.401383 -60.824253 
L 287.472488 -60.7215 
L 286.543593 -60.600969 
L 285.614697 -60.461646 
L 284.685802 -60.302822 
L 283.756907 -60.124122 
L 282.828012 -59.925508 
L 281.899117 -59.707282 
L 280.970222 -59.470078 
L 280.041327 -59.214857 
L 279.112432 -58.942924 
L 278.183537 -58.655956 
L 277.254642 -58.356046 
L 276.325747 -58.045766 
L 275.396852 -57.728228 
L 274.467957 -57.407129 
L 273.539062 -57.086765 
L 272.610167 -56.771989 
L 271.681272 -56.468104 
L 270.752377 -56.18068 
L 269.823482 -55.915309 
L 268.894587 -55.677309 
L 267.965692 -55.471408 
L 267.036797 -55.301431 
L 266.107902 -55.170052 
L 265.179007 -55.078609 
L 264.250112 -55.027028 
L 263.321217 -55.013849 
L 262.392322 -55.036362 
L 261.463427 -55.090816 
L 260.534532 -55.172691 
L 259.605637 -55.276995 
L 258.676742 -55.398552 
L 257.747847 -55.532257 
L 256.818952 -55.673288 
L 255.890057 -55.817252 
L 254.961161 -55.960283 
L 254.032266 -56.099082 
L 253.103371 -56.230929 
L 252.174476 -56.353679 
L 251.245581 -56.465751 
L 250.316686 -56.566128 
L 249.387791 -56.654373 
L 248.458896 -56.730648 
L 247.530001 -56.795731 
L 246.601106 -56.851014 
L 245.672211 -56.898457 
L 244.743316 -56.940484 
L 243.814421 -56.979831 
L 242.885526 -57.019328 
L 241.956631 -57.061661 
L 241.027736 -57.10913 
L 240.098841 -57.163449 
L 239.169946 -57.225612 
L 238.241051 -57.295856 
L 237.312156 -57.373741 
L 236.383261 -57.458304 
L 235.454366 -57.548298 
L 234.525471 -57.64245 
L 233.596576 -57.739704 
L 232.667681 -57.839408 
L 231.738786 -57.941408 
L 230.809891 -58.046047 
L 229.880996 -58.154064 
L 228.952101 -58.266421 
L 228.023206 -58.38409 
L 227.094311 -58.507837 
L 226.165416 -58.638043 
L 225.236521 -58.774589 
L 224.307626 -58.916816 
L 223.37873 -59.063573 
L 222.449835 -59.213317 
L 221.52094 -59.364275 
L 220.592045 -59.514606 
L 219.66315 -59.662554 
L 218.734255 -59.806576 
L 217.80536 -59.945408 
L 216.876465 -60.07809 
L 215.94757 -60.203944 
L 215.018675 -60.322522 
L 214.08978 -60.433537 
L 213.160885 -60.536801 
L 212.23199 -60.63218 
L 211.303095 -60.719566 
L 210.3742 -60.798877 
L 209.445305 -60.870076 
L 208.51641 -60.933198 
L 207.587515 -60.988381 
L 206.65862 -61.035886 
L 205.729725 -61.076106 
L 204.80083 -61.109563 
L 203.871935 -61.136881 
L 202.94304 -61.158763 
L 202.014145 -61.175946 
z
" style="stroke: #3f3f3f; stroke-width: 1.25"/>
    </defs>
    <g clip-path="url(#p298f2f933a)">
     <use xlink:href="#m19ca83d36e" x="0" y="309.6325" style="fill: #3274a1; stroke: #3f3f3f; stroke-width: 1.25"/>
    </g>
   </g>
   <g id="PolyCollection_5">
    <defs>
     <path id="m5554713ae2" d="M 84.85195 -45.62989 
L 84.85195 -45.63136 
L 86.911529 -45.632844 
L 88.971108 -45.634947 
L 91.030687 -45.63606 
L 93.090266 -45.635048 
L 95.149845 -45.633044 
L 97.209424 -45.631966 
L 99.269003 -45.632648 
L 101.328582 -45.634654 
L 103.388161 -45.636482 
L 105.44774 -45.637091 
L 107.507319 -45.637395 
L 109.566898 -45.638336 
L 111.626477 -45.639181 
L 113.686056 -45.638958 
L 115.745635 -45.637733 
L 117.805214 -45.637075 
L 119.864793 -45.639141 
L 121.924372 -45.64429 
L 123.983951 -45.650984 
L 126.04353 -45.656765 
L 128.103109 -45.658087 
L 130.162688 -45.65319 
L 132.222267 -45.645473 
L 134.281846 -45.640903 
L 136.341425 -45.643459 
L 138.401004 -45.652636 
L 140.460583 -45.663792 
L 142.520162 -45.672258 
L 144.579741 -45.676225 
L 146.63932 -45.676381 
L 148.698899 -45.67778 
L 150.758478 -45.68792 
L 152.818057 -45.705276 
L 154.877636 -45.715347 
L 156.937215 -45.706766 
L 158.996794 -45.687596 
L 161.056373 -45.676759 
L 163.115952 -45.68409 
L 165.175531 -45.704647 
L 167.23511 -45.725424 
L 169.294689 -45.735315 
L 171.354268 -45.735405 
L 173.413847 -45.738618 
L 175.473426 -45.754499 
L 177.533005 -45.777758 
L 179.592584 -45.798837 
L 181.652163 -45.820145 
L 183.711742 -45.849231 
L 185.771321 -45.886285 
L 187.8309 -45.932783 
L 189.890479 -46.003079 
L 191.950058 -46.116773 
L 194.009637 -46.279937 
L 196.069216 -46.486654 
L 198.128795 -46.744964 
L 200.188374 -47.072053 
L 202.247953 -47.455001 
L 204.307532 -47.861098 
L 206.367111 -48.296832 
L 208.42669 -48.80105 
L 210.486269 -49.371528 
L 212.545848 -49.948933 
L 214.605427 -50.473192 
L 216.665006 -50.92648 
L 218.724585 -51.311743 
L 220.784164 -51.604906 
L 222.843743 -51.781089 
L 224.903322 -51.860184 
L 226.962901 -51.867625 
L 229.02248 -51.81844 
L 231.082059 -51.748467 
L 233.141638 -51.671996 
L 235.201217 -51.541751 
L 237.260796 -51.301538 
L 239.320375 -50.939297 
L 241.379954 -50.488136 
L 243.439533 -50.010054 
L 245.499112 -49.549657 
L 247.558691 -49.09727 
L 249.61827 -48.637616 
L 251.677849 -48.187615 
L 253.737428 -47.755699 
L 255.797007 -47.346103 
L 257.856586 -46.987777 
L 259.916165 -46.697143 
L 261.975744 -46.461589 
L 264.035323 -46.267274 
L 266.094902 -46.108042 
L 268.154481 -45.980332 
L 270.21406 -45.878827 
L 272.273639 -45.795316 
L 274.333218 -45.726801 
L 276.392797 -45.678565 
L 278.452376 -45.653596 
L 280.511955 -45.64512 
L 282.571534 -45.641964 
L 284.631113 -45.638036 
L 286.690692 -45.633997 
L 288.750271 -45.631645 
L 288.750271 -45.629605 
L 288.750271 -45.629605 
L 286.690692 -45.627253 
L 284.631113 -45.623214 
L 282.571534 -45.619286 
L 280.511955 -45.61613 
L 278.452376 -45.607654 
L 276.392797 -45.582685 
L 274.333218 -45.534449 
L 272.273639 -45.465934 
L 270.21406 -45.382423 
L 268.154481 -45.280918 
L 266.094902 -45.153208 
L 264.035323 -44.993976 
L 261.975744 -44.799661 
L 259.916165 -44.564107 
L 257.856586 -44.273473 
L 255.797007 -43.915147 
L 253.737428 -43.505551 
L 251.677849 -43.073635 
L 249.61827 -42.623634 
L 247.558691 -42.16398 
L 245.499112 -41.711593 
L 243.439533 -41.251196 
L 241.379954 -40.773114 
L 239.320375 -40.321953 
L 237.260796 -39.959712 
L 235.201217 -39.719499 
L 233.141638 -39.589254 
L 231.082059 -39.512783 
L 229.02248 -39.44281 
L 226.962901 -39.393625 
L 224.903322 -39.401066 
L 222.843743 -39.480161 
L 220.784164 -39.656344 
L 218.724585 -39.949507 
L 216.665006 -40.33477 
L 214.605427 -40.788058 
L 212.545848 -41.312317 
L 210.486269 -41.889722 
L 208.42669 -42.4602 
L 206.367111 -42.964418 
L 204.307532 -43.400152 
L 202.247953 -43.806249 
L 200.188374 -44.189197 
L 198.128795 -44.516286 
L 196.069216 -44.774596 
L 194.009637 -44.981313 
L 191.950058 -45.144477 
L 189.890479 -45.258171 
L 187.8309 -45.328467 
L 185.771321 -45.374965 
L 183.711742 -45.412019 
L 181.652163 -45.441105 
L 179.592584 -45.462413 
L 177.533005 -45.483492 
L 175.473426 -45.506751 
L 173.413847 -45.522632 
L 171.354268 -45.525845 
L 169.294689 -45.525935 
L 167.23511 -45.535826 
L 165.175531 -45.556603 
L 163.115952 -45.57716 
L 161.056373 -45.584491 
L 158.996794 -45.573654 
L 156.937215 -45.554484 
L 154.877636 -45.545903 
L 152.818057 -45.555974 
L 150.758478 -45.57333 
L 148.698899 -45.58347 
L 146.63932 -45.584869 
L 144.579741 -45.585025 
L 142.520162 -45.588992 
L 140.460583 -45.597458 
L 138.401004 -45.608614 
L 136.341425 -45.617791 
L 134.281846 -45.620347 
L 132.222267 -45.615777 
L 130.162688 -45.60806 
L 128.103109 -45.603163 
L 126.04353 -45.604485 
L 123.983951 -45.610266 
L 121.924372 -45.61696 
L 119.864793 -45.622109 
L 117.805214 -45.624175 
L 115.745635 -45.623517 
L 113.686056 -45.622292 
L 111.626477 -45.622069 
L 109.566898 -45.622914 
L 107.507319 -45.623855 
L 105.44774 -45.624159 
L 103.388161 -45.624768 
L 101.328582 -45.626596 
L 99.269003 -45.628602 
L 97.209424 -45.629284 
L 95.149845 -45.628206 
L 93.090266 -45.626202 
L 91.030687 -45.62519 
L 88.971108 -45.626303 
L 86.911529 -45.628406 
L 84.85195 -45.62989 
z
" style="stroke: #3f3f3f; stroke-width: 1.25"/>
    </defs>
    <g clip-path="url(#p298f2f933a)">
     <use xlink:href="#m5554713ae2" x="0" y="309.6325" style="fill: #3274a1; stroke: #3f3f3f; stroke-width: 1.25"/>
    </g>
   </g>
   <g id="matplotlib.axis_3">
    <g id="xtick_5">
     <g id="line2d_31">
      <path d="M 162.587187 271.798125 
L 162.587187 193.835625 
" clip-path="url(#p298f2f933a)" style="fill: none; stroke: #b0b0b0; stroke-width: 0.8; stroke-linecap: square"/>
     </g>
     <g id="line2d_32">
      <g>
       <use xlink:href="#md88cec084f" x="162.587187" y="271.798125" style="stroke: #000000; stroke-width: 0.8"/>
      </g>
     </g>
     <g id="text_15">
      <!-- 2 -->
      <g transform="translate(155.216094 286.396563) scale(0.1 -0.1)">
       <defs>
        <path id="DejaVuSans-2212" d="M 678 2272 
L 4684 2272 
L 4684 1741 
L 678 1741 
L 678 2272 
z
" transform="scale(0.015625)"/>
        <path id="DejaVuSans-32" d="M 1228 531 
L 3431 531 
L 3431 0 
L 469 0 
L 469 531 
Q 828 903 1448 1529 
Q 2069 2156 2228 2338 
Q 2531 2678 2651 2914 
Q 2772 3150 2772 3378 
Q 2772 3750 2511 3984 
Q 2250 4219 1831 4219 
Q 1534 4219 1204 4116 
Q 875 4013 500 3803 
L 500 4441 
Q 881 4594 1212 4672 
Q 1544 4750 1819 4750 
Q 2544 4750 2975 4387 
Q 3406 4025 3406 3419 
Q 3406 3131 3298 2873 
Q 3191 2616 2906 2266 
Q 2828 2175 2409 1742 
Q 1991 1309 1228 531 
z
" transform="scale(0.015625)"/>
       </defs>
       <use xlink:href="#DejaVuSans-2212"/>
       <use xlink:href="#DejaVuSans-32" x="83.789062"/>
      </g>
     </g>
    </g>
    <g id="xtick_6">
     <g id="line2d_33">
      <path d="M 214.667187 271.798125 
L 214.667187 193.835625 
" clip-path="url(#p298f2f933a)" style="fill: none; stroke: #b0b0b0; stroke-width: 0.8; stroke-linecap: square"/>
     </g>
     <g id="line2d_34">
      <g>
       <use xlink:href="#md88cec084f" x="214.667187" y="271.798125" style="stroke: #000000; stroke-width: 0.8"/>
      </g>
     </g>
     <g id="text_16">
      <!-- 0 -->
      <g transform="translate(211.485937 286.396563) scale(0.1 -0.1)">
       <defs>
        <path id="DejaVuSans-30" d="M 2034 4250 
Q 1547 4250 1301 3770 
Q 1056 3291 1056 2328 
Q 1056 1369 1301 889 
Q 1547 409 2034 409 
Q 2525 409 2770 889 
Q 3016 1369 3016 2328 
Q 3016 3291 2770 3770 
Q 2525 4250 2034 4250 
z
M 2034 4750 
Q 2819 4750 3233 4129 
Q 3647 3509 3647 2328 
Q 3647 1150 3233 529 
Q 2819 -91 2034 -91 
Q 1250 -91 836 529 
Q 422 1150 422 2328 
Q 422 3509 836 4129 
Q 1250 4750 2034 4750 
z
" transform="scale(0.015625)"/>
       </defs>
       <use xlink:href="#DejaVuSans-30"/>
      </g>
     </g>
    </g>
    <g id="xtick_7">
     <g id="line2d_35">
      <path d="M 266.747187 271.798125 
L 266.747187 193.835625 
" clip-path="url(#p298f2f933a)" style="fill: none; stroke: #b0b0b0; stroke-width: 0.8; stroke-linecap: square"/>
     </g>
     <g id="line2d_36">
      <g>
       <use xlink:href="#md88cec084f" x="266.747187" y="271.798125" style="stroke: #000000; stroke-width: 0.8"/>
      </g>
     </g>
     <g id="text_17">
      <!-- 2 -->
      <g transform="translate(263.565938 286.396563) scale(0.1 -0.1)">
       <use xlink:href="#DejaVuSans-32"/>
      </g>
     </g>
    </g>
    <g id="xtick_8">
     <g id="line2d_37">
      <path d="M 318.827187 271.798125 
L 318.827187 193.835625 
" clip-path="url(#p298f2f933a)" style="fill: none; stroke: #b0b0b0; stroke-width: 0.8; stroke-linecap: square"/>
     </g>
     <g id="line2d_38">
      <g>
       <use xlink:href="#md88cec084f" x="318.827187" y="271.798125" style="stroke: #000000; stroke-width: 0.8"/>
      </g>
     </g>
     <g id="text_18">
      <!-- 4 -->
      <g transform="translate(315.645938 286.396563) scale(0.1 -0.1)">
       <use xlink:href="#DejaVuSans-34"/>
      </g>
     </g>
    </g>
    <g id="text_19">
     <!-- docking_score_combined -->
     <g transform="translate(184.5125 300.074687) scale(0.1 -0.1)">
      <defs>
       <path id="DejaVuSans-6b" d="M 581 4863 
L 1159 4863 
L 1159 1991 
L 2875 3500 
L 3609 3500 
L 1753 1863 
L 3688 0 
L 2938 0 
L 1159 1709 
L 1159 0 
L 581 0 
L 581 4863 
z
" transform="scale(0.015625)"/>
      </defs>
      <use xlink:href="#DejaVuSans-64"/>
      <use xlink:href="#DejaVuSans-6f" x="63.476562"/>
      <use xlink:href="#DejaVuSans-63" x="124.658203"/>
      <use xlink:href="#DejaVuSans-6b" x="179.638672"/>
      <use xlink:href="#DejaVuSans-69" x="237.548828"/>
      <use xlink:href="#DejaVuSans-6e" x="265.332031"/>
      <use xlink:href="#DejaVuSans-67" x="328.710938"/>
      <use xlink:href="#DejaVuSans-5f" x="392.1875"/>
      <use xlink:href="#DejaVuSans-73" x="442.1875"/>
      <use xlink:href="#DejaVuSans-63" x="494.287109"/>
      <use xlink:href="#DejaVuSans-6f" x="549.267578"/>
      <use xlink:href="#DejaVuSans-72" x="610.449219"/>
      <use xlink:href="#DejaVuSans-65" x="649.3125"/>
      <use xlink:href="#DejaVuSans-5f" x="710.835938"/>
      <use xlink:href="#DejaVuSans-63" x="760.835938"/>
      <use xlink:href="#DejaVuSans-6f" x="815.816406"/>
      <use xlink:href="#DejaVuSans-6d" x="876.998047"/>
      <use xlink:href="#DejaVuSans-62" x="974.410156"/>
      <use xlink:href="#DejaVuSans-69" x="1037.886719"/>
      <use xlink:href="#DejaVuSans-6e" x="1065.669922"/>
      <use xlink:href="#DejaVuSans-65" x="1129.048828"/>
      <use xlink:href="#DejaVuSans-64" x="1190.572266"/>
     </g>
    </g>
   </g>
   <g id="matplotlib.axis_4">
    <g id="ytick_12">
     <g id="line2d_39">
      <g>
       <use xlink:href="#m924e735924" x="149.567187" y="201.631875" style="stroke: #000000; stroke-width: 0.8"/>
      </g>
     </g>
     <g id="text_20">
      <!-- in_vitro_active -->
      <g transform="translate(70.432812 205.431094) scale(0.1 -0.1)">
       <use xlink:href="#DejaVuSans-69"/>
       <use xlink:href="#DejaVuSans-6e" x="27.783203"/>
       <use xlink:href="#DejaVuSans-5f" x="91.162109"/>
       <use xlink:href="#DejaVuSans-76" x="141.162109"/>
       <use xlink:href="#DejaVuSans-69" x="200.341797"/>
       <use xlink:href="#DejaVuSans-74" x="228.125"/>
       <use xlink:href="#DejaVuSans-72" x="267.333984"/>
       <use xlink:href="#DejaVuSans-6f" x="306.197266"/>
       <use xlink:href="#DejaVuSans-5f" x="367.378906"/>
       <use xlink:href="#DejaVuSans-61" x="417.378906"/>
       <use xlink:href="#DejaVuSans-63" x="478.658203"/>
       <use xlink:href="#DejaVuSans-74" x="533.638672"/>
       <use xlink:href="#DejaVuSans-69" x="572.847656"/>
       <use xlink:href="#DejaVuSans-76" x="600.630859"/>
       <use xlink:href="#DejaVuSans-65" x="659.810547"/>
      </g>
     </g>
    </g>
    <g id="ytick_13">
     <g id="line2d_40">
      <g>
       <use xlink:href="#m924e735924" x="149.567187" y="217.224375" style="stroke: #000000; stroke-width: 0.8"/>
      </g>
     </g>
     <g id="text_21">
      <!-- in_vitro_inactive -->
      <g transform="translate(61.317187 221.023594) scale(0.1 -0.1)">
       <use xlink:href="#DejaVuSans-69"/>
       <use xlink:href="#DejaVuSans-6e" x="27.783203"/>
       <use xlink:href="#DejaVuSans-5f" x="91.162109"/>
       <use xlink:href="#DejaVuSans-76" x="141.162109"/>
       <use xlink:href="#DejaVuSans-69" x="200.341797"/>
       <use xlink:href="#DejaVuSans-74" x="228.125"/>
       <use xlink:href="#DejaVuSans-72" x="267.333984"/>
       <use xlink:href="#DejaVuSans-6f" x="306.197266"/>
       <use xlink:href="#DejaVuSans-5f" x="367.378906"/>
       <use xlink:href="#DejaVuSans-69" x="417.378906"/>
       <use xlink:href="#DejaVuSans-6e" x="445.162109"/>
       <use xlink:href="#DejaVuSans-61" x="508.541016"/>
       <use xlink:href="#DejaVuSans-63" x="569.820312"/>
       <use xlink:href="#DejaVuSans-74" x="624.800781"/>
       <use xlink:href="#DejaVuSans-69" x="664.009766"/>
       <use xlink:href="#DejaVuSans-76" x="691.792969"/>
       <use xlink:href="#DejaVuSans-65" x="750.972656"/>
      </g>
     </g>
    </g>
    <g id="ytick_14">
     <g id="line2d_41">
      <g>
       <use xlink:href="#m924e735924" x="149.567187" y="232.816875" style="stroke: #000000; stroke-width: 0.8"/>
      </g>
     </g>
     <g id="text_22">
      <!-- Prestwick -->
      <g transform="translate(95.298437 236.616094) scale(0.1 -0.1)">
       <defs>
        <path id="DejaVuSans-50" d="M 1259 4147 
L 1259 2394 
L 2053 2394 
Q 2494 2394 2734 2622 
Q 2975 2850 2975 3272 
Q 2975 3691 2734 3919 
Q 2494 4147 2053 4147 
L 1259 4147 
z
M 628 4666 
L 2053 4666 
Q 2838 4666 3239 4311 
Q 3641 3956 3641 3272 
Q 3641 2581 3239 2228 
Q 2838 1875 2053 1875 
L 1259 1875 
L 1259 0 
L 628 0 
L 628 4666 
z
" transform="scale(0.015625)"/>
        <path id="DejaVuSans-77" d="M 269 3500 
L 844 3500 
L 1563 769 
L 2278 3500 
L 2956 3500 
L 3675 769 
L 4391 3500 
L 4966 3500 
L 4050 0 
L 3372 0 
L 2619 2869 
L 1863 0 
L 1184 0 
L 269 3500 
z
" transform="scale(0.015625)"/>
       </defs>
       <use xlink:href="#DejaVuSans-50"/>
       <use xlink:href="#DejaVuSans-72" x="58.552734"/>
       <use xlink:href="#DejaVuSans-65" x="97.416016"/>
       <use xlink:href="#DejaVuSans-73" x="158.939453"/>
       <use xlink:href="#DejaVuSans-74" x="211.039062"/>
       <use xlink:href="#DejaVuSans-77" x="250.248047"/>
       <use xlink:href="#DejaVuSans-69" x="332.035156"/>
       <use xlink:href="#DejaVuSans-63" x="359.818359"/>
       <use xlink:href="#DejaVuSans-6b" x="414.798828"/>
      </g>
     </g>
    </g>
    <g id="ytick_15">
     <g id="line2d_42">
      <g>
       <use xlink:href="#m924e735924" x="149.567187" y="248.409375" style="stroke: #000000; stroke-width: 0.8"/>
      </g>
     </g>
     <g id="text_23">
      <!-- DUDE actives -->
      <g transform="translate(74.745312 252.208594) scale(0.1 -0.1)">
       <use xlink:href="#DejaVuSans-44"/>
       <use xlink:href="#DejaVuSans-55" x="77.001953"/>
       <use xlink:href="#DejaVuSans-44" x="150.195312"/>
       <use xlink:href="#DejaVuSans-45" x="227.197266"/>
       <use xlink:href="#DejaVuSans-20" x="290.380859"/>
       <use xlink:href="#DejaVuSans-61" x="322.167969"/>
       <use xlink:href="#DejaVuSans-63" x="383.447266"/>
       <use xlink:href="#DejaVuSans-74" x="438.427734"/>
       <use xlink:href="#DejaVuSans-69" x="477.636719"/>
       <use xlink:href="#DejaVuSans-76" x="505.419922"/>
       <use xlink:href="#DejaVuSans-65" x="564.599609"/>
       <use xlink:href="#DejaVuSans-73" x="626.123047"/>
      </g>
     </g>
    </g>
    <g id="ytick_16">
     <g id="line2d_43">
      <g>
       <use xlink:href="#m924e735924" x="149.567187" y="264.001875" style="stroke: #000000; stroke-width: 0.8"/>
      </g>
     </g>
     <g id="text_24">
      <!-- DUDE decoys -->
      <g transform="translate(75.104687 267.801094) scale(0.1 -0.1)">
       <use xlink:href="#DejaVuSans-44"/>
       <use xlink:href="#DejaVuSans-55" x="77.001953"/>
       <use xlink:href="#DejaVuSans-44" x="150.195312"/>
       <use xlink:href="#DejaVuSans-45" x="227.197266"/>
       <use xlink:href="#DejaVuSans-20" x="290.380859"/>
       <use xlink:href="#DejaVuSans-64" x="322.167969"/>
       <use xlink:href="#DejaVuSans-65" x="385.644531"/>
       <use xlink:href="#DejaVuSans-63" x="447.167969"/>
       <use xlink:href="#DejaVuSans-6f" x="502.148438"/>
       <use xlink:href="#DejaVuSans-79" x="563.330078"/>
       <use xlink:href="#DejaVuSans-73" x="622.509766"/>
      </g>
     </g>
    </g>
   </g>
   <g id="line2d_44">
    <path d="M 211.436315 201.631875 
L 245.996481 201.631875 
" clip-path="url(#p298f2f933a)" style="fill: none; stroke: #3f3f3f; stroke-width: 1.875; stroke-linecap: square"/>
   </g>
   <g id="line2d_45">
    <path d="M 216.081987 201.631875 
L 233.362071 201.631875 
" clip-path="url(#p298f2f933a)" style="fill: none; stroke: #3f3f3f; stroke-width: 5.625; stroke-linecap: square"/>
   </g>
   <g id="line2d_46">
    <path d="M 220.72766 201.631875 
" clip-path="url(#p298f2f933a)" style="fill: none; stroke: #3f3f3f; stroke-width: 1.5; stroke-linecap: square"/>
    <defs>
     <path id="m42fd5b6a92" d="M 0 2.34375 
L 0 -2.34375 
" style="stroke: #ffffff; stroke-width: 1.125"/>
    </defs>
    <g clip-path="url(#p298f2f933a)">
     <use xlink:href="#m42fd5b6a92" x="220.72766" y="201.631875" style="fill: #ffffff; stroke: #ffffff; stroke-width: 1.125"/>
    </g>
   </g>
   <g id="line2d_47">
    <path d="M 194.652455 217.224375 
L 250.297734 217.224375 
" clip-path="url(#p298f2f933a)" style="fill: none; stroke: #3f3f3f; stroke-width: 1.875; stroke-linecap: square"/>
   </g>
   <g id="line2d_48">
    <path d="M 212.652325 217.224375 
L 232.004488 217.224375 
" clip-path="url(#p298f2f933a)" style="fill: none; stroke: #3f3f3f; stroke-width: 5.625; stroke-linecap: square"/>
   </g>
   <g id="line2d_49">
    <path d="M 218.344281 217.224375 
" clip-path="url(#p298f2f933a)" style="fill: none; stroke: #3f3f3f; stroke-width: 1.5; stroke-linecap: square"/>
    <g clip-path="url(#p298f2f933a)">
     <use xlink:href="#m42fd5b6a92" x="218.344281" y="217.224375" style="fill: #ffffff; stroke: #ffffff; stroke-width: 1.125"/>
    </g>
   </g>
   <g id="line2d_50">
    <path d="M 166.626943 232.816875 
L 261.144278 232.816875 
" clip-path="url(#p298f2f933a)" style="fill: none; stroke: #3f3f3f; stroke-width: 1.875; stroke-linecap: square"/>
   </g>
   <g id="line2d_51">
    <path d="M 202.774022 232.816875 
L 226.962003 232.816875 
" clip-path="url(#p298f2f933a)" style="fill: none; stroke: #3f3f3f; stroke-width: 5.625; stroke-linecap: square"/>
   </g>
   <g id="line2d_52">
    <path d="M 215.140885 232.816875 
" clip-path="url(#p298f2f933a)" style="fill: none; stroke: #3f3f3f; stroke-width: 1.5; stroke-linecap: square"/>
    <g clip-path="url(#p298f2f933a)">
     <use xlink:href="#m42fd5b6a92" x="215.140885" y="232.816875" style="fill: #ffffff; stroke: #ffffff; stroke-width: 1.125"/>
    </g>
   </g>
   <g id="line2d_53">
    <path d="M 214.920444 248.409375 
L 281.068453 248.409375 
" clip-path="url(#p298f2f933a)" style="fill: none; stroke: #3f3f3f; stroke-width: 1.875; stroke-linecap: square"/>
   </g>
   <g id="line2d_54">
    <path d="M 240.080815 248.409375 
L 266.173706 248.409375 
" clip-path="url(#p298f2f933a)" style="fill: none; stroke: #3f3f3f; stroke-width: 5.625; stroke-linecap: square"/>
   </g>
   <g id="line2d_55">
    <path d="M 255.811962 248.409375 
" clip-path="url(#p298f2f933a)" style="fill: none; stroke: #3f3f3f; stroke-width: 1.5; stroke-linecap: square"/>
    <g clip-path="url(#p298f2f933a)">
     <use xlink:href="#m42fd5b6a92" x="255.811962" y="248.409375" style="fill: #ffffff; stroke: #ffffff; stroke-width: 1.125"/>
    </g>
   </g>
   <g id="line2d_56">
    <path d="M 182.936982 264.001875 
L 273.608951 264.001875 
" clip-path="url(#p298f2f933a)" style="fill: none; stroke: #3f3f3f; stroke-width: 1.875; stroke-linecap: square"/>
   </g>
   <g id="line2d_57">
    <path d="M 216.789975 264.001875 
L 239.531402 264.001875 
" clip-path="url(#p298f2f933a)" style="fill: none; stroke: #3f3f3f; stroke-width: 5.625; stroke-linecap: square"/>
   </g>
   <g id="line2d_58">
    <path d="M 227.972004 264.001875 
" clip-path="url(#p298f2f933a)" style="fill: none; stroke: #3f3f3f; stroke-width: 1.5; stroke-linecap: square"/>
    <g clip-path="url(#p298f2f933a)">
     <use xlink:href="#m42fd5b6a92" x="227.972004" y="264.001875" style="fill: #ffffff; stroke: #ffffff; stroke-width: 1.125"/>
    </g>
   </g>
   <g id="patch_24">
    <path d="M 149.567187 271.798125 
L 149.567187 193.835625 
" style="fill: none; stroke: #000000; stroke-width: 0.8; stroke-linejoin: miter; stroke-linecap: square"/>
   </g>
   <g id="patch_25">
    <path d="M 344.867188 271.798125 
L 344.867188 193.835625 
" style="fill: none; stroke: #000000; stroke-width: 0.8; stroke-linejoin: miter; stroke-linecap: square"/>
   </g>
   <g id="patch_26">
    <path d="M 149.567187 271.798125 
L 344.867188 271.798125 
" style="fill: none; stroke: #000000; stroke-width: 0.8; stroke-linejoin: miter; stroke-linecap: square"/>
   </g>
   <g id="patch_27">
    <path d="M 149.567187 193.835625 
L 344.867188 193.835625 
" style="fill: none; stroke: #000000; stroke-width: 0.8; stroke-linejoin: miter; stroke-linecap: square"/>
   </g>
  </g>
 </g>
 <defs>
  <clipPath id="p106ea0bcd5">
   <rect x="149.567187" y="22.318125" width="195.3" height="171.5175"/>
  </clipPath>
  <clipPath id="p298f2f933a">
   <rect x="149.567187" y="193.835625" width="195.3" height="77.9625"/>
  </clipPath>
 </defs>
</svg>
