<?xml version="1.0" encoding="utf-8" standalone="no"?>
<!DOCTYPE svg PUBLIC "-//W3C//DTD SVG 1.1//EN"
  "http://www.w3.org/Graphics/SVG/1.1/DTD/svg11.dtd">
<svg xmlns:xlink="http://www.w3.org/1999/xlink" width="352.067187pt" height="309.6325pt" viewBox="0 0 352.067187 309.6325" xmlns="http://www.w3.org/2000/svg" version="1.1">
 <metadata>
  <rdf:RDF xmlns:dc="http://purl.org/dc/elements/1.1/" xmlns:cc="http://creativecommons.org/ns#" xmlns:rdf="http://www.w3.org/1999/02/22-rdf-syntax-ns#">
   <cc:Work>
    <dc:type rdf:resource="http://purl.org/dc/dcmitype/StillImage"/>
    <dc:date>2024-08-29T12:34:38.888908</dc:date>
    <dc:format>image/svg+xml</dc:format>
    <dc:creator>
     <cc:Agent>
      <dc:title>Matplotlib v3.9.1, https://matplotlib.org/</dc:title>
     </cc:Agent>
    </dc:creator>
   </cc:Work>
  </rdf:RDF>
 </metadata>
 <defs>
  <style type="text/css">*{stroke-linejoin: round; stroke-linecap: butt}</style>
 </defs>
 <g id="figure_1">
  <g id="patch_1">
   <path d="M 0 309.6325 
L 352.067187 309.6325 
L 352.067187 0 
L 0 0 
L 0 309.6325 
z
" style="fill: none"/>
  </g>
  <g id="axes_1">
   <g id="patch_2">
    <path d="M 149.567187 193.835625 
L 344.867188 193.835625 
L 344.867188 22.318125 
L 149.567187 22.318125 
L 149.567187 193.835625 
z
" style="fill: none"/>
   </g>
   <g id="patch_3">
    <path d="M 214.667187 26.21625 
L 233.881307 26.21625 
L 233.881307 34.0125 
L 214.667187 34.0125 
z
" clip-path="url(#pb9298d19e2)" style="fill: #e1812c"/>
   </g>
   <g id="patch_4">
    <path d="M 214.667187 57.40125 
L 225.180088 57.40125 
L 225.180088 65.1975 
L 214.667187 65.1975 
z
" clip-path="url(#pb9298d19e2)" style="fill: #e1812c"/>
   </g>
   <g id="patch_5">
    <path d="M 214.667187 88.58625 
L 219.121982 88.58625 
L 219.121982 96.3825 
L 214.667187 96.3825 
z
" clip-path="url(#pb9298d19e2)" style="fill: #e1812c"/>
   </g>
   <g id="patch_6">
    <path d="M 214.667187 41.80875 
L 229.795945 41.80875 
L 229.795945 49.605 
L 214.667187 49.605 
z
" clip-path="url(#pb9298d19e2)" style="fill: #7f7f7f"/>
   </g>
   <g id="patch_7">
    <path d="M 214.667187 72.99375 
L 223.489575 72.99375 
L 223.489575 80.79 
L 214.667187 80.79 
z
" clip-path="url(#pb9298d19e2)" style="fill: #7f7f7f"/>
   </g>
   <g id="patch_8">
    <path d="M 214.667187 104.17875 
L 217.82776 104.17875 
L 217.82776 111.975 
L 214.667187 111.975 
z
" clip-path="url(#pb9298d19e2)" style="fill: #7f7f7f"/>
   </g>
   <g id="patch_9">
    <path d="M 214.667187 119.77125 
L 215.223139 119.77125 
L 215.223139 127.5675 
L 214.667187 127.5675 
z
" clip-path="url(#pb9298d19e2)" style="fill: #7f7f7f"/>
   </g>
   <g id="patch_10">
    <path d="M 214.667187 135.36375 
L 214.001826 135.36375 
L 214.001826 143.16 
L 214.667187 143.16 
z
" clip-path="url(#pb9298d19e2)" style="fill: #7f7f7f"/>
   </g>
   <g id="patch_11">
    <path d="M 214.667187 150.95625 
L 209.613342 150.95625 
L 209.613342 158.7525 
L 214.667187 158.7525 
z
" clip-path="url(#pb9298d19e2)" style="fill: #7f7f7f"/>
   </g>
   <g id="patch_12">
    <path d="M 214.667187 166.54875 
L 205.678411 166.54875 
L 205.678411 174.345 
L 214.667187 174.345 
z
" clip-path="url(#pb9298d19e2)" style="fill: #7f7f7f"/>
   </g>
   <g id="patch_13">
    <path d="M 214.667187 182.14125 
L 200.438831 182.14125 
L 200.438831 189.9375 
L 214.667187 189.9375 
z
" clip-path="url(#pb9298d19e2)" style="fill: #7f7f7f"/>
   </g>
   <g id="patch_14">
    <path d="M 214.667187 30.114375 
L 214.667187 30.114375 
L 214.667187 30.114375 
L 214.667187 30.114375 
z
" clip-path="url(#pb9298d19e2)" style="fill: #e1812c"/>
   </g>
   <g id="patch_15">
    <path d="M 214.667187 30.114375 
L 214.667187 30.114375 
L 214.667187 30.114375 
L 214.667187 30.114375 
z
" clip-path="url(#pb9298d19e2)" style="fill: #7f7f7f"/>
   </g>
   <g id="matplotlib.axis_1">
    <g id="xtick_1">
     <g id="line2d_1">
      <path d="M 162.587187 193.835625 
L 162.587187 22.318125 
" clip-path="url(#pb9298d19e2)" style="fill: none; stroke: #b0b0b0; stroke-width: 0.8; stroke-linecap: square"/>
     </g>
     <g id="line2d_2">
      <defs>
       <path id="m72f011383d" d="M 0 0 
L 0 3.5 
" style="stroke: #000000; stroke-width: 0.8"/>
      </defs>
      <g>
       <use xlink:href="#m72f011383d" x="162.587187" y="193.835625" style="stroke: #000000; stroke-width: 0.8"/>
      </g>
     </g>
    </g>
    <g id="xtick_2">
     <g id="line2d_3">
      <path d="M 214.667187 193.835625 
L 214.667187 22.318125 
" clip-path="url(#pb9298d19e2)" style="fill: none; stroke: #b0b0b0; stroke-width: 0.8; stroke-linecap: square"/>
     </g>
     <g id="line2d_4">
      <g>
       <use xlink:href="#m72f011383d" x="214.667187" y="193.835625" style="stroke: #000000; stroke-width: 0.8"/>
      </g>
     </g>
    </g>
    <g id="xtick_3">
     <g id="line2d_5">
      <path d="M 266.747187 193.835625 
L 266.747187 22.318125 
" clip-path="url(#pb9298d19e2)" style="fill: none; stroke: #b0b0b0; stroke-width: 0.8; stroke-linecap: square"/>
     </g>
     <g id="line2d_6">
      <g>
       <use xlink:href="#m72f011383d" x="266.747187" y="193.835625" style="stroke: #000000; stroke-width: 0.8"/>
      </g>
     </g>
    </g>
    <g id="xtick_4">
     <g id="line2d_7">
      <path d="M 318.827187 193.835625 
L 318.827187 22.318125 
" clip-path="url(#pb9298d19e2)" style="fill: none; stroke: #b0b0b0; stroke-width: 0.8; stroke-linecap: square"/>
     </g>
     <g id="line2d_8">
      <g>
       <use xlink:href="#m72f011383d" x="318.827187" y="193.835625" style="stroke: #000000; stroke-width: 0.8"/>
      </g>
     </g>
    </g>
   </g>
   <g id="matplotlib.axis_2">
    <g id="ytick_1">
     <g id="line2d_9">
      <defs>
       <path id="m4276250dcb" d="M 0 0 
L -3.5 0 
" style="stroke: #000000; stroke-width: 0.8"/>
      </defs>
      <g>
       <use xlink:href="#m4276250dcb" x="149.567187" y="30.114375" style="stroke: #000000; stroke-width: 0.8"/>
      </g>
     </g>
     <g id="text_1">
      <!-- dicumarol -->
      <g transform="translate(92.953125 33.913594) scale(0.1 -0.1)">
       <defs>
        <path id="DejaVuSans-64" d="M 2906 2969 
L 2906 4863 
L 3481 4863 
L 3481 0 
L 2906 0 
L 2906 525 
Q 2725 213 2448 61 
Q 2172 -91 1784 -91 
Q 1150 -91 751 415 
Q 353 922 353 1747 
Q 353 2572 751 3078 
Q 1150 3584 1784 3584 
Q 2172 3584 2448 3432 
Q 2725 3281 2906 2969 
z
M 947 1747 
Q 947 1113 1208 752 
Q 1469 391 1925 391 
Q 2381 391 2643 752 
Q 2906 1113 2906 1747 
Q 2906 2381 2643 2742 
Q 2381 3103 1925 3103 
Q 1469 3103 1208 2742 
Q 947 2381 947 1747 
z
" transform="scale(0.015625)"/>
        <path id="DejaVuSans-69" d="M 603 3500 
L 1178 3500 
L 1178 0 
L 603 0 
L 603 3500 
z
M 603 4863 
L 1178 4863 
L 1178 4134 
L 603 4134 
L 603 4863 
z
" transform="scale(0.015625)"/>
        <path id="DejaVuSans-63" d="M 3122 3366 
L 3122 2828 
Q 2878 2963 2633 3030 
Q 2388 3097 2138 3097 
Q 1578 3097 1268 2742 
Q 959 2388 959 1747 
Q 959 1106 1268 751 
Q 1578 397 2138 397 
Q 2388 397 2633 464 
Q 2878 531 3122 666 
L 3122 134 
Q 2881 22 2623 -34 
Q 2366 -91 2075 -91 
Q 1284 -91 818 406 
Q 353 903 353 1747 
Q 353 2603 823 3093 
Q 1294 3584 2113 3584 
Q 2378 3584 2631 3529 
Q 2884 3475 3122 3366 
z
" transform="scale(0.015625)"/>
        <path id="DejaVuSans-75" d="M 544 1381 
L 544 3500 
L 1119 3500 
L 1119 1403 
Q 1119 906 1312 657 
Q 1506 409 1894 409 
Q 2359 409 2629 706 
Q 2900 1003 2900 1516 
L 2900 3500 
L 3475 3500 
L 3475 0 
L 2900 0 
L 2900 538 
Q 2691 219 2414 64 
Q 2138 -91 1772 -91 
Q 1169 -91 856 284 
Q 544 659 544 1381 
z
M 1991 3584 
L 1991 3584 
z
" transform="scale(0.015625)"/>
        <path id="DejaVuSans-6d" d="M 3328 2828 
Q 3544 3216 3844 3400 
Q 4144 3584 4550 3584 
Q 5097 3584 5394 3201 
Q 5691 2819 5691 2113 
L 5691 0 
L 5113 0 
L 5113 2094 
Q 5113 2597 4934 2840 
Q 4756 3084 4391 3084 
Q 3944 3084 3684 2787 
Q 3425 2491 3425 1978 
L 3425 0 
L 2847 0 
L 2847 2094 
Q 2847 2600 2669 2842 
Q 2491 3084 2119 3084 
Q 1678 3084 1418 2786 
Q 1159 2488 1159 1978 
L 1159 0 
L 581 0 
L 581 3500 
L 1159 3500 
L 1159 2956 
Q 1356 3278 1631 3431 
Q 1906 3584 2284 3584 
Q 2666 3584 2933 3390 
Q 3200 3197 3328 2828 
z
" transform="scale(0.015625)"/>
        <path id="DejaVuSans-61" d="M 2194 1759 
Q 1497 1759 1228 1600 
Q 959 1441 959 1056 
Q 959 750 1161 570 
Q 1363 391 1709 391 
Q 2188 391 2477 730 
Q 2766 1069 2766 1631 
L 2766 1759 
L 2194 1759 
z
M 3341 1997 
L 3341 0 
L 2766 0 
L 2766 531 
Q 2569 213 2275 61 
Q 1981 -91 1556 -91 
Q 1019 -91 701 211 
Q 384 513 384 1019 
Q 384 1609 779 1909 
Q 1175 2209 1959 2209 
L 2766 2209 
L 2766 2266 
Q 2766 2663 2505 2880 
Q 2244 3097 1772 3097 
Q 1472 3097 1187 3025 
Q 903 2953 641 2809 
L 641 3341 
Q 956 3463 1253 3523 
Q 1550 3584 1831 3584 
Q 2591 3584 2966 3190 
Q 3341 2797 3341 1997 
z
" transform="scale(0.015625)"/>
        <path id="DejaVuSans-72" d="M 2631 2963 
Q 2534 3019 2420 3045 
Q 2306 3072 2169 3072 
Q 1681 3072 1420 2755 
Q 1159 2438 1159 1844 
L 1159 0 
L 581 0 
L 581 3500 
L 1159 3500 
L 1159 2956 
Q 1341 3275 1631 3429 
Q 1922 3584 2338 3584 
Q 2397 3584 2469 3576 
Q 2541 3569 2628 3553 
L 2631 2963 
z
" transform="scale(0.015625)"/>
        <path id="DejaVuSans-6f" d="M 1959 3097 
Q 1497 3097 1228 2736 
Q 959 2375 959 1747 
Q 959 1119 1226 758 
Q 1494 397 1959 397 
Q 2419 397 2687 759 
Q 2956 1122 2956 1747 
Q 2956 2369 2687 2733 
Q 2419 3097 1959 3097 
z
M 1959 3584 
Q 2709 3584 3137 3096 
Q 3566 2609 3566 1747 
Q 3566 888 3137 398 
Q 2709 -91 1959 -91 
Q 1206 -91 779 398 
Q 353 888 353 1747 
Q 353 2609 779 3096 
Q 1206 3584 1959 3584 
z
" transform="scale(0.015625)"/>
        <path id="DejaVuSans-6c" d="M 603 4863 
L 1178 4863 
L 1178 0 
L 603 0 
L 603 4863 
z
" transform="scale(0.015625)"/>
       </defs>
       <use xlink:href="#DejaVuSans-64"/>
       <use xlink:href="#DejaVuSans-69" x="63.476562"/>
       <use xlink:href="#DejaVuSans-63" x="91.259766"/>
       <use xlink:href="#DejaVuSans-75" x="146.240234"/>
       <use xlink:href="#DejaVuSans-6d" x="209.619141"/>
       <use xlink:href="#DejaVuSans-61" x="307.03125"/>
       <use xlink:href="#DejaVuSans-72" x="368.310547"/>
       <use xlink:href="#DejaVuSans-6f" x="407.173828"/>
       <use xlink:href="#DejaVuSans-6c" x="468.355469"/>
      </g>
     </g>
    </g>
    <g id="ytick_2">
     <g id="line2d_10">
      <g>
       <use xlink:href="#m4276250dcb" x="149.567187" y="45.706875" style="stroke: #000000; stroke-width: 0.8"/>
      </g>
     </g>
     <g id="text_2">
      <!-- leflunomide -->
      <g transform="translate(83.523437 49.506094) scale(0.1 -0.1)">
       <defs>
        <path id="DejaVuSans-65" d="M 3597 1894 
L 3597 1613 
L 953 1613 
Q 991 1019 1311 708 
Q 1631 397 2203 397 
Q 2534 397 2845 478 
Q 3156 559 3463 722 
L 3463 178 
Q 3153 47 2828 -22 
Q 2503 -91 2169 -91 
Q 1331 -91 842 396 
Q 353 884 353 1716 
Q 353 2575 817 3079 
Q 1281 3584 2069 3584 
Q 2775 3584 3186 3129 
Q 3597 2675 3597 1894 
z
M 3022 2063 
Q 3016 2534 2758 2815 
Q 2500 3097 2075 3097 
Q 1594 3097 1305 2825 
Q 1016 2553 972 2059 
L 3022 2063 
z
" transform="scale(0.015625)"/>
        <path id="DejaVuSans-66" d="M 2375 4863 
L 2375 4384 
L 1825 4384 
Q 1516 4384 1395 4259 
Q 1275 4134 1275 3809 
L 1275 3500 
L 2222 3500 
L 2222 3053 
L 1275 3053 
L 1275 0 
L 697 0 
L 697 3053 
L 147 3053 
L 147 3500 
L 697 3500 
L 697 3744 
Q 697 4328 969 4595 
Q 1241 4863 1831 4863 
L 2375 4863 
z
" transform="scale(0.015625)"/>
        <path id="DejaVuSans-6e" d="M 3513 2113 
L 3513 0 
L 2938 0 
L 2938 2094 
Q 2938 2591 2744 2837 
Q 2550 3084 2163 3084 
Q 1697 3084 1428 2787 
Q 1159 2491 1159 1978 
L 1159 0 
L 581 0 
L 581 3500 
L 1159 3500 
L 1159 2956 
Q 1366 3272 1645 3428 
Q 1925 3584 2291 3584 
Q 2894 3584 3203 3211 
Q 3513 2838 3513 2113 
z
" transform="scale(0.015625)"/>
       </defs>
       <use xlink:href="#DejaVuSans-6c"/>
       <use xlink:href="#DejaVuSans-65" x="27.783203"/>
       <use xlink:href="#DejaVuSans-66" x="89.306641"/>
       <use xlink:href="#DejaVuSans-6c" x="124.511719"/>
       <use xlink:href="#DejaVuSans-75" x="152.294922"/>
       <use xlink:href="#DejaVuSans-6e" x="215.673828"/>
       <use xlink:href="#DejaVuSans-6f" x="279.052734"/>
       <use xlink:href="#DejaVuSans-6d" x="340.234375"/>
       <use xlink:href="#DejaVuSans-69" x="437.646484"/>
       <use xlink:href="#DejaVuSans-64" x="465.429688"/>
       <use xlink:href="#DejaVuSans-65" x="528.90625"/>
      </g>
     </g>
    </g>
    <g id="ytick_3">
     <g id="line2d_11">
      <g>
       <use xlink:href="#m4276250dcb" x="149.567187" y="61.299375" style="stroke: #000000; stroke-width: 0.8"/>
      </g>
     </g>
     <g id="text_3">
      <!-- tiratricol -->
      <g transform="translate(100.425 65.098594) scale(0.1 -0.1)">
       <defs>
        <path id="DejaVuSans-74" d="M 1172 4494 
L 1172 3500 
L 2356 3500 
L 2356 3053 
L 1172 3053 
L 1172 1153 
Q 1172 725 1289 603 
Q 1406 481 1766 481 
L 2356 481 
L 2356 0 
L 1766 0 
Q 1100 0 847 248 
Q 594 497 594 1153 
L 594 3053 
L 172 3053 
L 172 3500 
L 594 3500 
L 594 4494 
L 1172 4494 
z
" transform="scale(0.015625)"/>
       </defs>
       <use xlink:href="#DejaVuSans-74"/>
       <use xlink:href="#DejaVuSans-69" x="39.208984"/>
       <use xlink:href="#DejaVuSans-72" x="66.992188"/>
       <use xlink:href="#DejaVuSans-61" x="108.105469"/>
       <use xlink:href="#DejaVuSans-74" x="169.384766"/>
       <use xlink:href="#DejaVuSans-72" x="208.59375"/>
       <use xlink:href="#DejaVuSans-69" x="249.707031"/>
       <use xlink:href="#DejaVuSans-63" x="277.490234"/>
       <use xlink:href="#DejaVuSans-6f" x="332.470703"/>
       <use xlink:href="#DejaVuSans-6c" x="393.652344"/>
      </g>
     </g>
    </g>
    <g id="ytick_4">
     <g id="line2d_12">
      <g>
       <use xlink:href="#m4276250dcb" x="149.567187" y="76.891875" style="stroke: #000000; stroke-width: 0.8"/>
      </g>
     </g>
     <g id="text_4">
      <!-- mesoridazine_besylate -->
      <g transform="translate(27.853125 80.691094) scale(0.1 -0.1)">
       <defs>
        <path id="DejaVuSans-73" d="M 2834 3397 
L 2834 2853 
Q 2591 2978 2328 3040 
Q 2066 3103 1784 3103 
Q 1356 3103 1142 2972 
Q 928 2841 928 2578 
Q 928 2378 1081 2264 
Q 1234 2150 1697 2047 
L 1894 2003 
Q 2506 1872 2764 1633 
Q 3022 1394 3022 966 
Q 3022 478 2636 193 
Q 2250 -91 1575 -91 
Q 1294 -91 989 -36 
Q 684 19 347 128 
L 347 722 
Q 666 556 975 473 
Q 1284 391 1588 391 
Q 1994 391 2212 530 
Q 2431 669 2431 922 
Q 2431 1156 2273 1281 
Q 2116 1406 1581 1522 
L 1381 1569 
Q 847 1681 609 1914 
Q 372 2147 372 2553 
Q 372 3047 722 3315 
Q 1072 3584 1716 3584 
Q 2034 3584 2315 3537 
Q 2597 3491 2834 3397 
z
" transform="scale(0.015625)"/>
        <path id="DejaVuSans-7a" d="M 353 3500 
L 3084 3500 
L 3084 2975 
L 922 459 
L 3084 459 
L 3084 0 
L 275 0 
L 275 525 
L 2438 3041 
L 353 3041 
L 353 3500 
z
" transform="scale(0.015625)"/>
        <path id="DejaVuSans-5f" d="M 3263 -1063 
L 3263 -1509 
L -63 -1509 
L -63 -1063 
L 3263 -1063 
z
" transform="scale(0.015625)"/>
        <path id="DejaVuSans-62" d="M 3116 1747 
Q 3116 2381 2855 2742 
Q 2594 3103 2138 3103 
Q 1681 3103 1420 2742 
Q 1159 2381 1159 1747 
Q 1159 1113 1420 752 
Q 1681 391 2138 391 
Q 2594 391 2855 752 
Q 3116 1113 3116 1747 
z
M 1159 2969 
Q 1341 3281 1617 3432 
Q 1894 3584 2278 3584 
Q 2916 3584 3314 3078 
Q 3713 2572 3713 1747 
Q 3713 922 3314 415 
Q 2916 -91 2278 -91 
Q 1894 -91 1617 61 
Q 1341 213 1159 525 
L 1159 0 
L 581 0 
L 581 4863 
L 1159 4863 
L 1159 2969 
z
" transform="scale(0.015625)"/>
        <path id="DejaVuSans-79" d="M 2059 -325 
Q 1816 -950 1584 -1140 
Q 1353 -1331 966 -1331 
L 506 -1331 
L 506 -850 
L 844 -850 
Q 1081 -850 1212 -737 
Q 1344 -625 1503 -206 
L 1606 56 
L 191 3500 
L 800 3500 
L 1894 763 
L 2988 3500 
L 3597 3500 
L 2059 -325 
z
" transform="scale(0.015625)"/>
       </defs>
       <use xlink:href="#DejaVuSans-6d"/>
       <use xlink:href="#DejaVuSans-65" x="97.412109"/>
       <use xlink:href="#DejaVuSans-73" x="158.935547"/>
       <use xlink:href="#DejaVuSans-6f" x="211.035156"/>
       <use xlink:href="#DejaVuSans-72" x="272.216797"/>
       <use xlink:href="#DejaVuSans-69" x="313.330078"/>
       <use xlink:href="#DejaVuSans-64" x="341.113281"/>
       <use xlink:href="#DejaVuSans-61" x="404.589844"/>
       <use xlink:href="#DejaVuSans-7a" x="465.869141"/>
       <use xlink:href="#DejaVuSans-69" x="518.359375"/>
       <use xlink:href="#DejaVuSans-6e" x="546.142578"/>
       <use xlink:href="#DejaVuSans-65" x="609.521484"/>
       <use xlink:href="#DejaVuSans-5f" x="671.044922"/>
       <use xlink:href="#DejaVuSans-62" x="721.044922"/>
       <use xlink:href="#DejaVuSans-65" x="784.521484"/>
       <use xlink:href="#DejaVuSans-73" x="846.044922"/>
       <use xlink:href="#DejaVuSans-79" x="898.144531"/>
       <use xlink:href="#DejaVuSans-6c" x="957.324219"/>
       <use xlink:href="#DejaVuSans-61" x="985.107422"/>
       <use xlink:href="#DejaVuSans-74" x="1046.386719"/>
       <use xlink:href="#DejaVuSans-65" x="1085.595703"/>
      </g>
     </g>
    </g>
    <g id="ytick_5">
     <g id="line2d_13">
      <g>
       <use xlink:href="#m4276250dcb" x="149.567187" y="92.484375" style="stroke: #000000; stroke-width: 0.8"/>
      </g>
     </g>
     <g id="text_5">
      <!-- teriflunomide -->
      <g transform="translate(75.492187 96.283594) scale(0.1 -0.1)">
       <use xlink:href="#DejaVuSans-74"/>
       <use xlink:href="#DejaVuSans-65" x="39.208984"/>
       <use xlink:href="#DejaVuSans-72" x="100.732422"/>
       <use xlink:href="#DejaVuSans-69" x="141.845703"/>
       <use xlink:href="#DejaVuSans-66" x="169.628906"/>
       <use xlink:href="#DejaVuSans-6c" x="204.833984"/>
       <use xlink:href="#DejaVuSans-75" x="232.617188"/>
       <use xlink:href="#DejaVuSans-6e" x="295.996094"/>
       <use xlink:href="#DejaVuSans-6f" x="359.375"/>
       <use xlink:href="#DejaVuSans-6d" x="420.556641"/>
       <use xlink:href="#DejaVuSans-69" x="517.96875"/>
       <use xlink:href="#DejaVuSans-64" x="545.751953"/>
       <use xlink:href="#DejaVuSans-65" x="609.228516"/>
      </g>
     </g>
    </g>
    <g id="ytick_6">
     <g id="line2d_14">
      <g>
       <use xlink:href="#m4276250dcb" x="149.567187" y="108.076875" style="stroke: #000000; stroke-width: 0.8"/>
      </g>
     </g>
     <g id="text_6">
      <!-- tegaserod_maleate -->
      <g transform="translate(46.3 111.876094) scale(0.1 -0.1)">
       <defs>
        <path id="DejaVuSans-67" d="M 2906 1791 
Q 2906 2416 2648 2759 
Q 2391 3103 1925 3103 
Q 1463 3103 1205 2759 
Q 947 2416 947 1791 
Q 947 1169 1205 825 
Q 1463 481 1925 481 
Q 2391 481 2648 825 
Q 2906 1169 2906 1791 
z
M 3481 434 
Q 3481 -459 3084 -895 
Q 2688 -1331 1869 -1331 
Q 1566 -1331 1297 -1286 
Q 1028 -1241 775 -1147 
L 775 -588 
Q 1028 -725 1275 -790 
Q 1522 -856 1778 -856 
Q 2344 -856 2625 -561 
Q 2906 -266 2906 331 
L 2906 616 
Q 2728 306 2450 153 
Q 2172 0 1784 0 
Q 1141 0 747 490 
Q 353 981 353 1791 
Q 353 2603 747 3093 
Q 1141 3584 1784 3584 
Q 2172 3584 2450 3431 
Q 2728 3278 2906 2969 
L 2906 3500 
L 3481 3500 
L 3481 434 
z
" transform="scale(0.015625)"/>
       </defs>
       <use xlink:href="#DejaVuSans-74"/>
       <use xlink:href="#DejaVuSans-65" x="39.208984"/>
       <use xlink:href="#DejaVuSans-67" x="100.732422"/>
       <use xlink:href="#DejaVuSans-61" x="164.208984"/>
       <use xlink:href="#DejaVuSans-73" x="225.488281"/>
       <use xlink:href="#DejaVuSans-65" x="277.587891"/>
       <use xlink:href="#DejaVuSans-72" x="339.111328"/>
       <use xlink:href="#DejaVuSans-6f" x="377.974609"/>
       <use xlink:href="#DejaVuSans-64" x="439.15625"/>
       <use xlink:href="#DejaVuSans-5f" x="502.632812"/>
       <use xlink:href="#DejaVuSans-6d" x="552.632812"/>
       <use xlink:href="#DejaVuSans-61" x="650.044922"/>
       <use xlink:href="#DejaVuSans-6c" x="711.324219"/>
       <use xlink:href="#DejaVuSans-65" x="739.107422"/>
       <use xlink:href="#DejaVuSans-61" x="800.630859"/>
       <use xlink:href="#DejaVuSans-74" x="861.910156"/>
       <use xlink:href="#DejaVuSans-65" x="901.119141"/>
      </g>
     </g>
    </g>
    <g id="ytick_7">
     <g id="line2d_15">
      <g>
       <use xlink:href="#m4276250dcb" x="149.567187" y="123.669375" style="stroke: #000000; stroke-width: 0.8"/>
      </g>
     </g>
     <g id="text_7">
      <!-- azaribine -->
      <g transform="translate(96.55625 127.468594) scale(0.1 -0.1)">
       <use xlink:href="#DejaVuSans-61"/>
       <use xlink:href="#DejaVuSans-7a" x="61.279297"/>
       <use xlink:href="#DejaVuSans-61" x="113.769531"/>
       <use xlink:href="#DejaVuSans-72" x="175.048828"/>
       <use xlink:href="#DejaVuSans-69" x="216.162109"/>
       <use xlink:href="#DejaVuSans-62" x="243.945312"/>
       <use xlink:href="#DejaVuSans-69" x="307.421875"/>
       <use xlink:href="#DejaVuSans-6e" x="335.205078"/>
       <use xlink:href="#DejaVuSans-65" x="398.583984"/>
      </g>
     </g>
    </g>
    <g id="ytick_8">
     <g id="line2d_16">
      <g>
       <use xlink:href="#m4276250dcb" x="149.567187" y="139.261875" style="stroke: #000000; stroke-width: 0.8"/>
      </g>
     </g>
     <g id="text_8">
      <!-- flunarizine_dihydrochloride -->
      <g transform="translate(7.2 143.061094) scale(0.1 -0.1)">
       <defs>
        <path id="DejaVuSans-68" d="M 3513 2113 
L 3513 0 
L 2938 0 
L 2938 2094 
Q 2938 2591 2744 2837 
Q 2550 3084 2163 3084 
Q 1697 3084 1428 2787 
Q 1159 2491 1159 1978 
L 1159 0 
L 581 0 
L 581 4863 
L 1159 4863 
L 1159 2956 
Q 1366 3272 1645 3428 
Q 1925 3584 2291 3584 
Q 2894 3584 3203 3211 
Q 3513 2838 3513 2113 
z
" transform="scale(0.015625)"/>
       </defs>
       <use xlink:href="#DejaVuSans-66"/>
       <use xlink:href="#DejaVuSans-6c" x="35.205078"/>
       <use xlink:href="#DejaVuSans-75" x="62.988281"/>
       <use xlink:href="#DejaVuSans-6e" x="126.367188"/>
       <use xlink:href="#DejaVuSans-61" x="189.746094"/>
       <use xlink:href="#DejaVuSans-72" x="251.025391"/>
       <use xlink:href="#DejaVuSans-69" x="292.138672"/>
       <use xlink:href="#DejaVuSans-7a" x="319.921875"/>
       <use xlink:href="#DejaVuSans-69" x="372.412109"/>
       <use xlink:href="#DejaVuSans-6e" x="400.195312"/>
       <use xlink:href="#DejaVuSans-65" x="463.574219"/>
       <use xlink:href="#DejaVuSans-5f" x="525.097656"/>
       <use xlink:href="#DejaVuSans-64" x="575.097656"/>
       <use xlink:href="#DejaVuSans-69" x="638.574219"/>
       <use xlink:href="#DejaVuSans-68" x="666.357422"/>
       <use xlink:href="#DejaVuSans-79" x="729.736328"/>
       <use xlink:href="#DejaVuSans-64" x="788.916016"/>
       <use xlink:href="#DejaVuSans-72" x="852.392578"/>
       <use xlink:href="#DejaVuSans-6f" x="891.255859"/>
       <use xlink:href="#DejaVuSans-63" x="952.4375"/>
       <use xlink:href="#DejaVuSans-68" x="1007.417969"/>
       <use xlink:href="#DejaVuSans-6c" x="1070.796875"/>
       <use xlink:href="#DejaVuSans-6f" x="1098.580078"/>
       <use xlink:href="#DejaVuSans-72" x="1159.761719"/>
       <use xlink:href="#DejaVuSans-69" x="1200.875"/>
       <use xlink:href="#DejaVuSans-64" x="1228.658203"/>
       <use xlink:href="#DejaVuSans-65" x="1292.134766"/>
      </g>
     </g>
    </g>
    <g id="ytick_9">
     <g id="line2d_17">
      <g>
       <use xlink:href="#m4276250dcb" x="149.567187" y="154.854375" style="stroke: #000000; stroke-width: 0.8"/>
      </g>
     </g>
     <g id="text_9">
      <!-- amethopterin -->
      <g transform="translate(74.520312 158.653594) scale(0.1 -0.1)">
       <defs>
        <path id="DejaVuSans-70" d="M 1159 525 
L 1159 -1331 
L 581 -1331 
L 581 3500 
L 1159 3500 
L 1159 2969 
Q 1341 3281 1617 3432 
Q 1894 3584 2278 3584 
Q 2916 3584 3314 3078 
Q 3713 2572 3713 1747 
Q 3713 922 3314 415 
Q 2916 -91 2278 -91 
Q 1894 -91 1617 61 
Q 1341 213 1159 525 
z
M 3116 1747 
Q 3116 2381 2855 2742 
Q 2594 3103 2138 3103 
Q 1681 3103 1420 2742 
Q 1159 2381 1159 1747 
Q 1159 1113 1420 752 
Q 1681 391 2138 391 
Q 2594 391 2855 752 
Q 3116 1113 3116 1747 
z
" transform="scale(0.015625)"/>
       </defs>
       <use xlink:href="#DejaVuSans-61"/>
       <use xlink:href="#DejaVuSans-6d" x="61.279297"/>
       <use xlink:href="#DejaVuSans-65" x="158.691406"/>
       <use xlink:href="#DejaVuSans-74" x="220.214844"/>
       <use xlink:href="#DejaVuSans-68" x="259.423828"/>
       <use xlink:href="#DejaVuSans-6f" x="322.802734"/>
       <use xlink:href="#DejaVuSans-70" x="383.984375"/>
       <use xlink:href="#DejaVuSans-74" x="447.460938"/>
       <use xlink:href="#DejaVuSans-65" x="486.669922"/>
       <use xlink:href="#DejaVuSans-72" x="548.193359"/>
       <use xlink:href="#DejaVuSans-69" x="589.306641"/>
       <use xlink:href="#DejaVuSans-6e" x="617.089844"/>
      </g>
     </g>
    </g>
    <g id="ytick_10">
     <g id="line2d_18">
      <g>
       <use xlink:href="#m4276250dcb" x="149.567187" y="170.446875" style="stroke: #000000; stroke-width: 0.8"/>
      </g>
     </g>
     <g id="text_10">
      <!-- felodipine -->
      <g transform="translate(93.253125 174.246094) scale(0.1 -0.1)">
       <use xlink:href="#DejaVuSans-66"/>
       <use xlink:href="#DejaVuSans-65" x="35.205078"/>
       <use xlink:href="#DejaVuSans-6c" x="96.728516"/>
       <use xlink:href="#DejaVuSans-6f" x="124.511719"/>
       <use xlink:href="#DejaVuSans-64" x="185.693359"/>
       <use xlink:href="#DejaVuSans-69" x="249.169922"/>
       <use xlink:href="#DejaVuSans-70" x="276.953125"/>
       <use xlink:href="#DejaVuSans-69" x="340.429688"/>
       <use xlink:href="#DejaVuSans-6e" x="368.212891"/>
       <use xlink:href="#DejaVuSans-65" x="431.591797"/>
      </g>
     </g>
    </g>
    <g id="ytick_11">
     <g id="line2d_19">
      <g>
       <use xlink:href="#m4276250dcb" x="149.567187" y="186.039375" style="stroke: #000000; stroke-width: 0.8"/>
      </g>
     </g>
     <g id="text_11">
      <!-- cisatracurium_besylate -->
      <g transform="translate(26.38125 189.838594) scale(0.1 -0.1)">
       <use xlink:href="#DejaVuSans-63"/>
       <use xlink:href="#DejaVuSans-69" x="54.980469"/>
       <use xlink:href="#DejaVuSans-73" x="82.763672"/>
       <use xlink:href="#DejaVuSans-61" x="134.863281"/>
       <use xlink:href="#DejaVuSans-74" x="196.142578"/>
       <use xlink:href="#DejaVuSans-72" x="235.351562"/>
       <use xlink:href="#DejaVuSans-61" x="276.464844"/>
       <use xlink:href="#DejaVuSans-63" x="337.744141"/>
       <use xlink:href="#DejaVuSans-75" x="392.724609"/>
       <use xlink:href="#DejaVuSans-72" x="456.103516"/>
       <use xlink:href="#DejaVuSans-69" x="497.216797"/>
       <use xlink:href="#DejaVuSans-75" x="525"/>
       <use xlink:href="#DejaVuSans-6d" x="588.378906"/>
       <use xlink:href="#DejaVuSans-5f" x="685.791016"/>
       <use xlink:href="#DejaVuSans-62" x="735.791016"/>
       <use xlink:href="#DejaVuSans-65" x="799.267578"/>
       <use xlink:href="#DejaVuSans-73" x="860.791016"/>
       <use xlink:href="#DejaVuSans-79" x="912.890625"/>
       <use xlink:href="#DejaVuSans-6c" x="972.070312"/>
       <use xlink:href="#DejaVuSans-61" x="999.853516"/>
       <use xlink:href="#DejaVuSans-74" x="1061.132812"/>
       <use xlink:href="#DejaVuSans-65" x="1100.341797"/>
      </g>
     </g>
    </g>
   </g>
   <g id="line2d_20">
    <path clip-path="url(#pb9298d19e2)" style="fill: none; stroke: #424242; stroke-width: 2.25; stroke-linecap: square"/>
   </g>
   <g id="line2d_21">
    <path clip-path="url(#pb9298d19e2)" style="fill: none; stroke: #424242; stroke-width: 2.25; stroke-linecap: square"/>
   </g>
   <g id="line2d_22">
    <path clip-path="url(#pb9298d19e2)" style="fill: none; stroke: #424242; stroke-width: 2.25; stroke-linecap: square"/>
   </g>
   <g id="line2d_23">
    <path clip-path="url(#pb9298d19e2)" style="fill: none; stroke: #424242; stroke-width: 2.25; stroke-linecap: square"/>
   </g>
   <g id="line2d_24">
    <path clip-path="url(#pb9298d19e2)" style="fill: none; stroke: #424242; stroke-width: 2.25; stroke-linecap: square"/>
   </g>
   <g id="line2d_25">
    <path clip-path="url(#pb9298d19e2)" style="fill: none; stroke: #424242; stroke-width: 2.25; stroke-linecap: square"/>
   </g>
   <g id="line2d_26">
    <path clip-path="url(#pb9298d19e2)" style="fill: none; stroke: #424242; stroke-width: 2.25; stroke-linecap: square"/>
   </g>
   <g id="line2d_27">
    <path clip-path="url(#pb9298d19e2)" style="fill: none; stroke: #424242; stroke-width: 2.25; stroke-linecap: square"/>
   </g>
   <g id="line2d_28">
    <path clip-path="url(#pb9298d19e2)" style="fill: none; stroke: #424242; stroke-width: 2.25; stroke-linecap: square"/>
   </g>
   <g id="line2d_29">
    <path clip-path="url(#pb9298d19e2)" style="fill: none; stroke: #424242; stroke-width: 2.25; stroke-linecap: square"/>
   </g>
   <g id="line2d_30">
    <path clip-path="url(#pb9298d19e2)" style="fill: none; stroke: #424242; stroke-width: 2.25; stroke-linecap: square"/>
   </g>
   <g id="patch_16">
    <path d="M 149.567187 193.835625 
L 149.567187 22.318125 
" style="fill: none; stroke: #000000; stroke-width: 0.8; stroke-linejoin: miter; stroke-linecap: square"/>
   </g>
   <g id="patch_17">
    <path d="M 344.867188 193.835625 
L 344.867188 22.318125 
" style="fill: none; stroke: #000000; stroke-width: 0.8; stroke-linejoin: miter; stroke-linecap: square"/>
   </g>
   <g id="patch_18">
    <path d="M 149.567187 193.835625 
L 344.867188 193.835625 
" style="fill: none; stroke: #000000; stroke-width: 0.8; stroke-linejoin: miter; stroke-linecap: square"/>
   </g>
   <g id="patch_19">
    <path d="M 149.567187 22.318125 
L 344.867188 22.318125 
" style="fill: none; stroke: #000000; stroke-width: 0.8; stroke-linejoin: miter; stroke-linecap: square"/>
   </g>
   <g id="text_12">
    <!-- DiffDock (DUDE AUC=85.2) -->
    <g transform="translate(164.650625 16.318125) scale(0.12 -0.12)">
     <defs>
      <path id="DejaVuSans-44" d="M 1259 4147 
L 1259 519 
L 2022 519 
Q 2988 519 3436 956 
Q 3884 1394 3884 2338 
Q 3884 3275 3436 3711 
Q 2988 4147 2022 4147 
L 1259 4147 
z
M 628 4666 
L 1925 4666 
Q 3281 4666 3915 4102 
Q 4550 3538 4550 2338 
Q 4550 1131 3912 565 
Q 3275 0 1925 0 
L 628 0 
L 628 4666 
z
" transform="scale(0.015625)"/>
      <path id="DejaVuSans-6b" d="M 581 4863 
L 1159 4863 
L 1159 1991 
L 2875 3500 
L 3609 3500 
L 1753 1863 
L 3688 0 
L 2938 0 
L 1159 1709 
L 1159 0 
L 581 0 
L 581 4863 
z
" transform="scale(0.015625)"/>
      <path id="DejaVuSans-20" transform="scale(0.015625)"/>
      <path id="DejaVuSans-28" d="M 1984 4856 
Q 1566 4138 1362 3434 
Q 1159 2731 1159 2009 
Q 1159 1288 1364 580 
Q 1569 -128 1984 -844 
L 1484 -844 
Q 1016 -109 783 600 
Q 550 1309 550 2009 
Q 550 2706 781 3412 
Q 1013 4119 1484 4856 
L 1984 4856 
z
" transform="scale(0.015625)"/>
      <path id="DejaVuSans-55" d="M 556 4666 
L 1191 4666 
L 1191 1831 
Q 1191 1081 1462 751 
Q 1734 422 2344 422 
Q 2950 422 3222 751 
Q 3494 1081 3494 1831 
L 3494 4666 
L 4128 4666 
L 4128 1753 
Q 4128 841 3676 375 
Q 3225 -91 2344 -91 
Q 1459 -91 1007 375 
Q 556 841 556 1753 
L 556 4666 
z
" transform="scale(0.015625)"/>
      <path id="DejaVuSans-45" d="M 628 4666 
L 3578 4666 
L 3578 4134 
L 1259 4134 
L 1259 2753 
L 3481 2753 
L 3481 2222 
L 1259 2222 
L 1259 531 
L 3634 531 
L 3634 0 
L 628 0 
L 628 4666 
z
" transform="scale(0.015625)"/>
      <path id="DejaVuSans-41" d="M 2188 4044 
L 1331 1722 
L 3047 1722 
L 2188 4044 
z
M 1831 4666 
L 2547 4666 
L 4325 0 
L 3669 0 
L 3244 1197 
L 1141 1197 
L 716 0 
L 50 0 
L 1831 4666 
z
" transform="scale(0.015625)"/>
      <path id="DejaVuSans-43" d="M 4122 4306 
L 4122 3641 
Q 3803 3938 3442 4084 
Q 3081 4231 2675 4231 
Q 1875 4231 1450 3742 
Q 1025 3253 1025 2328 
Q 1025 1406 1450 917 
Q 1875 428 2675 428 
Q 3081 428 3442 575 
Q 3803 722 4122 1019 
L 4122 359 
Q 3791 134 3420 21 
Q 3050 -91 2638 -91 
Q 1578 -91 968 557 
Q 359 1206 359 2328 
Q 359 3453 968 4101 
Q 1578 4750 2638 4750 
Q 3056 4750 3426 4639 
Q 3797 4528 4122 4306 
z
" transform="scale(0.015625)"/>
      <path id="DejaVuSans-3d" d="M 678 2906 
L 4684 2906 
L 4684 2381 
L 678 2381 
L 678 2906 
z
M 678 1631 
L 4684 1631 
L 4684 1100 
L 678 1100 
L 678 1631 
z
" transform="scale(0.015625)"/>
      <path id="DejaVuSans-38" d="M 2034 2216 
Q 1584 2216 1326 1975 
Q 1069 1734 1069 1313 
Q 1069 891 1326 650 
Q 1584 409 2034 409 
Q 2484 409 2743 651 
Q 3003 894 3003 1313 
Q 3003 1734 2745 1975 
Q 2488 2216 2034 2216 
z
M 1403 2484 
Q 997 2584 770 2862 
Q 544 3141 544 3541 
Q 544 4100 942 4425 
Q 1341 4750 2034 4750 
Q 2731 4750 3128 4425 
Q 3525 4100 3525 3541 
Q 3525 3141 3298 2862 
Q 3072 2584 2669 2484 
Q 3125 2378 3379 2068 
Q 3634 1759 3634 1313 
Q 3634 634 3220 271 
Q 2806 -91 2034 -91 
Q 1263 -91 848 271 
Q 434 634 434 1313 
Q 434 1759 690 2068 
Q 947 2378 1403 2484 
z
M 1172 3481 
Q 1172 3119 1398 2916 
Q 1625 2713 2034 2713 
Q 2441 2713 2670 2916 
Q 2900 3119 2900 3481 
Q 2900 3844 2670 4047 
Q 2441 4250 2034 4250 
Q 1625 4250 1398 4047 
Q 1172 3844 1172 3481 
z
" transform="scale(0.015625)"/>
      <path id="DejaVuSans-35" d="M 691 4666 
L 3169 4666 
L 3169 4134 
L 1269 4134 
L 1269 2991 
Q 1406 3038 1543 3061 
Q 1681 3084 1819 3084 
Q 2600 3084 3056 2656 
Q 3513 2228 3513 1497 
Q 3513 744 3044 326 
Q 2575 -91 1722 -91 
Q 1428 -91 1123 -41 
Q 819 9 494 109 
L 494 744 
Q 775 591 1075 516 
Q 1375 441 1709 441 
Q 2250 441 2565 725 
Q 2881 1009 2881 1497 
Q 2881 1984 2565 2268 
Q 2250 2553 1709 2553 
Q 1456 2553 1204 2497 
Q 953 2441 691 2322 
L 691 4666 
z
" transform="scale(0.015625)"/>
      <path id="DejaVuSans-2e" d="M 684 794 
L 1344 794 
L 1344 0 
L 684 0 
L 684 794 
z
" transform="scale(0.015625)"/>
      <path id="DejaVuSans-32" d="M 1228 531 
L 3431 531 
L 3431 0 
L 469 0 
L 469 531 
Q 828 903 1448 1529 
Q 2069 2156 2228 2338 
Q 2531 2678 2651 2914 
Q 2772 3150 2772 3378 
Q 2772 3750 2511 3984 
Q 2250 4219 1831 4219 
Q 1534 4219 1204 4116 
Q 875 4013 500 3803 
L 500 4441 
Q 881 4594 1212 4672 
Q 1544 4750 1819 4750 
Q 2544 4750 2975 4387 
Q 3406 4025 3406 3419 
Q 3406 3131 3298 2873 
Q 3191 2616 2906 2266 
Q 2828 2175 2409 1742 
Q 1991 1309 1228 531 
z
" transform="scale(0.015625)"/>
      <path id="DejaVuSans-29" d="M 513 4856 
L 1013 4856 
Q 1481 4119 1714 3412 
Q 1947 2706 1947 2009 
Q 1947 1309 1714 600 
Q 1481 -109 1013 -844 
L 513 -844 
Q 928 -128 1133 580 
Q 1338 1288 1338 2009 
Q 1338 2731 1133 3434 
Q 928 4138 513 4856 
z
" transform="scale(0.015625)"/>
     </defs>
     <use xlink:href="#DejaVuSans-44"/>
     <use xlink:href="#DejaVuSans-69" x="77.001953"/>
     <use xlink:href="#DejaVuSans-66" x="104.785156"/>
     <use xlink:href="#DejaVuSans-66" x="139.990234"/>
     <use xlink:href="#DejaVuSans-44" x="175.195312"/>
     <use xlink:href="#DejaVuSans-6f" x="252.197266"/>
     <use xlink:href="#DejaVuSans-63" x="313.378906"/>
     <use xlink:href="#DejaVuSans-6b" x="368.359375"/>
     <use xlink:href="#DejaVuSans-20" x="426.269531"/>
     <use xlink:href="#DejaVuSans-28" x="458.056641"/>
     <use xlink:href="#DejaVuSans-44" x="497.070312"/>
     <use xlink:href="#DejaVuSans-55" x="574.072266"/>
     <use xlink:href="#DejaVuSans-44" x="647.265625"/>
     <use xlink:href="#DejaVuSans-45" x="724.267578"/>
     <use xlink:href="#DejaVuSans-20" x="787.451172"/>
     <use xlink:href="#DejaVuSans-41" x="819.238281"/>
     <use xlink:href="#DejaVuSans-55" x="887.646484"/>
     <use xlink:href="#DejaVuSans-43" x="960.839844"/>
     <use xlink:href="#DejaVuSans-3d" x="1030.664062"/>
     <use xlink:href="#DejaVuSans-38" x="1114.453125"/>
     <use xlink:href="#DejaVuSans-35" x="1178.076172"/>
     <use xlink:href="#DejaVuSans-2e" x="1241.699219"/>
     <use xlink:href="#DejaVuSans-32" x="1273.486328"/>
     <use xlink:href="#DejaVuSans-29" x="1337.109375"/>
    </g>
   </g>
   <g id="legend_1">
    <g id="patch_20">
     <path d="M 224.617188 188.835625 
L 337.867188 188.835625 
Q 339.867188 188.835625 339.867188 186.835625 
L 339.867188 157.923125 
Q 339.867188 155.923125 337.867188 155.923125 
L 224.617188 155.923125 
Q 222.617188 155.923125 222.617188 157.923125 
L 222.617188 186.835625 
Q 222.617188 188.835625 224.617188 188.835625 
z
" style="fill: #ffffff; opacity: 0.8; stroke: #cccccc; stroke-linejoin: miter"/>
    </g>
    <g id="patch_21">
     <path d="M 226.617188 167.521562 
L 246.617188 167.521562 
L 246.617188 160.521562 
L 226.617188 160.521562 
z
" style="fill: #e1812c"/>
    </g>
    <g id="text_13">
     <!-- in_vitro_active -->
     <g transform="translate(254.617188 167.521562) scale(0.1 -0.1)">
      <defs>
       <path id="DejaVuSans-76" d="M 191 3500 
L 800 3500 
L 1894 563 
L 2988 3500 
L 3597 3500 
L 2284 0 
L 1503 0 
L 191 3500 
z
" transform="scale(0.015625)"/>
      </defs>
      <use xlink:href="#DejaVuSans-69"/>
      <use xlink:href="#DejaVuSans-6e" x="27.783203"/>
      <use xlink:href="#DejaVuSans-5f" x="91.162109"/>
      <use xlink:href="#DejaVuSans-76" x="141.162109"/>
      <use xlink:href="#DejaVuSans-69" x="200.341797"/>
      <use xlink:href="#DejaVuSans-74" x="228.125"/>
      <use xlink:href="#DejaVuSans-72" x="267.333984"/>
      <use xlink:href="#DejaVuSans-6f" x="306.197266"/>
      <use xlink:href="#DejaVuSans-5f" x="367.378906"/>
      <use xlink:href="#DejaVuSans-61" x="417.378906"/>
      <use xlink:href="#DejaVuSans-63" x="478.658203"/>
      <use xlink:href="#DejaVuSans-74" x="533.638672"/>
      <use xlink:href="#DejaVuSans-69" x="572.847656"/>
      <use xlink:href="#DejaVuSans-76" x="600.630859"/>
      <use xlink:href="#DejaVuSans-65" x="659.810547"/>
     </g>
    </g>
    <g id="patch_22">
     <path d="M 226.617188 182.477812 
L 246.617188 182.477812 
L 246.617188 175.477812 
L 226.617188 175.477812 
z
" style="fill: #7f7f7f"/>
    </g>
    <g id="text_14">
     <!-- in_vitro_inactive -->
     <g transform="translate(254.617188 182.477812) scale(0.1 -0.1)">
      <use xlink:href="#DejaVuSans-69"/>
      <use xlink:href="#DejaVuSans-6e" x="27.783203"/>
      <use xlink:href="#DejaVuSans-5f" x="91.162109"/>
      <use xlink:href="#DejaVuSans-76" x="141.162109"/>
      <use xlink:href="#DejaVuSans-69" x="200.341797"/>
      <use xlink:href="#DejaVuSans-74" x="228.125"/>
      <use xlink:href="#DejaVuSans-72" x="267.333984"/>
      <use xlink:href="#DejaVuSans-6f" x="306.197266"/>
      <use xlink:href="#DejaVuSans-5f" x="367.378906"/>
      <use xlink:href="#DejaVuSans-69" x="417.378906"/>
      <use xlink:href="#DejaVuSans-6e" x="445.162109"/>
      <use xlink:href="#DejaVuSans-61" x="508.541016"/>
      <use xlink:href="#DejaVuSans-63" x="569.820312"/>
      <use xlink:href="#DejaVuSans-74" x="624.800781"/>
      <use xlink:href="#DejaVuSans-69" x="664.009766"/>
      <use xlink:href="#DejaVuSans-76" x="691.792969"/>
      <use xlink:href="#DejaVuSans-65" x="750.972656"/>
     </g>
    </g>
   </g>
  </g>
  <g id="axes_2">
   <g id="patch_23">
    <path d="M 149.567187 271.798125 
L 344.867188 271.798125 
L 344.867188 193.835625 
L 149.567187 193.835625 
L 149.567187 271.798125 
z
" style="fill: none"/>
   </g>
   <g id="PolyCollection_1">
    <defs>
     <path id="mdcbcb4b601" d="M 207.210901 -107.533501 
L 207.210901 -108.467749 
L 207.600613 -108.534597 
L 207.990325 -108.608599 
L 208.380037 -108.690136 
L 208.769749 -108.77955 
L 209.159461 -108.877137 
L 209.549173 -108.983135 
L 209.938885 -109.09772 
L 210.328597 -109.220991 
L 210.718309 -109.352966 
L 211.108021 -109.493573 
L 211.497733 -109.642641 
L 211.887445 -109.799903 
L 212.277157 -109.964984 
L 212.666869 -110.137403 
L 213.056581 -110.316575 
L 213.446293 -110.501811 
L 213.836005 -110.692321 
L 214.225717 -110.887224 
L 214.615429 -111.085556 
L 215.005141 -111.286276 
L 215.394853 -111.488284 
L 215.784565 -111.690432 
L 216.174277 -111.891538 
L 216.563989 -112.090402 
L 216.953701 -112.285827 
L 217.343413 -112.476629 
L 217.733125 -112.66166 
L 218.122837 -112.839823 
L 218.512549 -113.010086 
L 218.902261 -113.171497 
L 219.291973 -113.3232 
L 219.681685 -113.464445 
L 220.071397 -113.594595 
L 220.461109 -113.713139 
L 220.850821 -113.81969 
L 221.240533 -113.913995 
L 221.630245 -113.995929 
L 222.019957 -114.065495 
L 222.409669 -114.122818 
L 222.799381 -114.16814 
L 223.189093 -114.201804 
L 223.578805 -114.224251 
L 223.968517 -114.235997 
L 224.358229 -114.237625 
L 224.74794 -114.229766 
L 225.137652 -114.213083 
L 225.527364 -114.188251 
L 225.917076 -114.155945 
L 226.306788 -114.116818 
L 226.6965 -114.07149 
L 227.086212 -114.020534 
L 227.475924 -113.96446 
L 227.865636 -113.903709 
L 228.255348 -113.838645 
L 228.64506 -113.769549 
L 229.034772 -113.69662 
L 229.424484 -113.619973 
L 229.814196 -113.539648 
L 230.203908 -113.45561 
L 230.59362 -113.367766 
L 230.983332 -113.275972 
L 231.373044 -113.180048 
L 231.762756 -113.079793 
L 232.152468 -112.975002 
L 232.54218 -112.865478 
L 232.931892 -112.751054 
L 233.321604 -112.631601 
L 233.711316 -112.507049 
L 234.101028 -112.377393 
L 234.49074 -112.242705 
L 234.880452 -112.103142 
L 235.270164 -111.958946 
L 235.659876 -111.810452 
L 236.049588 -111.658082 
L 236.4393 -111.502341 
L 236.829012 -111.343812 
L 237.218724 -111.183143 
L 237.608436 -111.021041 
L 237.998148 -110.858254 
L 238.38786 -110.695561 
L 238.777572 -110.533753 
L 239.167284 -110.373621 
L 239.556996 -110.215942 
L 239.946708 -110.061461 
L 240.33642 -109.910883 
L 240.726132 -109.764858 
L 241.115844 -109.623972 
L 241.505556 -109.48874 
L 241.895268 -109.359599 
L 242.28498 -109.236905 
L 242.674692 -109.120932 
L 243.064404 -109.01187 
L 243.454116 -108.909826 
L 243.843828 -108.814833 
L 244.23354 -108.72685 
L 244.623252 -108.645768 
L 245.012964 -108.571419 
L 245.402676 -108.503586 
L 245.792388 -108.442003 
L 245.792388 -107.559247 
L 245.792388 -107.559247 
L 245.402676 -107.497664 
L 245.012964 -107.429831 
L 244.623252 -107.355482 
L 244.23354 -107.2744 
L 243.843828 -107.186417 
L 243.454116 -107.091424 
L 243.064404 -106.98938 
L 242.674692 -106.880318 
L 242.28498 -106.764345 
L 241.895268 -106.641651 
L 241.505556 -106.51251 
L 241.115844 -106.377278 
L 240.726132 -106.236392 
L 240.33642 -106.090367 
L 239.946708 -105.939789 
L 239.556996 -105.785308 
L 239.167284 -105.627629 
L 238.777572 -105.467497 
L 238.38786 -105.305689 
L 237.998148 -105.142996 
L 237.608436 -104.980209 
L 237.218724 -104.818107 
L 236.829012 -104.657438 
L 236.4393 -104.498909 
L 236.049588 -104.343168 
L 235.659876 -104.190798 
L 235.270164 -104.042304 
L 234.880452 -103.898108 
L 234.49074 -103.758545 
L 234.101028 -103.623857 
L 233.711316 -103.494201 
L 233.321604 -103.369649 
L 232.931892 -103.250196 
L 232.54218 -103.135772 
L 232.152468 -103.026248 
L 231.762756 -102.921457 
L 231.373044 -102.821202 
L 230.983332 -102.725278 
L 230.59362 -102.633484 
L 230.203908 -102.54564 
L 229.814196 -102.461602 
L 229.424484 -102.381277 
L 229.034772 -102.30463 
L 228.64506 -102.231701 
L 228.255348 -102.162605 
L 227.865636 -102.097541 
L 227.475924 -102.03679 
L 227.086212 -101.980716 
L 226.6965 -101.92976 
L 226.306788 -101.884432 
L 225.917076 -101.845305 
L 225.527364 -101.812999 
L 225.137652 -101.788167 
L 224.74794 -101.771484 
L 224.358229 -101.763625 
L 223.968517 -101.765253 
L 223.578805 -101.776999 
L 223.189093 -101.799446 
L 222.799381 -101.83311 
L 222.409669 -101.878432 
L 222.019957 -101.935755 
L 221.630245 -102.005321 
L 221.240533 -102.087255 
L 220.850821 -102.18156 
L 220.461109 -102.288111 
L 220.071397 -102.406655 
L 219.681685 -102.536805 
L 219.291973 -102.67805 
L 218.902261 -102.829753 
L 218.512549 -102.991164 
L 218.122837 -103.161427 
L 217.733125 -103.33959 
L 217.343413 -103.524621 
L 216.953701 -103.715423 
L 216.563989 -103.910848 
L 216.174277 -104.109712 
L 215.784565 -104.310818 
L 215.394853 -104.512966 
L 215.005141 -104.714974 
L 214.615429 -104.915694 
L 214.225717 -105.114026 
L 213.836005 -105.308929 
L 213.446293 -105.499439 
L 213.056581 -105.684675 
L 212.666869 -105.863847 
L 212.277157 -106.036266 
L 211.887445 -106.201347 
L 211.497733 -106.358609 
L 211.108021 -106.507677 
L 210.718309 -106.648284 
L 210.328597 -106.780259 
L 209.938885 -106.90353 
L 209.549173 -107.018115 
L 209.159461 -107.124113 
L 208.769749 -107.2217 
L 208.380037 -107.311114 
L 207.990325 -107.392651 
L 207.600613 -107.466653 
L 207.210901 -107.533501 
z
" style="stroke: #3f3f3f; stroke-width: 1.25"/>
    </defs>
    <g clip-path="url(#p60d4d82caf)">
     <use xlink:href="#mdcbcb4b601" x="0" y="309.6325" style="fill: #3274a1; stroke: #3f3f3f; stroke-width: 1.25"/>
    </g>
   </g>
   <g id="PolyCollection_2">
    <defs>
     <path id="m173686cedb" d="M 187.960291 -92.229673 
L 187.960291 -92.586577 
L 188.508919 -92.622447 
L 189.057548 -92.663774 
L 189.606176 -92.711013 
L 190.154804 -92.764589 
L 190.703432 -92.824882 
L 191.25206 -92.892208 
L 191.800689 -92.966815 
L 192.349317 -93.048861 
L 192.897945 -93.138413 
L 193.446573 -93.235431 
L 193.995202 -93.339773 
L 194.54383 -93.451184 
L 195.092458 -93.569307 
L 195.641086 -93.693685 
L 196.189714 -93.823775 
L 196.738343 -93.958957 
L 197.286971 -94.098554 
L 197.835599 -94.241849 
L 198.384227 -94.388106 
L 198.932856 -94.536584 
L 199.481484 -94.686565 
L 200.030112 -94.83736 
L 200.57874 -94.988332 
L 201.127368 -95.138898 
L 201.675997 -95.288541 
L 202.224625 -95.436806 
L 202.773253 -95.583299 
L 203.321881 -95.727679 
L 203.870509 -95.869642 
L 204.419138 -96.008908 
L 204.967766 -96.145203 
L 205.516394 -96.278237 
L 206.065022 -96.407687 
L 206.613651 -96.533175 
L 207.162279 -96.654259 
L 207.710907 -96.770414 
L 208.259535 -96.881035 
L 208.808163 -96.985426 
L 209.356792 -97.082819 
L 209.90542 -97.172375 
L 210.454048 -97.253213 
L 211.002676 -97.32443 
L 211.551304 -97.385134 
L 212.099933 -97.434474 
L 212.648561 -97.471682 
L 213.197189 -97.496099 
L 213.745817 -97.507215 
L 214.294446 -97.504694 
L 214.843074 -97.488396 
L 215.391702 -97.458397 
L 215.94033 -97.414989 
L 216.488958 -97.358683 
L 217.037587 -97.290193 
L 217.586215 -97.21042 
L 218.134843 -97.120419 
L 218.683471 -97.021366 
L 219.2321 -96.914521 
L 219.780728 -96.801179 
L 220.329356 -96.682632 
L 220.877984 -96.560125 
L 221.426612 -96.43482 
L 221.975241 -96.307762 
L 222.523869 -96.179854 
L 223.072497 -96.051839 
L 223.621125 -95.924292 
L 224.169753 -95.797622 
L 224.718382 -95.672073 
L 225.26701 -95.547748 
L 225.815638 -95.424627 
L 226.364266 -95.302591 
L 226.912895 -95.181457 
L 227.461523 -95.061008 
L 228.010151 -94.941021 
L 228.558779 -94.821301 
L 229.107407 -94.701702 
L 229.656036 -94.582151 
L 230.204664 -94.462663 
L 230.753292 -94.343349 
L 231.30192 -94.22442 
L 231.850548 -94.106183 
L 232.399177 -93.989032 
L 232.947805 -93.873437 
L 233.496433 -93.759921 
L 234.045061 -93.649045 
L 234.59369 -93.541382 
L 235.142318 -93.437497 
L 235.690946 -93.337925 
L 236.239574 -93.243151 
L 236.788202 -93.153596 
L 237.336831 -93.069601 
L 237.885459 -92.99142 
L 238.434087 -92.919214 
L 238.982715 -92.853049 
L 239.531343 -92.792903 
L 240.079972 -92.738667 
L 240.6286 -92.690154 
L 241.177228 -92.647114 
L 241.725856 -92.60924 
L 242.274485 -92.576185 
L 242.274485 -92.240065 
L 242.274485 -92.240065 
L 241.725856 -92.20701 
L 241.177228 -92.169136 
L 240.6286 -92.126096 
L 240.079972 -92.077583 
L 239.531343 -92.023347 
L 238.982715 -91.963201 
L 238.434087 -91.897036 
L 237.885459 -91.82483 
L 237.336831 -91.746649 
L 236.788202 -91.662654 
L 236.239574 -91.573099 
L 235.690946 -91.478325 
L 235.142318 -91.378753 
L 234.59369 -91.274868 
L 234.045061 -91.167205 
L 233.496433 -91.056329 
L 232.947805 -90.942813 
L 232.399177 -90.827218 
L 231.850548 -90.710067 
L 231.30192 -90.59183 
L 230.753292 -90.472901 
L 230.204664 -90.353587 
L 229.656036 -90.234099 
L 229.107407 -90.114548 
L 228.558779 -89.994949 
L 228.010151 -89.875229 
L 227.461523 -89.755242 
L 226.912895 -89.634793 
L 226.364266 -89.513659 
L 225.815638 -89.391623 
L 225.26701 -89.268502 
L 224.718382 -89.144177 
L 224.169753 -89.018628 
L 223.621125 -88.891958 
L 223.072497 -88.764411 
L 222.523869 -88.636396 
L 221.975241 -88.508488 
L 221.426612 -88.38143 
L 220.877984 -88.256125 
L 220.329356 -88.133618 
L 219.780728 -88.015071 
L 219.2321 -87.901729 
L 218.683471 -87.794884 
L 218.134843 -87.695831 
L 217.586215 -87.60583 
L 217.037587 -87.526057 
L 216.488958 -87.457567 
L 215.94033 -87.401261 
L 215.391702 -87.357853 
L 214.843074 -87.327854 
L 214.294446 -87.311556 
L 213.745817 -87.309035 
L 213.197189 -87.320151 
L 212.648561 -87.344568 
L 212.099933 -87.381776 
L 211.551304 -87.431116 
L 211.002676 -87.49182 
L 210.454048 -87.563037 
L 209.90542 -87.643875 
L 209.356792 -87.733431 
L 208.808163 -87.830824 
L 208.259535 -87.935215 
L 207.710907 -88.045836 
L 207.162279 -88.161991 
L 206.613651 -88.283075 
L 206.065022 -88.408563 
L 205.516394 -88.538013 
L 204.967766 -88.671047 
L 204.419138 -88.807342 
L 203.870509 -88.946608 
L 203.321881 -89.088571 
L 202.773253 -89.232951 
L 202.224625 -89.379444 
L 201.675997 -89.527709 
L 201.127368 -89.677352 
L 200.57874 -89.827918 
L 200.030112 -89.97889 
L 199.481484 -90.129685 
L 198.932856 -90.279666 
L 198.384227 -90.428144 
L 197.835599 -90.574401 
L 197.286971 -90.717696 
L 196.738343 -90.857293 
L 196.189714 -90.992475 
L 195.641086 -91.122565 
L 195.092458 -91.246943 
L 194.54383 -91.365066 
L 193.995202 -91.476477 
L 193.446573 -91.580819 
L 192.897945 -91.677837 
L 192.349317 -91.767389 
L 191.800689 -91.849435 
L 191.25206 -91.924042 
L 190.703432 -91.991368 
L 190.154804 -92.051661 
L 189.606176 -92.105237 
L 189.057548 -92.152476 
L 188.508919 -92.193803 
L 187.960291 -92.229673 
z
" style="stroke: #3f3f3f; stroke-width: 1.25"/>
    </defs>
    <g clip-path="url(#p60d4d82caf)">
     <use xlink:href="#m173686cedb" x="0" y="309.6325" style="fill: #3274a1; stroke: #3f3f3f; stroke-width: 1.25"/>
    </g>
   </g>
   <g id="PolyCollection_3">
    <defs>
     <path id="m746f2e8557" d="M 177.141076 -76.792824 
L 177.141076 -76.838426 
L 178.177046 -76.857093 
L 179.213016 -76.884574 
L 180.248985 -76.920645 
L 181.284955 -76.962608 
L 182.320925 -77.005527 
L 183.356894 -77.043763 
L 184.392864 -77.073336 
L 185.428834 -77.093981 
L 186.464803 -77.109788 
L 187.500773 -77.128042 
L 188.536742 -77.156902 
L 189.572712 -77.203094 
L 190.608682 -77.270669 
L 191.644651 -77.361175 
L 192.680621 -77.474924 
L 193.716591 -77.612548 
L 194.75256 -77.775954 
L 195.78853 -77.968076 
L 196.8245 -78.191387 
L 197.860469 -78.445788 
L 198.896439 -78.726907 
L 199.932409 -79.025776 
L 200.968378 -79.330168 
L 202.004348 -79.626923 
L 203.040317 -79.90418 
L 204.076287 -80.15264 
L 205.112257 -80.365874 
L 206.148226 -80.540176 
L 207.184196 -80.674428 
L 208.220166 -80.769951 
L 209.256135 -80.830076 
L 210.292105 -80.859373 
L 211.328075 -80.862715 
L 212.364044 -80.844478 
L 213.400014 -80.808006 
L 214.435984 -80.755428 
L 215.471953 -80.687913 
L 216.507923 -80.606407 
L 217.543892 -80.512613 
L 218.579862 -80.409729 
L 219.615832 -80.30248 
L 220.651801 -80.196281 
L 221.687771 -80.095784 
L 222.723741 -80.003293 
L 223.75971 -79.917651 
L 224.79568 -79.834135 
L 225.83165 -79.745631 
L 226.867619 -79.644853 
L 227.903589 -79.526836 
L 228.939559 -79.390633 
L 229.975528 -79.239497 
L 231.011498 -79.0796 
L 232.047468 -78.91802 
L 233.083437 -78.760912 
L 234.119407 -78.612374 
L 235.155376 -78.474052 
L 236.191346 -78.345276 
L 237.227316 -78.223645 
L 238.263285 -78.106023 
L 239.299255 -77.989818 
L 240.335225 -77.874109 
L 241.371194 -77.760099 
L 242.407164 -77.650645 
L 243.443134 -77.549144 
L 244.479103 -77.458377 
L 245.515073 -77.379829 
L 246.551043 -77.313643 
L 247.587012 -77.25903 
L 248.622982 -77.214792 
L 249.658951 -77.179718 
L 250.694921 -77.152678 
L 251.730891 -77.132394 
L 252.76686 -77.117001 
L 253.80283 -77.103728 
L 254.8388 -77.089105 
L 255.874769 -77.06987 
L 256.910739 -77.044288 
L 257.946709 -77.013144 
L 258.982678 -76.979712 
L 260.018648 -76.948541 
L 261.054618 -76.92366 
L 262.090587 -76.907124 
L 263.126557 -76.898579 
L 264.162527 -76.895864 
L 265.198496 -76.896136 
L 266.234466 -76.896883 
L 267.270435 -76.896445 
L 268.306405 -76.894036 
L 269.342375 -76.88949 
L 270.378344 -76.882971 
L 271.414314 -76.874812 
L 272.450284 -76.865488 
L 273.486253 -76.855621 
L 274.522223 -76.845952 
L 275.558193 -76.837213 
L 276.594162 -76.829965 
L 277.630132 -76.824468 
L 278.666102 -76.820666 
L 279.702071 -76.818273 
L 279.702071 -76.812977 
L 279.702071 -76.812977 
L 278.666102 -76.810584 
L 277.630132 -76.806782 
L 276.594162 -76.801285 
L 275.558193 -76.794037 
L 274.522223 -76.785298 
L 273.486253 -76.775629 
L 272.450284 -76.765762 
L 271.414314 -76.756438 
L 270.378344 -76.748279 
L 269.342375 -76.74176 
L 268.306405 -76.737214 
L 267.270435 -76.734805 
L 266.234466 -76.734367 
L 265.198496 -76.735114 
L 264.162527 -76.735386 
L 263.126557 -76.732671 
L 262.090587 -76.724126 
L 261.054618 -76.70759 
L 260.018648 -76.682709 
L 258.982678 -76.651538 
L 257.946709 -76.618106 
L 256.910739 -76.586962 
L 255.874769 -76.56138 
L 254.8388 -76.542145 
L 253.80283 -76.527522 
L 252.76686 -76.514249 
L 251.730891 -76.498856 
L 250.694921 -76.478572 
L 249.658951 -76.451532 
L 248.622982 -76.416458 
L 247.587012 -76.37222 
L 246.551043 -76.317607 
L 245.515073 -76.251421 
L 244.479103 -76.172873 
L 243.443134 -76.082106 
L 242.407164 -75.980605 
L 241.371194 -75.871151 
L 240.335225 -75.757141 
L 239.299255 -75.641432 
L 238.263285 -75.525227 
L 237.227316 -75.407605 
L 236.191346 -75.285974 
L 235.155376 -75.157198 
L 234.119407 -75.018876 
L 233.083437 -74.870338 
L 232.047468 -74.71323 
L 231.011498 -74.55165 
L 229.975528 -74.391753 
L 228.939559 -74.240617 
L 227.903589 -74.104414 
L 226.867619 -73.986397 
L 225.83165 -73.885619 
L 224.79568 -73.797115 
L 223.75971 -73.713599 
L 222.723741 -73.627957 
L 221.687771 -73.535466 
L 220.651801 -73.434969 
L 219.615832 -73.32877 
L 218.579862 -73.221521 
L 217.543892 -73.118637 
L 216.507923 -73.024843 
L 215.471953 -72.943337 
L 214.435984 -72.875822 
L 213.400014 -72.823244 
L 212.364044 -72.786772 
L 211.328075 -72.768535 
L 210.292105 -72.771877 
L 209.256135 -72.801174 
L 208.220166 -72.861299 
L 207.184196 -72.956822 
L 206.148226 -73.091074 
L 205.112257 -73.265376 
L 204.076287 -73.47861 
L 203.040317 -73.72707 
L 202.004348 -74.004327 
L 200.968378 -74.301082 
L 199.932409 -74.605474 
L 198.896439 -74.904343 
L 197.860469 -75.185462 
L 196.8245 -75.439863 
L 195.78853 -75.663174 
L 194.75256 -75.855296 
L 193.716591 -76.018702 
L 192.680621 -76.156326 
L 191.644651 -76.270075 
L 190.608682 -76.360581 
L 189.572712 -76.428156 
L 188.536742 -76.474348 
L 187.500773 -76.503208 
L 186.464803 -76.521462 
L 185.428834 -76.537269 
L 184.392864 -76.557914 
L 183.356894 -76.587487 
L 182.320925 -76.625723 
L 181.284955 -76.668642 
L 180.248985 -76.710605 
L 179.213016 -76.746676 
L 178.177046 -76.774157 
L 177.141076 -76.792824 
z
" style="stroke: #3f3f3f; stroke-width: 1.25"/>
    </defs>
    <g clip-path="url(#p60d4d82caf)">
     <use xlink:href="#m746f2e8557" x="0" y="309.6325" style="fill: #3274a1; stroke: #3f3f3f; stroke-width: 1.25"/>
    </g>
   </g>
   <g id="PolyCollection_4">
    <defs>
     <path id="me47ac5839b" d="M 187.160868 -61.211282 
L 187.160868 -61.234968 
L 188.425848 -61.239669 
L 189.690828 -61.245804 
L 190.955808 -61.253646 
L 192.220788 -61.263462 
L 193.485768 -61.275494 
L 194.750748 -61.289938 
L 196.015728 -61.306921 
L 197.280708 -61.326473 
L 198.545688 -61.348512 
L 199.810668 -61.372832 
L 201.075648 -61.399101 
L 202.340628 -61.426872 
L 203.605608 -61.455612 
L 204.870588 -61.484745 
L 206.135568 -61.513705 
L 207.400548 -61.541999 
L 208.665528 -61.56927 
L 209.930508 -61.59535 
L 211.195488 -61.620293 
L 212.460468 -61.644382 
L 213.725448 -61.668106 
L 214.990428 -61.692103 
L 216.255408 -61.717076 
L 217.520388 -61.7437 
L 218.785368 -61.772527 
L 220.050348 -61.803917 
L 221.315328 -61.837994 
L 222.580308 -61.874662 
L 223.845288 -61.913652 
L 225.110268 -61.954614 
L 226.375248 -61.997234 
L 227.640227 -62.041343 
L 228.905207 -62.086999 
L 230.170187 -62.134537 
L 231.435167 -62.184543 
L 232.700147 -62.23779 
L 233.965127 -62.295109 
L 235.230107 -62.357249 
L 236.495087 -62.424721 
L 237.760067 -62.497681 
L 239.025047 -62.575848 
L 240.290027 -62.658492 
L 241.555007 -62.744477 
L 242.819987 -62.832366 
L 244.084967 -62.920555 
L 245.349947 -63.007434 
L 246.614927 -63.091523 
L 247.879907 -63.171597 
L 249.144887 -63.246747 
L 250.409867 -63.316408 
L 251.674847 -63.380322 
L 252.939827 -63.438471 
L 254.204807 -63.490975 
L 255.469787 -63.537991 
L 256.734767 -63.579617 
L 257.999747 -63.615818 
L 259.264727 -63.646395 
L 260.529707 -63.670992 
L 261.794687 -63.68914 
L 263.059667 -63.700329 
L 264.324647 -63.704104 
L 265.589627 -63.700152 
L 266.854607 -63.688376 
L 268.119587 -63.66894 
L 269.384567 -63.642271 
L 270.649547 -63.60902 
L 271.914527 -63.569991 
L 273.179507 -63.526041 
L 274.444487 -63.477977 
L 275.709467 -63.426459 
L 276.974447 -63.371922 
L 278.239427 -63.314543 
L 279.504407 -63.254227 
L 280.769387 -63.190648 
L 282.034367 -63.123305 
L 283.299347 -63.05161 
L 284.564327 -62.974977 
L 285.829307 -62.892925 
L 287.094287 -62.805161 
L 288.359267 -62.711661 
L 289.624247 -62.612724 
L 290.889227 -62.509 
L 292.154207 -62.401494 
L 293.419187 -62.291536 
L 294.684167 -62.18072 
L 295.949147 -62.070816 
L 297.214127 -61.963664 
L 298.479107 -61.861055 
L 299.744087 -61.764618 
L 301.009067 -61.675719 
L 302.274047 -61.595381 
L 303.539027 -61.52424 
L 304.804007 -61.462535 
L 306.068987 -61.410129 
L 307.333967 -61.36656 
L 308.598947 -61.331111 
L 309.863927 -61.302891 
L 311.128907 -61.280915 
L 312.393887 -61.264177 
L 312.393887 -61.182073 
L 312.393887 -61.182073 
L 311.128907 -61.165335 
L 309.863927 -61.143359 
L 308.598947 -61.115139 
L 307.333967 -61.07969 
L 306.068987 -61.036121 
L 304.804007 -60.983715 
L 303.539027 -60.92201 
L 302.274047 -60.850869 
L 301.009067 -60.770531 
L 299.744087 -60.681632 
L 298.479107 -60.585195 
L 297.214127 -60.482586 
L 295.949147 -60.375434 
L 294.684167 -60.26553 
L 293.419187 -60.154714 
L 292.154207 -60.044756 
L 290.889227 -59.93725 
L 289.624247 -59.833526 
L 288.359267 -59.734589 
L 287.094287 -59.641089 
L 285.829307 -59.553325 
L 284.564327 -59.471273 
L 283.299347 -59.39464 
L 282.034367 -59.322945 
L 280.769387 -59.255602 
L 279.504407 -59.192023 
L 278.239427 -59.131707 
L 276.974447 -59.074328 
L 275.709467 -59.019791 
L 274.444487 -58.968273 
L 273.179507 -58.920209 
L 271.914527 -58.876259 
L 270.649547 -58.83723 
L 269.384567 -58.803979 
L 268.119587 -58.77731 
L 266.854607 -58.757874 
L 265.589627 -58.746098 
L 264.324647 -58.742146 
L 263.059667 -58.745921 
L 261.794687 -58.75711 
L 260.529707 -58.775258 
L 259.264727 -58.799855 
L 257.999747 -58.830432 
L 256.734767 -58.866633 
L 255.469787 -58.908259 
L 254.204807 -58.955275 
L 252.939827 -59.007779 
L 251.674847 -59.065928 
L 250.409867 -59.129842 
L 249.144887 -59.199503 
L 247.879907 -59.274653 
L 246.614927 -59.354727 
L 245.349947 -59.438816 
L 244.084967 -59.525695 
L 242.819987 -59.613884 
L 241.555007 -59.701773 
L 240.290027 -59.787758 
L 239.025047 -59.870402 
L 237.760067 -59.948569 
L 236.495087 -60.021529 
L 235.230107 -60.089001 
L 233.965127 -60.151141 
L 232.700147 -60.20846 
L 231.435167 -60.261707 
L 230.170187 -60.311713 
L 228.905207 -60.359251 
L 227.640227 -60.404907 
L 226.375248 -60.449016 
L 225.110268 -60.491636 
L 223.845288 -60.532598 
L 222.580308 -60.571588 
L 221.315328 -60.608256 
L 220.050348 -60.642333 
L 218.785368 -60.673723 
L 217.520388 -60.70255 
L 216.255408 -60.729174 
L 214.990428 -60.754147 
L 213.725448 -60.778144 
L 212.460468 -60.801868 
L 211.195488 -60.825957 
L 209.930508 -60.8509 
L 208.665528 -60.87698 
L 207.400548 -60.904251 
L 206.135568 -60.932545 
L 204.870588 -60.961505 
L 203.605608 -60.990638 
L 202.340628 -61.019378 
L 201.075648 -61.047149 
L 199.810668 -61.073418 
L 198.545688 -61.097738 
L 197.280708 -61.119777 
L 196.015728 -61.139329 
L 194.750748 -61.156312 
L 193.485768 -61.170756 
L 192.220788 -61.182788 
L 190.955808 -61.192604 
L 189.690828 -61.200446 
L 188.425848 -61.206581 
L 187.160868 -61.211282 
z
" style="stroke: #3f3f3f; stroke-width: 1.25"/>
    </defs>
    <g clip-path="url(#p60d4d82caf)">
     <use xlink:href="#me47ac5839b" x="0" y="309.6325" style="fill: #3274a1; stroke: #3f3f3f; stroke-width: 1.25"/>
    </g>
   </g>
   <g id="PolyCollection_5">
    <defs>
     <path id="m7cf6d7d600" d="M 178.141551 -45.630204 
L 178.141551 -45.631046 
L 179.407405 -45.631553 
L 180.67326 -45.632309 
L 181.939114 -45.633153 
L 183.204969 -45.633814 
L 184.470823 -45.634155 
L 185.736678 -45.634445 
L 187.002532 -45.635404 
L 188.268387 -45.638043 
L 189.534241 -45.643619 
L 190.800096 -45.653932 
L 192.065951 -45.671741 
L 193.331805 -45.700728 
L 194.59766 -45.744617 
L 195.863514 -45.805742 
L 197.129369 -45.884131 
L 198.395223 -45.978137 
L 199.661078 -46.086537 
L 200.926932 -46.210523 
L 202.192787 -46.353617 
L 203.458641 -46.519106 
L 204.724496 -46.707097 
L 205.990351 -46.913979 
L 207.256205 -47.134188 
L 208.52206 -47.361437 
L 209.787914 -47.58831 
L 211.053769 -47.806431 
L 212.319623 -48.008196 
L 213.585478 -48.187417 
L 214.851332 -48.33771 
L 216.117187 -48.45251 
L 217.383041 -48.529949 
L 218.648896 -48.578432 
L 219.91475 -48.615175 
L 221.180605 -48.656858 
L 222.44646 -48.710725 
L 223.712314 -48.773653 
L 224.978169 -48.837346 
L 226.244023 -48.89258 
L 227.509878 -48.929815 
L 228.775732 -48.939882 
L 230.041587 -48.918134 
L 231.307441 -48.869376 
L 232.573296 -48.807147 
L 233.83915 -48.745246 
L 235.105005 -48.687944 
L 236.37086 -48.627455 
L 237.636714 -48.550203 
L 238.902569 -48.44658 
L 240.168423 -48.318034 
L 241.434278 -48.17704 
L 242.700132 -48.038921 
L 243.965987 -47.911074 
L 245.231841 -47.788775 
L 246.497696 -47.661138 
L 247.76355 -47.52141 
L 249.029405 -47.372631 
L 250.295259 -47.224811 
L 251.561114 -47.087341 
L 252.826969 -46.963557 
L 254.092823 -46.851143 
L 255.358678 -46.746042 
L 256.624532 -46.645218 
L 257.890387 -46.547094 
L 259.156241 -46.452005 
L 260.422096 -46.363239 
L 261.68795 -46.286143 
L 262.953805 -46.224525 
L 264.219659 -46.177642 
L 265.485514 -46.140669 
L 266.751368 -46.107381 
L 268.017223 -46.072244 
L 269.283078 -46.031432 
L 270.548932 -45.983818 
L 271.814787 -45.931645 
L 273.080641 -45.8796 
L 274.346496 -45.83231 
L 275.61235 -45.792105 
L 276.878205 -45.758748 
L 278.144059 -45.731029 
L 279.409914 -45.708487 
L 280.675768 -45.691759 
L 281.941623 -45.681497 
L 283.207478 -45.677038 
L 284.473332 -45.675988 
L 285.739187 -45.675096 
L 287.005041 -45.671854 
L 288.270896 -45.665698 
L 289.53675 -45.657914 
L 290.802605 -45.650451 
L 292.068459 -45.644717 
L 293.334314 -45.641132 
L 294.600168 -45.639313 
L 295.866023 -45.638438 
L 297.131877 -45.637638 
L 298.397732 -45.636402 
L 299.663587 -45.634775 
L 300.929441 -45.633157 
L 302.195296 -45.631921 
L 303.46115 -45.631178 
L 303.46115 -45.630072 
L 303.46115 -45.630072 
L 302.195296 -45.629329 
L 300.929441 -45.628093 
L 299.663587 -45.626475 
L 298.397732 -45.624848 
L 297.131877 -45.623612 
L 295.866023 -45.622812 
L 294.600168 -45.621937 
L 293.334314 -45.620118 
L 292.068459 -45.616533 
L 290.802605 -45.610799 
L 289.53675 -45.603336 
L 288.270896 -45.595552 
L 287.005041 -45.589396 
L 285.739187 -45.586154 
L 284.473332 -45.585262 
L 283.207478 -45.584212 
L 281.941623 -45.579753 
L 280.675768 -45.569491 
L 279.409914 -45.552763 
L 278.144059 -45.530221 
L 276.878205 -45.502502 
L 275.61235 -45.469145 
L 274.346496 -45.42894 
L 273.080641 -45.38165 
L 271.814787 -45.329605 
L 270.548932 -45.277432 
L 269.283078 -45.229818 
L 268.017223 -45.189006 
L 266.751368 -45.153869 
L 265.485514 -45.120581 
L 264.219659 -45.083608 
L 262.953805 -45.036725 
L 261.68795 -44.975107 
L 260.422096 -44.898011 
L 259.156241 -44.809245 
L 257.890387 -44.714156 
L 256.624532 -44.616032 
L 255.358678 -44.515208 
L 254.092823 -44.410107 
L 252.826969 -44.297693 
L 251.561114 -44.173909 
L 250.295259 -44.036439 
L 249.029405 -43.888619 
L 247.76355 -43.73984 
L 246.497696 -43.600112 
L 245.231841 -43.472475 
L 243.965987 -43.350176 
L 242.700132 -43.222329 
L 241.434278 -43.08421 
L 240.168423 -42.943216 
L 238.902569 -42.81467 
L 237.636714 -42.711047 
L 236.37086 -42.633795 
L 235.105005 -42.573306 
L 233.83915 -42.516004 
L 232.573296 -42.454103 
L 231.307441 -42.391874 
L 230.041587 -42.343116 
L 228.775732 -42.321368 
L 227.509878 -42.331435 
L 226.244023 -42.36867 
L 224.978169 -42.423904 
L 223.712314 -42.487597 
L 222.44646 -42.550525 
L 221.180605 -42.604392 
L 219.91475 -42.646075 
L 218.648896 -42.682818 
L 217.383041 -42.731301 
L 216.117187 -42.80874 
L 214.851332 -42.92354 
L 213.585478 -43.073833 
L 212.319623 -43.253054 
L 211.053769 -43.454819 
L 209.787914 -43.67294 
L 208.52206 -43.899813 
L 207.256205 -44.127062 
L 205.990351 -44.347271 
L 204.724496 -44.554153 
L 203.458641 -44.742144 
L 202.192787 -44.907633 
L 200.926932 -45.050727 
L 199.661078 -45.174713 
L 198.395223 -45.283113 
L 197.129369 -45.377119 
L 195.863514 -45.455508 
L 194.59766 -45.516633 
L 193.331805 -45.560522 
L 192.065951 -45.589509 
L 190.800096 -45.607318 
L 189.534241 -45.617631 
L 188.268387 -45.623207 
L 187.002532 -45.625846 
L 185.736678 -45.626805 
L 184.470823 -45.627095 
L 183.204969 -45.627436 
L 181.939114 -45.628097 
L 180.67326 -45.628941 
L 179.407405 -45.629697 
L 178.141551 -45.630204 
z
" style="stroke: #3f3f3f; stroke-width: 1.25"/>
    </defs>
    <g clip-path="url(#p60d4d82caf)">
     <use xlink:href="#m7cf6d7d600" x="0" y="309.6325" style="fill: #3274a1; stroke: #3f3f3f; stroke-width: 1.25"/>
    </g>
   </g>
   <g id="matplotlib.axis_3">
    <g id="xtick_5">
     <g id="line2d_31">
      <path d="M 162.587187 271.798125 
L 162.587187 193.835625 
" clip-path="url(#p60d4d82caf)" style="fill: none; stroke: #b0b0b0; stroke-width: 0.8; stroke-linecap: square"/>
     </g>
     <g id="line2d_32">
      <g>
       <use xlink:href="#m72f011383d" x="162.587187" y="271.798125" style="stroke: #000000; stroke-width: 0.8"/>
      </g>
     </g>
     <g id="text_15">
      <!-- 2 -->
      <g transform="translate(155.216094 286.396563) scale(0.1 -0.1)">
       <defs>
        <path id="DejaVuSans-2212" d="M 678 2272 
L 4684 2272 
L 4684 1741 
L 678 1741 
L 678 2272 
z
" transform="scale(0.015625)"/>
       </defs>
       <use xlink:href="#DejaVuSans-2212"/>
       <use xlink:href="#DejaVuSans-32" x="83.789062"/>
      </g>
     </g>
    </g>
    <g id="xtick_6">
     <g id="line2d_33">
      <path d="M 214.667187 271.798125 
L 214.667187 193.835625 
" clip-path="url(#p60d4d82caf)" style="fill: none; stroke: #b0b0b0; stroke-width: 0.8; stroke-linecap: square"/>
     </g>
     <g id="line2d_34">
      <g>
       <use xlink:href="#m72f011383d" x="214.667187" y="271.798125" style="stroke: #000000; stroke-width: 0.8"/>
      </g>
     </g>
     <g id="text_16">
      <!-- 0 -->
      <g transform="translate(211.485937 286.396563) scale(0.1 -0.1)">
       <defs>
        <path id="DejaVuSans-30" d="M 2034 4250 
Q 1547 4250 1301 3770 
Q 1056 3291 1056 2328 
Q 1056 1369 1301 889 
Q 1547 409 2034 409 
Q 2525 409 2770 889 
Q 3016 1369 3016 2328 
Q 3016 3291 2770 3770 
Q 2525 4250 2034 4250 
z
M 2034 4750 
Q 2819 4750 3233 4129 
Q 3647 3509 3647 2328 
Q 3647 1150 3233 529 
Q 2819 -91 2034 -91 
Q 1250 -91 836 529 
Q 422 1150 422 2328 
Q 422 3509 836 4129 
Q 1250 4750 2034 4750 
z
" transform="scale(0.015625)"/>
       </defs>
       <use xlink:href="#DejaVuSans-30"/>
      </g>
     </g>
    </g>
    <g id="xtick_7">
     <g id="line2d_35">
      <path d="M 266.747187 271.798125 
L 266.747187 193.835625 
" clip-path="url(#p60d4d82caf)" style="fill: none; stroke: #b0b0b0; stroke-width: 0.8; stroke-linecap: square"/>
     </g>
     <g id="line2d_36">
      <g>
       <use xlink:href="#m72f011383d" x="266.747187" y="271.798125" style="stroke: #000000; stroke-width: 0.8"/>
      </g>
     </g>
     <g id="text_17">
      <!-- 2 -->
      <g transform="translate(263.565938 286.396563) scale(0.1 -0.1)">
       <use xlink:href="#DejaVuSans-32"/>
      </g>
     </g>
    </g>
    <g id="xtick_8">
     <g id="line2d_37">
      <path d="M 318.827187 271.798125 
L 318.827187 193.835625 
" clip-path="url(#p60d4d82caf)" style="fill: none; stroke: #b0b0b0; stroke-width: 0.8; stroke-linecap: square"/>
     </g>
     <g id="line2d_38">
      <g>
       <use xlink:href="#m72f011383d" x="318.827187" y="271.798125" style="stroke: #000000; stroke-width: 0.8"/>
      </g>
     </g>
     <g id="text_18">
      <!-- 4 -->
      <g transform="translate(315.645938 286.396563) scale(0.1 -0.1)">
       <defs>
        <path id="DejaVuSans-34" d="M 2419 4116 
L 825 1625 
L 2419 1625 
L 2419 4116 
z
M 2253 4666 
L 3047 4666 
L 3047 1625 
L 3713 1625 
L 3713 1100 
L 3047 1100 
L 3047 0 
L 2419 0 
L 2419 1100 
L 313 1100 
L 313 1709 
L 2253 4666 
z
" transform="scale(0.015625)"/>
       </defs>
       <use xlink:href="#DejaVuSans-34"/>
      </g>
     </g>
    </g>
    <g id="text_19">
     <!-- docking_score_combined -->
     <g transform="translate(184.5125 300.074687) scale(0.1 -0.1)">
      <use xlink:href="#DejaVuSans-64"/>
      <use xlink:href="#DejaVuSans-6f" x="63.476562"/>
      <use xlink:href="#DejaVuSans-63" x="124.658203"/>
      <use xlink:href="#DejaVuSans-6b" x="179.638672"/>
      <use xlink:href="#DejaVuSans-69" x="237.548828"/>
      <use xlink:href="#DejaVuSans-6e" x="265.332031"/>
      <use xlink:href="#DejaVuSans-67" x="328.710938"/>
      <use xlink:href="#DejaVuSans-5f" x="392.1875"/>
      <use xlink:href="#DejaVuSans-73" x="442.1875"/>
      <use xlink:href="#DejaVuSans-63" x="494.287109"/>
      <use xlink:href="#DejaVuSans-6f" x="549.267578"/>
      <use xlink:href="#DejaVuSans-72" x="610.449219"/>
      <use xlink:href="#DejaVuSans-65" x="649.3125"/>
      <use xlink:href="#DejaVuSans-5f" x="710.835938"/>
      <use xlink:href="#DejaVuSans-63" x="760.835938"/>
      <use xlink:href="#DejaVuSans-6f" x="815.816406"/>
      <use xlink:href="#DejaVuSans-6d" x="876.998047"/>
      <use xlink:href="#DejaVuSans-62" x="974.410156"/>
      <use xlink:href="#DejaVuSans-69" x="1037.886719"/>
      <use xlink:href="#DejaVuSans-6e" x="1065.669922"/>
      <use xlink:href="#DejaVuSans-65" x="1129.048828"/>
      <use xlink:href="#DejaVuSans-64" x="1190.572266"/>
     </g>
    </g>
   </g>
   <g id="matplotlib.axis_4">
    <g id="ytick_12">
     <g id="line2d_39">
      <g>
       <use xlink:href="#m4276250dcb" x="149.567187" y="201.631875" style="stroke: #000000; stroke-width: 0.8"/>
      </g>
     </g>
     <g id="text_20">
      <!-- in_vitro_active -->
      <g transform="translate(70.432812 205.431094) scale(0.1 -0.1)">
       <use xlink:href="#DejaVuSans-69"/>
       <use xlink:href="#DejaVuSans-6e" x="27.783203"/>
       <use xlink:href="#DejaVuSans-5f" x="91.162109"/>
       <use xlink:href="#DejaVuSans-76" x="141.162109"/>
       <use xlink:href="#DejaVuSans-69" x="200.341797"/>
       <use xlink:href="#DejaVuSans-74" x="228.125"/>
       <use xlink:href="#DejaVuSans-72" x="267.333984"/>
       <use xlink:href="#DejaVuSans-6f" x="306.197266"/>
       <use xlink:href="#DejaVuSans-5f" x="367.378906"/>
       <use xlink:href="#DejaVuSans-61" x="417.378906"/>
       <use xlink:href="#DejaVuSans-63" x="478.658203"/>
       <use xlink:href="#DejaVuSans-74" x="533.638672"/>
       <use xlink:href="#DejaVuSans-69" x="572.847656"/>
       <use xlink:href="#DejaVuSans-76" x="600.630859"/>
       <use xlink:href="#DejaVuSans-65" x="659.810547"/>
      </g>
     </g>
    </g>
    <g id="ytick_13">
     <g id="line2d_40">
      <g>
       <use xlink:href="#m4276250dcb" x="149.567187" y="217.224375" style="stroke: #000000; stroke-width: 0.8"/>
      </g>
     </g>
     <g id="text_21">
      <!-- in_vitro_inactive -->
      <g transform="translate(61.317187 221.023594) scale(0.1 -0.1)">
       <use xlink:href="#DejaVuSans-69"/>
       <use xlink:href="#DejaVuSans-6e" x="27.783203"/>
       <use xlink:href="#DejaVuSans-5f" x="91.162109"/>
       <use xlink:href="#DejaVuSans-76" x="141.162109"/>
       <use xlink:href="#DejaVuSans-69" x="200.341797"/>
       <use xlink:href="#DejaVuSans-74" x="228.125"/>
       <use xlink:href="#DejaVuSans-72" x="267.333984"/>
       <use xlink:href="#DejaVuSans-6f" x="306.197266"/>
       <use xlink:href="#DejaVuSans-5f" x="367.378906"/>
       <use xlink:href="#DejaVuSans-69" x="417.378906"/>
       <use xlink:href="#DejaVuSans-6e" x="445.162109"/>
       <use xlink:href="#DejaVuSans-61" x="508.541016"/>
       <use xlink:href="#DejaVuSans-63" x="569.820312"/>
       <use xlink:href="#DejaVuSans-74" x="624.800781"/>
       <use xlink:href="#DejaVuSans-69" x="664.009766"/>
       <use xlink:href="#DejaVuSans-76" x="691.792969"/>
       <use xlink:href="#DejaVuSans-65" x="750.972656"/>
      </g>
     </g>
    </g>
    <g id="ytick_14">
     <g id="line2d_41">
      <g>
       <use xlink:href="#m4276250dcb" x="149.567187" y="232.816875" style="stroke: #000000; stroke-width: 0.8"/>
      </g>
     </g>
     <g id="text_22">
      <!-- Prestwick -->
      <g transform="translate(95.298437 236.616094) scale(0.1 -0.1)">
       <defs>
        <path id="DejaVuSans-50" d="M 1259 4147 
L 1259 2394 
L 2053 2394 
Q 2494 2394 2734 2622 
Q 2975 2850 2975 3272 
Q 2975 3691 2734 3919 
Q 2494 4147 2053 4147 
L 1259 4147 
z
M 628 4666 
L 2053 4666 
Q 2838 4666 3239 4311 
Q 3641 3956 3641 3272 
Q 3641 2581 3239 2228 
Q 2838 1875 2053 1875 
L 1259 1875 
L 1259 0 
L 628 0 
L 628 4666 
z
" transform="scale(0.015625)"/>
        <path id="DejaVuSans-77" d="M 269 3500 
L 844 3500 
L 1563 769 
L 2278 3500 
L 2956 3500 
L 3675 769 
L 4391 3500 
L 4966 3500 
L 4050 0 
L 3372 0 
L 2619 2869 
L 1863 0 
L 1184 0 
L 269 3500 
z
" transform="scale(0.015625)"/>
       </defs>
       <use xlink:href="#DejaVuSans-50"/>
       <use xlink:href="#DejaVuSans-72" x="58.552734"/>
       <use xlink:href="#DejaVuSans-65" x="97.416016"/>
       <use xlink:href="#DejaVuSans-73" x="158.939453"/>
       <use xlink:href="#DejaVuSans-74" x="211.039062"/>
       <use xlink:href="#DejaVuSans-77" x="250.248047"/>
       <use xlink:href="#DejaVuSans-69" x="332.035156"/>
       <use xlink:href="#DejaVuSans-63" x="359.818359"/>
       <use xlink:href="#DejaVuSans-6b" x="414.798828"/>
      </g>
     </g>
    </g>
    <g id="ytick_15">
     <g id="line2d_42">
      <g>
       <use xlink:href="#m4276250dcb" x="149.567187" y="248.409375" style="stroke: #000000; stroke-width: 0.8"/>
      </g>
     </g>
     <g id="text_23">
      <!-- DUDE actives -->
      <g transform="translate(74.745312 252.208594) scale(0.1 -0.1)">
       <use xlink:href="#DejaVuSans-44"/>
       <use xlink:href="#DejaVuSans-55" x="77.001953"/>
       <use xlink:href="#DejaVuSans-44" x="150.195312"/>
       <use xlink:href="#DejaVuSans-45" x="227.197266"/>
       <use xlink:href="#DejaVuSans-20" x="290.380859"/>
       <use xlink:href="#DejaVuSans-61" x="322.167969"/>
       <use xlink:href="#DejaVuSans-63" x="383.447266"/>
       <use xlink:href="#DejaVuSans-74" x="438.427734"/>
       <use xlink:href="#DejaVuSans-69" x="477.636719"/>
       <use xlink:href="#DejaVuSans-76" x="505.419922"/>
       <use xlink:href="#DejaVuSans-65" x="564.599609"/>
       <use xlink:href="#DejaVuSans-73" x="626.123047"/>
      </g>
     </g>
    </g>
    <g id="ytick_16">
     <g id="line2d_43">
      <g>
       <use xlink:href="#m4276250dcb" x="149.567187" y="264.001875" style="stroke: #000000; stroke-width: 0.8"/>
      </g>
     </g>
     <g id="text_24">
      <!-- DUDE decoys -->
      <g transform="translate(75.104687 267.801094) scale(0.1 -0.1)">
       <use xlink:href="#DejaVuSans-44"/>
       <use xlink:href="#DejaVuSans-55" x="77.001953"/>
       <use xlink:href="#DejaVuSans-44" x="150.195312"/>
       <use xlink:href="#DejaVuSans-45" x="227.197266"/>
       <use xlink:href="#DejaVuSans-20" x="290.380859"/>
       <use xlink:href="#DejaVuSans-64" x="322.167969"/>
       <use xlink:href="#DejaVuSans-65" x="385.644531"/>
       <use xlink:href="#DejaVuSans-63" x="447.167969"/>
       <use xlink:href="#DejaVuSans-6f" x="502.148438"/>
       <use xlink:href="#DejaVuSans-79" x="563.330078"/>
       <use xlink:href="#DejaVuSans-73" x="622.509766"/>
      </g>
     </g>
    </g>
   </g>
   <g id="line2d_44">
    <path d="M 219.121982 201.631875 
L 233.881307 201.631875 
" clip-path="url(#p60d4d82caf)" style="fill: none; stroke: #3f3f3f; stroke-width: 1.875; stroke-linecap: square"/>
   </g>
   <g id="line2d_45">
    <path d="M 222.151035 201.631875 
L 229.530697 201.631875 
" clip-path="url(#p60d4d82caf)" style="fill: none; stroke: #3f3f3f; stroke-width: 5.625; stroke-linecap: square"/>
   </g>
   <g id="line2d_46">
    <path d="M 225.180088 201.631875 
" clip-path="url(#p60d4d82caf)" style="fill: none; stroke: #3f3f3f; stroke-width: 1.5; stroke-linecap: square"/>
    <defs>
     <path id="mfd7abf331f" d="M 0 2.34375 
L 0 -2.34375 
" style="stroke: #ffffff; stroke-width: 1.125"/>
    </defs>
    <g clip-path="url(#p60d4d82caf)">
     <use xlink:href="#mfd7abf331f" x="225.180088" y="201.631875" style="fill: #ffffff; stroke: #ffffff; stroke-width: 1.125"/>
    </g>
   </g>
   <g id="line2d_47">
    <path d="M 200.438831 217.224375 
L 229.795945 217.224375 
" clip-path="url(#p60d4d82caf)" style="fill: none; stroke: #3f3f3f; stroke-width: 1.875; stroke-linecap: square"/>
   </g>
   <g id="line2d_48">
    <path d="M 208.629609 217.224375 
L 219.243214 217.224375 
" clip-path="url(#p60d4d82caf)" style="fill: none; stroke: #3f3f3f; stroke-width: 5.625; stroke-linecap: square"/>
   </g>
   <g id="line2d_49">
    <path d="M 214.612483 217.224375 
" clip-path="url(#p60d4d82caf)" style="fill: none; stroke: #3f3f3f; stroke-width: 1.5; stroke-linecap: square"/>
    <g clip-path="url(#p60d4d82caf)">
     <use xlink:href="#mfd7abf331f" x="214.612483" y="217.224375" style="fill: #ffffff; stroke: #ffffff; stroke-width: 1.125"/>
    </g>
   </g>
   <g id="line2d_50">
    <path d="M 183.84976 232.816875 
L 255.52646 232.816875 
" clip-path="url(#p60d4d82caf)" style="fill: none; stroke: #3f3f3f; stroke-width: 1.875; stroke-linecap: square"/>
   </g>
   <g id="line2d_51">
    <path d="M 207.174351 232.816875 
L 226.682382 232.816875 
" clip-path="url(#p60d4d82caf)" style="fill: none; stroke: #3f3f3f; stroke-width: 5.625; stroke-linecap: square"/>
   </g>
   <g id="line2d_52">
    <path d="M 215.96176 232.816875 
" clip-path="url(#p60d4d82caf)" style="fill: none; stroke: #3f3f3f; stroke-width: 1.5; stroke-linecap: square"/>
    <g clip-path="url(#p60d4d82caf)">
     <use xlink:href="#mfd7abf331f" x="215.96176" y="232.816875" style="fill: #ffffff; stroke: #ffffff; stroke-width: 1.125"/>
    </g>
   </g>
   <g id="line2d_53">
    <path d="M 210.052566 248.409375 
L 295.780799 248.409375 
" clip-path="url(#p60d4d82caf)" style="fill: none; stroke: #3f3f3f; stroke-width: 1.875; stroke-linecap: square"/>
   </g>
   <g id="line2d_54">
    <path d="M 247.932164 248.409375 
L 277.026776 248.409375 
" clip-path="url(#p60d4d82caf)" style="fill: none; stroke: #3f3f3f; stroke-width: 5.625; stroke-linecap: square"/>
   </g>
   <g id="line2d_55">
    <path d="M 262.559201 248.409375 
" clip-path="url(#p60d4d82caf)" style="fill: none; stroke: #3f3f3f; stroke-width: 1.5; stroke-linecap: square"/>
    <g clip-path="url(#p60d4d82caf)">
     <use xlink:href="#mfd7abf331f" x="262.559201" y="248.409375" style="fill: #ffffff; stroke: #ffffff; stroke-width: 1.125"/>
    </g>
   </g>
   <g id="line2d_56">
    <path d="M 183.84976 264.001875 
L 276.895788 264.001875 
" clip-path="url(#p60d4d82caf)" style="fill: none; stroke: #3f3f3f; stroke-width: 1.875; stroke-linecap: square"/>
   </g>
   <g id="line2d_57">
    <path d="M 218.639644 264.001875 
L 241.946573 264.001875 
" clip-path="url(#p60d4d82caf)" style="fill: none; stroke: #3f3f3f; stroke-width: 5.625; stroke-linecap: square"/>
   </g>
   <g id="line2d_58">
    <path d="M 229.969534 264.001875 
" clip-path="url(#p60d4d82caf)" style="fill: none; stroke: #3f3f3f; stroke-width: 1.5; stroke-linecap: square"/>
    <g clip-path="url(#p60d4d82caf)">
     <use xlink:href="#mfd7abf331f" x="229.969534" y="264.001875" style="fill: #ffffff; stroke: #ffffff; stroke-width: 1.125"/>
    </g>
   </g>
   <g id="patch_24">
    <path d="M 149.567187 271.798125 
L 149.567187 193.835625 
" style="fill: none; stroke: #000000; stroke-width: 0.8; stroke-linejoin: miter; stroke-linecap: square"/>
   </g>
   <g id="patch_25">
    <path d="M 344.867188 271.798125 
L 344.867188 193.835625 
" style="fill: none; stroke: #000000; stroke-width: 0.8; stroke-linejoin: miter; stroke-linecap: square"/>
   </g>
   <g id="patch_26">
    <path d="M 149.567187 271.798125 
L 344.867188 271.798125 
" style="fill: none; stroke: #000000; stroke-width: 0.8; stroke-linejoin: miter; stroke-linecap: square"/>
   </g>
   <g id="patch_27">
    <path d="M 149.567187 193.835625 
L 344.867188 193.835625 
" style="fill: none; stroke: #000000; stroke-width: 0.8; stroke-linejoin: miter; stroke-linecap: square"/>
   </g>
  </g>
 </g>
 <defs>
  <clipPath id="pb9298d19e2">
   <rect x="149.567187" y="22.318125" width="195.3" height="171.5175"/>
  </clipPath>
  <clipPath id="p60d4d82caf">
   <rect x="149.567187" y="193.835625" width="195.3" height="77.9625"/>
  </clipPath>
 </defs>
</svg>
